<?xml version="1.0" encoding="utf-8"?>
<!-- Generator: Adobe Illustrator 16.0.4, SVG Export Plug-In . SVG Version: 6.00 Build 0)  -->
<!DOCTYPE svg PUBLIC "-//W3C//DTD SVG 1.1//EN" "http://www.w3.org/Graphics/SVG/1.1/DTD/svg11.dtd">
<svg version="1.1" id="Layer_2" xmlns="http://www.w3.org/2000/svg" xmlns:xlink="http://www.w3.org/1999/xlink" x="0px" y="0px"
	 width="31.375px" height="12.812px" viewBox="0 0 31.375 12.812" enable-background="new 0 0 31.375 12.812" xml:space="preserve">
<path fill="#545454" d="M30.75,6.25c0,3.037-2.463,5.5-5.5,5.5H6.5c-3.038,0-5.5-2.463-5.5-5.5l0,0c0-3.038,2.462-5.5,5.5-5.5h18.75
	C28.287,0.75,30.75,3.212,30.75,6.25L30.75,6.25z"/>
<g enable-background="new    ">
	<path fill="#FFFFFD" d="M4.521,2.848h0.35c0.401,0,0.605,0.204,0.605,0.605v5.211H4.29V4.75H3.207V3.897
		C3.855,3.897,4.358,3.428,4.521,2.848z"/>
	<path fill="#FFFFFD" d="M6.234,4.247c0.196-0.998,0.878-1.492,2.03-1.492c1.313,0,1.987,0.605,2.047,1.842
		c-0.025,0.443-0.136,0.785-0.333,1.032C9.757,5.935,9.16,6.43,8.179,7.095c-0.281,0.18-0.426,0.358-0.46,0.538h2.533v1.015H6.063
		c0.025-0.512,0.153-0.989,0.401-1.433c0.256-0.41,0.614-0.768,1.083-1.066s0.879-0.598,1.237-0.896
		C8.972,5.099,9.074,4.87,9.1,4.58C9.134,4,8.844,3.71,8.247,3.684c-0.631,0-0.938,0.409-0.93,1.22H6.669
		C6.293,4.904,6.148,4.682,6.234,4.247z"/>
	<path fill="#FFFFFD" d="M15.12,5.748c0.026,1.987-0.699,2.985-2.166,2.985c-1.467,0-2.184-1.006-2.149-3.002
		c0.008-1.987,0.725-2.977,2.149-2.977S15.095,3.752,15.12,5.748z M12.024,5.731c-0.026,1.364,0.281,2.047,0.93,2.047
		s0.964-0.674,0.955-2.03c-0.009-1.364-0.333-2.047-0.955-2.047C12.331,3.701,12.024,4.375,12.024,5.731z"/>
</g>
<g enable-background="new    ">
	<path fill="#FFFFFD" d="M18.639,3.402v2.5l1.398-1.604h1.365l-1.562,1.672l1.578,2.679h-1.364l-0.803-1.484
		c-0.145-0.256-0.289-0.384-0.435-0.384c-0.12,0.025-0.179,0.103-0.179,0.222v1.646h-1.135v-5.8h0.588
		C18.391,2.848,18.639,3.104,18.639,3.402z"/>
	<path fill="#FFFFFD" d="M22.816,5.765v2.883h-1.151V5.996c0-1.288,0.648-1.928,1.937-1.928c0.58,0,1.023,0.128,1.348,0.384
		c0.324-0.248,0.768-0.367,1.348-0.367c1.288,0,1.928,0.64,1.919,1.928v2.652h-0.588c-0.376-0.025-0.563-0.204-0.563-0.562v-2.32
		c-0.025-0.469-0.281-0.699-0.785-0.699c-0.503,0-0.759,0.23-0.768,0.699v2.866h-1.143V5.765c-0.025-0.47-0.281-0.699-0.785-0.699
		C23.081,5.066,22.825,5.296,22.816,5.765z"/>
</g>
</svg>
