<?xml version="1.0" encoding="utf-8"?>
<!-- Generator: Adobe Illustrator 16.0.4, SVG Export Plug-In . SVG Version: 6.00 Build 0)  -->
<!DOCTYPE svg PUBLIC "-//W3C//DTD SVG 1.1//EN" "http://www.w3.org/Graphics/SVG/1.1/DTD/svg11.dtd">
<svg version="1.1" id="Layer_2" xmlns="http://www.w3.org/2000/svg" xmlns:xlink="http://www.w3.org/1999/xlink" x="0px" y="0px"
	 width="31.375px" height="12.812px" viewBox="0 0 31.375 12.812" enable-background="new 0 0 31.375 12.812" xml:space="preserve">
<path fill="#545454" d="M30.75,6.406c0,3.037-2.463,5.5-5.5,5.5H6.5c-3.038,0-5.5-2.463-5.5-5.5l0,0c0-3.038,2.462-5.5,5.5-5.5
	h18.75C28.287,0.906,30.75,3.368,30.75,6.406L30.75,6.406z"/>
<g enable-background="new    ">
	<path fill="#FFFFFD" d="M4.333,3.005h0.35c0.401,0,0.605,0.204,0.605,0.605v5.211H4.103V4.906H3.019V4.053
		C3.667,4.053,4.171,3.585,4.333,3.005z"/>
	<path fill="#FFFFFD" d="M8.478,7.525H5.961V6.476l2.201-3.472h0.879c0.392,0,0.588,0.204,0.588,0.605v2.942h0.699v0.973H9.629
		v1.279H8.478V7.525z M8.495,4.036L6.882,6.587h1.612V4.036z"/>
	<path fill="#FFFFFD" d="M15.121,5.904c0.025,1.987-0.699,2.985-2.167,2.985c-1.467,0-2.183-1.006-2.149-3.002
		c0.008-1.987,0.725-2.977,2.149-2.977C14.379,2.911,15.096,3.908,15.121,5.904z M12.025,5.887
		c-0.026,1.364,0.281,2.047,0.929,2.047c0.648,0,0.964-0.674,0.956-2.03c-0.009-1.364-0.333-2.047-0.956-2.047
		C12.332,3.857,12.025,4.531,12.025,5.887z"/>
</g>
<g enable-background="new    ">
	<path fill="#FFFFFD" d="M18.639,3.558v2.5l1.398-1.604h1.365l-1.562,1.672l1.578,2.679h-1.364L19.252,7.32
		c-0.145-0.256-0.289-0.384-0.435-0.384c-0.12,0.025-0.179,0.103-0.179,0.222v1.646h-1.135v-5.8h0.588
		C18.391,3.005,18.639,3.26,18.639,3.558z"/>
	<path fill="#FFFFFD" d="M22.816,5.922v2.883h-1.151V6.152c0-1.288,0.648-1.928,1.937-1.928c0.58,0,1.023,0.128,1.348,0.384
		c0.324-0.248,0.768-0.367,1.348-0.367c1.288,0,1.928,0.64,1.919,1.928v2.652h-0.588c-0.376-0.025-0.563-0.204-0.563-0.562v-2.32
		c-0.025-0.469-0.281-0.699-0.785-0.699c-0.503,0-0.759,0.23-0.768,0.699v2.866h-1.143V5.922c-0.025-0.47-0.281-0.699-0.785-0.699
		C23.081,5.222,22.825,5.452,22.816,5.922z"/>
</g>
</svg>
