<?xml version="1.0" encoding="utf-8"?>
<!-- Generator: Adobe Illustrator 16.0.4, SVG Export Plug-In . SVG Version: 6.00 Build 0)  -->
<!DOCTYPE svg PUBLIC "-//W3C//DTD SVG 1.1//EN" "http://www.w3.org/Graphics/SVG/1.1/DTD/svg11.dtd">
<svg version="1.1" id="Layer_2" xmlns="http://www.w3.org/2000/svg" xmlns:xlink="http://www.w3.org/1999/xlink" x="0px" y="0px"
	 width="31.375px" height="12.812px" viewBox="0 0 31.375 12.812" enable-background="new 0 0 31.375 12.812" xml:space="preserve">
<path fill="#545454" stroke="#FFFFFD" stroke-miterlimit="10" d="M30.75,6.406c0,3.037-2.463,5.5-5.5,5.5H6.5
	c-3.038,0-5.5-2.463-5.5-5.5l0,0c0-3.038,2.462-5.5,5.5-5.5h18.75C28.287,0.906,30.75,3.368,30.75,6.406L30.75,6.406z"/>
<g enable-background="new    ">
	<path fill="#FFFFFD" d="M4.452,3.005h0.35c0.401,0,0.605,0.204,0.605,0.605v5.211H4.222V4.906H3.138V4.053
		C3.787,4.053,4.29,3.585,4.452,3.005z"/>
	<path fill="#FFFFFD" d="M8.383,2.911c1.006,0,1.749,0.597,1.8,1.492h-0.87c-0.136,0-0.239-0.061-0.315-0.179
		C8.827,3.969,8.58,3.841,8.247,3.841c-0.733,0-0.93,0.699-0.963,1.519c0.307-0.264,0.69-0.4,1.134-0.4
		c1.151,0,1.928,0.75,1.928,1.895c0,1.211-0.836,2.038-2.099,2.038c-1.612,0-2.217-1.135-2.217-2.85
		C6.029,4.232,6.686,2.911,8.383,2.911z M9.134,6.885C9.1,6.228,8.792,5.904,8.213,5.904C7.624,5.93,7.326,6.246,7.3,6.868
		c0.009,0.733,0.324,1.101,0.947,1.101C8.81,7.969,9.108,7.61,9.134,6.885z"/>
	<path fill="#FFFFFD" d="M15.12,5.904c0.026,1.987-0.699,2.985-2.166,2.985c-1.467,0-2.184-1.007-2.149-3.002
		C10.813,3.9,11.53,2.91,12.954,2.91C14.378,2.91,15.095,3.908,15.12,5.904z M12.024,5.887c-0.026,1.363,0.281,2.047,0.93,2.047
		s0.964-0.675,0.955-2.03C13.9,4.54,13.576,3.857,12.954,3.857C12.331,3.857,12.024,4.531,12.024,5.887z"/>
</g>
<g enable-background="new    ">
	<path fill="#FFFFFD" d="M18.639,3.558v2.5l1.398-1.604h1.365L19.84,6.126l1.578,2.68h-1.363L19.252,7.32
		c-0.145-0.256-0.289-0.384-0.436-0.384c-0.119,0.024-0.178,0.103-0.178,0.222v1.646h-1.136V3.004h0.588
		C18.391,3.005,18.639,3.26,18.639,3.558z"/>
	<path fill="#FFFFFD" d="M22.816,5.922v2.884h-1.151V6.152c0-1.288,0.647-1.928,1.937-1.928c0.58,0,1.023,0.128,1.349,0.384
		c0.323-0.248,0.768-0.367,1.348-0.367c1.288,0,1.929,0.64,1.919,1.928v2.652h-0.588c-0.376-0.025-0.562-0.204-0.562-0.562V5.939
		C27.041,5.47,26.785,5.24,26.281,5.24s-0.76,0.23-0.768,0.699v2.866H24.37V5.922c-0.024-0.47-0.281-0.698-0.785-0.698
		C23.081,5.222,22.825,5.452,22.816,5.922z"/>
</g>
</svg>
