<?xml version="1.0" encoding="utf-8"?>
<!-- Generator: Adobe Illustrator 16.0.4, SVG Export Plug-In . SVG Version: 6.00 Build 0)  -->
<!DOCTYPE svg PUBLIC "-//W3C//DTD SVG 1.1//EN" "http://www.w3.org/Graphics/SVG/1.1/DTD/svg11.dtd">
<svg version="1.1" id="Layer_2" xmlns="http://www.w3.org/2000/svg" xmlns:xlink="http://www.w3.org/1999/xlink" x="0px" y="0px"
	 width="31.375px" height="12.812px" viewBox="0 0 31.375 12.812" enable-background="new 0 0 31.375 12.812" xml:space="preserve">
<path fill="#545454" d="M30.75,6.406c0,3.037-2.463,5.5-5.5,5.5H6.5c-3.038,0-5.5-2.463-5.5-5.5l0,0c0-3.038,2.462-5.5,5.5-5.5
	h18.75C28.287,0.906,30.75,3.368,30.75,6.406L30.75,6.406z"/>
<g enable-background="new    ">
	<path fill="#FFFFFD" d="M4.486,3.005h0.35c0.401,0,0.605,0.204,0.605,0.605v5.211H4.256V4.906H3.172V4.053
		C3.821,4.053,4.324,3.585,4.486,3.005z"/>
	<path fill="#FFFFFD" d="M10.2,4.471c0,0.512-0.239,0.921-0.716,1.22c0.58,0.265,0.861,0.733,0.861,1.398
		c0,1.203-0.725,1.8-2.167,1.8c-1.407-0.025-2.115-0.622-2.115-1.8c0-0.647,0.29-1.108,0.87-1.398
		C6.43,5.52,6.183,5.102,6.183,4.437c0.068-1.007,0.742-1.51,2.03-1.51C9.535,2.927,10.2,3.439,10.2,4.471z M7.283,7.022
		c-0.026,0.597,0.281,0.896,0.93,0.896c0.631,0,0.947-0.299,0.921-0.896c-0.025-0.58-0.333-0.87-0.921-0.87
		C7.616,6.152,7.309,6.442,7.283,7.022z M7.368,4.556c0,0.47,0.273,0.699,0.836,0.699s0.845-0.229,0.845-0.699
		C9.023,4.088,8.742,3.857,8.213,3.857S7.402,4.088,7.368,4.556z"/>
	<path fill="#FFFFFD" d="M15.12,5.904c0.026,1.987-0.699,2.985-2.166,2.985c-1.467,0-2.184-1.006-2.149-3.002
		c0.008-1.987,0.725-2.977,2.149-2.977C14.378,2.911,15.095,3.908,15.12,5.904z M12.024,5.887c-0.026,1.364,0.281,2.047,0.93,2.047
		s0.964-0.674,0.955-2.03C13.9,4.54,13.576,3.857,12.954,3.857C12.331,3.857,12.024,4.531,12.024,5.887z"/>
</g>
<g enable-background="new    ">
	<path fill="#FFFFFD" d="M18.639,3.558v2.5l1.398-1.604h1.365l-1.562,1.672l1.578,2.679h-1.364L19.252,7.32
		c-0.145-0.256-0.289-0.384-0.435-0.384c-0.12,0.025-0.179,0.103-0.179,0.222v1.646h-1.135v-5.8h0.588
		C18.391,3.005,18.639,3.26,18.639,3.558z"/>
	<path fill="#FFFFFD" d="M22.816,5.922v2.883h-1.151V6.152c0-1.288,0.648-1.928,1.937-1.928c0.58,0,1.023,0.128,1.348,0.384
		c0.324-0.248,0.768-0.367,1.348-0.367c1.288,0,1.928,0.64,1.919,1.928v2.652h-0.588c-0.376-0.025-0.563-0.204-0.563-0.562v-2.32
		c-0.025-0.469-0.281-0.699-0.785-0.699c-0.503,0-0.759,0.23-0.768,0.699v2.866h-1.143V5.922c-0.025-0.47-0.281-0.699-0.785-0.699
		C23.081,5.222,22.825,5.452,22.816,5.922z"/>
</g>
</svg>
