<?xml version="1.0" encoding="utf-8"?>
<!-- Generator: Adobe Illustrator 16.0.4, SVG Export Plug-In . SVG Version: 6.00 Build 0)  -->
<!DOCTYPE svg PUBLIC "-//W3C//DTD SVG 1.1//EN" "http://www.w3.org/Graphics/SVG/1.1/DTD/svg11.dtd">
<svg version="1.1" id="Layer_2" xmlns="http://www.w3.org/2000/svg" xmlns:xlink="http://www.w3.org/1999/xlink" x="0px" y="0px"
	 width="31.375px" height="12.812px" viewBox="0 0 31.375 12.812" enable-background="new 0 0 31.375 12.812" xml:space="preserve">
<path fill="#545454" stroke="#FFFFFD" stroke-miterlimit="10" d="M30.75,6.406c0,3.037-2.463,5.5-5.5,5.5H6.5
	c-3.038,0-5.5-2.463-5.5-5.5l0,0c0-3.038,2.462-5.5,5.5-5.5h18.75C28.287,0.906,30.75,3.368,30.75,6.406L30.75,6.406z"/>
<g enable-background="new    ">
	<path fill="#FFFFFD" d="M6.59,4.574c0.009-0.486-0.247-0.733-0.776-0.733S5.003,4.147,4.978,4.77H4.364
		C3.963,4.778,3.818,4.574,3.929,4.156C4.176,3.32,4.816,2.911,5.856,2.911c1.262-0.009,1.911,0.512,1.936,1.577
		C7.818,5.017,7.58,5.41,7.076,5.64c0.623,0.222,0.93,0.674,0.93,1.363c0,1.245-0.725,1.877-2.192,1.886
		c-1.459,0-2.158-0.647-2.09-1.937h1.151C4.884,7.61,5.2,7.934,5.822,7.926C6.445,7.918,6.76,7.635,6.76,7.056
		S6.385,6.178,5.625,6.169H5.447V5.376h0.128C6.215,5.376,6.59,5.162,6.59,4.574z"/>
	<path fill="#FFFFFD" d="M12.781,5.904c0.025,1.987-0.7,2.985-2.167,2.985c-1.467,0-2.184-1.007-2.149-3.002
		C8.474,3.9,9.19,2.911,10.615,2.911C12.039,2.911,12.755,3.908,12.781,5.904z M9.685,5.887c-0.026,1.363,0.281,2.047,0.93,2.047
		c0.648,0,0.964-0.675,0.955-2.03c-0.008-1.364-0.333-2.047-0.955-2.047C9.993,3.857,9.685,4.531,9.685,5.887z"/>
</g>
<g enable-background="new    ">
	<path fill="#FFFFFD" d="M18.639,3.558v2.5l1.398-1.604h1.365L19.84,6.126l1.578,2.68h-1.363L19.252,7.32
		c-0.145-0.256-0.289-0.384-0.436-0.384c-0.119,0.024-0.178,0.103-0.178,0.222v1.646h-1.136V3.004h0.588
		C18.391,3.005,18.639,3.26,18.639,3.558z"/>
	<path fill="#FFFFFD" d="M22.816,5.922v2.884h-1.151V6.152c0-1.288,0.647-1.928,1.937-1.928c0.58,0,1.023,0.128,1.349,0.384
		c0.323-0.248,0.768-0.367,1.348-0.367c1.288,0,1.929,0.64,1.919,1.928v2.652h-0.588c-0.376-0.025-0.562-0.204-0.562-0.562V5.939
		C27.041,5.47,26.785,5.24,26.281,5.24s-0.76,0.23-0.768,0.699v2.866H24.37V5.922c-0.024-0.47-0.281-0.698-0.785-0.698
		C23.081,5.222,22.825,5.452,22.816,5.922z"/>
</g>
</svg>
