<?xml version="1.0" encoding="utf-8"?>
<!-- Generator: Adobe Illustrator 16.0.4, SVG Export Plug-In . SVG Version: 6.00 Build 0)  -->
<!DOCTYPE svg PUBLIC "-//W3C//DTD SVG 1.1//EN" "http://www.w3.org/Graphics/SVG/1.1/DTD/svg11.dtd">
<svg version="1.1" id="Layer_2" xmlns="http://www.w3.org/2000/svg" xmlns:xlink="http://www.w3.org/1999/xlink" x="0px" y="0px"
	 width="31.375px" height="12.812px" viewBox="0 0 31.375 12.812" enable-background="new 0 0 31.375 12.812" xml:space="preserve">
<path fill="#545454" stroke="#FFFFFF" stroke-miterlimit="10" d="M30.75,6.406c0,3.037-2.463,5.5-5.5,5.5H6.5
	c-3.038,0-5.5-2.463-5.5-5.5l0,0c0-3.038,2.462-5.5,5.5-5.5h18.75C28.287,0.906,30.75,3.368,30.75,6.406L30.75,6.406z"/>
<g enable-background="new    ">
	<path fill="#FFFFFD" d="M6.359,7.525H3.842V6.476l2.201-3.473h0.879c0.392,0,0.588,0.204,0.588,0.605v2.941h0.699v0.974H7.51v1.279
		H6.359V7.525z M6.376,4.036L4.764,6.587h1.612V4.036z"/>
	<path fill="#FFFFFD" d="M13.002,5.904c0.025,1.987-0.7,2.985-2.167,2.985S8.651,7.883,8.686,5.887
		c0.009-1.987,0.725-2.977,2.15-2.977C12.26,2.911,12.977,3.908,13.002,5.904z M9.906,5.887c-0.026,1.363,0.281,2.047,0.93,2.047
		c0.648,0,0.964-0.675,0.955-2.03c-0.008-1.364-0.333-2.047-0.955-2.047C10.213,3.857,9.906,4.531,9.906,5.887z"/>
	<path fill="#FFFFFD" d="M18.639,3.558v2.5l1.398-1.604H21.4L19.84,6.126l1.578,2.68h-1.365L19.252,7.32
		c-0.145-0.256-0.29-0.384-0.436-0.384c-0.118,0.024-0.18,0.103-0.18,0.222v1.646h-1.134V3.004h0.588
		C18.391,3.005,18.639,3.26,18.639,3.558z"/>
	<path fill="#FFFFFD" d="M22.816,5.922v2.884h-1.151V6.152c0-1.288,0.647-1.928,1.937-1.928c0.58,0,1.023,0.128,1.348,0.384
		c0.324-0.248,0.769-0.367,1.348-0.367c1.288,0,1.928,0.64,1.92,1.928v2.652h-0.589c-0.375-0.025-0.562-0.204-0.562-0.562V5.939
		C27.04,5.47,26.784,5.24,26.281,5.24c-0.504,0-0.76,0.23-0.768,0.699v2.866h-1.145V5.922c-0.025-0.47-0.281-0.698-0.784-0.698
		S22.825,5.452,22.816,5.922z"/>
</g>
</svg>
