<?xml version="1.0" encoding="utf-8"?>
<!-- Generator: Adobe Illustrator 16.0.4, SVG Export Plug-In . SVG Version: 6.00 Build 0)  -->
<!DOCTYPE svg PUBLIC "-//W3C//DTD SVG 1.1//EN" "http://www.w3.org/Graphics/SVG/1.1/DTD/svg11.dtd">
<svg version="1.1" id="Layer_2" xmlns="http://www.w3.org/2000/svg" xmlns:xlink="http://www.w3.org/1999/xlink" x="0px" y="0px"
	 width="31.375px" height="12.812px" viewBox="0 0 31.375 12.812" enable-background="new 0 0 31.375 12.812" xml:space="preserve">
<path fill="#545454" stroke="#FFFFFB" stroke-miterlimit="10" d="M30.562,6.406c0,3.037-2.463,5.5-5.5,5.5H6.312
	c-3.038,0-5.5-2.463-5.5-5.5l0,0c0-3.038,2.462-5.5,5.5-5.5h18.75C28.1,0.906,30.562,3.368,30.562,6.406L30.562,6.406z"/>
<g enable-background="new    ">
	<path fill="#FFFFFD" d="M6.077,2.911c1.006,0,1.749,0.597,1.8,1.492h-0.87c-0.136,0-0.239-0.061-0.315-0.179
		C6.521,3.969,6.273,3.841,5.94,3.841c-0.733,0-0.93,0.699-0.964,1.519c0.307-0.264,0.691-0.4,1.135-0.4
		c1.151,0,1.928,0.75,1.928,1.895c0,1.211-0.836,2.038-2.099,2.038c-1.612,0-2.217-1.135-2.217-2.85
		C3.723,4.232,4.38,2.911,6.077,2.911z M6.828,6.885c-0.035-0.656-0.342-0.98-0.921-0.98C5.318,5.93,5.02,6.246,4.994,6.868
		C5.002,7.601,5.318,7.969,5.94,7.969C6.503,7.969,6.802,7.61,6.828,6.885z"/>
	<path fill="#FFFFFD" d="M12.814,5.904c0.025,1.987-0.7,2.985-2.167,2.985c-1.467,0-2.184-1.007-2.149-3.002
		c0.009-1.987,0.725-2.977,2.15-2.977C12.072,2.911,12.789,3.908,12.814,5.904z M9.718,5.887C9.692,7.252,10,7.934,10.648,7.934
		s0.964-0.675,0.955-2.03c-0.008-1.364-0.333-2.047-0.955-2.047S9.718,4.531,9.718,5.887z"/>
	<path fill="#FFFFFD" d="M18.45,3.558v2.5l1.399-1.604h1.363l-1.561,1.672l1.578,2.68h-1.365L19.064,7.32
		c-0.146-0.256-0.291-0.384-0.436-0.384c-0.119,0.024-0.18,0.103-0.18,0.222v1.646h-1.135V3.004h0.588
		C18.203,3.005,18.45,3.26,18.45,3.558z"/>
	<path fill="#FFFFFD" d="M22.629,5.922v2.884h-1.15V6.152c0-1.288,0.647-1.928,1.936-1.928c0.58,0,1.023,0.128,1.348,0.384
		c0.324-0.248,0.77-0.367,1.348-0.367c1.289,0,1.929,0.64,1.92,1.928v2.652h-0.588c-0.375-0.025-0.562-0.204-0.562-0.562V5.939
		C26.854,5.47,26.598,5.24,26.094,5.24c-0.503,0-0.759,0.23-0.768,0.699v2.866h-1.145V5.922c-0.024-0.47-0.281-0.698-0.783-0.698
		C22.895,5.223,22.639,5.452,22.629,5.922z"/>
</g>
</svg>
