<?xml version="1.0" encoding="UTF-8" ?>
<!DOCTYPE svg PUBLIC "-//W3C//DTD SVG 1.1//EN" "http://www.w3.org/Graphics/SVG/1.1/DTD/svg11.dtd">
<svg width="512pt" height="512pt" viewBox="0 0 512 512" version="1.1" xmlns="http://www.w3.org/2000/svg">
<g id="#ffffffff">
<path fill="#ffffff" opacity="1.00" d=" M 313.23 43.18 C 323.63 41.51 334.63 43.81 343.41 49.65 C 354.02 56.55 361.24 68.39 362.43 81.00 C 363.69 92.78 359.73 104.97 351.80 113.76 C 343.18 123.52 329.92 128.91 316.94 127.88 C 304.78 127.09 293.15 120.73 285.88 110.96 C 278.22 100.93 275.50 87.39 278.54 75.15 C 282.35 58.83 296.64 45.63 313.23 43.18 Z" />
<path fill="#ffffff" opacity="1.00" d=" M 247.07 130.18 C 253.98 127.09 261.70 128.19 269.04 128.00 C 274.89 127.87 280.51 130.24 285.05 133.81 C 292.35 139.50 298.36 146.62 304.39 153.58 C 319.91 172.13 335.03 191.02 349.99 209.99 C 352.81 212.66 356.82 213.20 360.54 213.39 C 360.54 213.91 360.54 214.94 360.54 215.45 C 382.58 215.45 404.62 215.45 426.65 215.45 C 426.66 229.68 426.66 243.90 426.66 258.12 C 400.44 258.13 374.22 258.12 348.00 258.13 C 338.97 258.17 329.69 255.17 323.12 248.84 C 311.57 236.15 299.70 223.75 288.00 211.19 C 272.27 225.23 256.54 239.28 240.82 253.32 C 248.31 260.76 255.74 268.25 263.22 275.70 C 272.18 284.25 277.65 296.58 277.34 309.02 C 277.32 341.12 277.34 373.22 277.33 405.33 C 263.10 405.33 248.88 405.33 234.66 405.33 C 234.62 373.61 234.73 341.89 234.60 310.17 C 234.40 309.96 233.99 309.55 233.79 309.34 C 212.40 296.69 190.95 284.14 169.54 271.51 C 161.51 266.69 154.83 259.29 151.83 250.33 C 148.35 240.28 149.70 229.01 154.29 219.53 C 157.75 212.06 163.15 205.73 169.01 200.03 C 186.91 182.28 204.49 164.18 223.17 147.23 C 230.55 140.82 237.99 134.09 247.07 130.18 Z" />
<path fill="#ffffff" opacity="1.00" d=" M 114.57 299.73 C 130.58 297.17 147.32 299.26 162.15 305.85 C 180.89 314.06 196.46 329.22 205.17 347.73 C 213.29 364.76 215.42 384.54 211.17 402.92 C 207.17 420.58 197.28 436.81 183.55 448.60 C 170.83 459.59 154.81 466.75 138.11 468.70 C 120.43 470.87 102.11 467.25 86.58 458.51 C 69.45 448.98 55.77 433.40 48.59 415.15 C 40.61 395.15 40.70 372.07 48.87 352.14 C 59.73 324.86 85.50 304.15 114.57 299.73 M 118.50 333.73 C 97.23 337.75 79.69 356.39 77.18 377.93 C 75.01 394.23 81.83 411.09 94.05 421.93 C 104.24 431.17 118.25 436.21 132.00 435.01 C 146.68 433.86 160.47 425.79 169.14 413.98 C 177.35 403.00 180.95 388.59 178.35 375.08 C 175.65 360.14 165.85 346.81 152.66 339.38 C 142.43 333.51 130.08 331.40 118.50 333.73 Z" />
<path fill="#ffffff" opacity="1.00" d=" M 370.60 299.72 C 386.62 297.17 403.36 299.27 418.19 305.87 C 436.47 313.89 451.74 328.53 460.54 346.45 C 469.17 363.77 471.54 384.10 467.16 402.95 C 463.26 420.14 453.79 435.97 440.63 447.66 C 427.74 459.17 411.30 466.69 394.13 468.70 C 377.39 470.75 360.08 467.64 345.12 459.87 C 327.06 450.61 312.50 434.72 304.89 415.90 C 297.06 396.82 296.61 374.85 303.60 355.45 C 313.70 326.58 340.32 304.29 370.60 299.72 M 374.52 333.72 C 352.89 337.79 335.13 357.01 333.06 378.97 C 331.26 395.19 338.30 411.78 350.57 422.39 C 361.24 431.83 375.97 436.68 390.16 434.78 C 405.94 432.85 420.34 422.93 428.27 409.23 C 434.45 398.75 436.69 385.96 434.14 374.04 C 431.02 358.58 420.27 345.03 406.19 338.06 C 396.49 333.19 385.17 331.60 374.52 333.72 Z" />
</g>
</svg>
