<?xml version="1.0" encoding="utf-8"?>
<!-- Generator: Adobe Illustrator 15.1.0, SVG Export Plug-In . SVG Version: 6.00 Build 0)  -->
<!DOCTYPE svg PUBLIC "-//W3C//DTD SVG 1.1//EN" "http://www.w3.org/Graphics/SVG/1.1/DTD/svg11.dtd">
<svg version="1.1" xmlns="http://www.w3.org/2000/svg" xmlns:xlink="http://www.w3.org/1999/xlink" x="0px" y="0px" width="1024px"
	 height="1024px" viewBox="0 0 1024 1024" enable-background="new 0 0 1024 1024" xml:space="preserve">
<g id="Layer_1">
	<g>
		<g>
			<g>
				<path fill="#FFFFFF" d="M-1234.781,1595.148c-71.208,0-129.141-57.932-129.141-129.141v-375.992
					c0-71.208,57.932-129.141,129.141-129.141h375.992c71.209,0,129.142,57.933,129.142,129.141v375.992
					c0,71.209-57.933,129.141-129.142,129.141H-1234.781z"/>
			</g>
			<g>
				<g>
					<path fill="#555555" d="M-858.79,973.375c31.156,0,60.447,12.133,82.479,34.164c22.03,22.03,34.163,51.321,34.163,82.477
						v375.992c0,31.156-12.133,60.447-34.163,82.479c-22.031,22.029-51.322,34.162-82.479,34.162h-375.992
						c-31.156,0-60.447-12.133-82.477-34.162c-22.031-22.031-34.164-51.322-34.164-82.479v-375.992
						c0-31.155,12.133-60.446,34.164-82.477c22.031-22.031,51.321-34.164,82.477-34.164H-858.79 M-858.79,948.375h-375.992
						c-78.226,0-141.641,63.416-141.641,141.641v375.992c0,78.227,63.415,141.641,141.641,141.641h375.992
						c78.227,0,141.642-63.414,141.642-141.641v-375.992C-717.148,1011.791-780.563,948.375-858.79,948.375L-858.79,948.375z"/>
				</g>
			</g>
		</g>
		<g>
			<polygon fill="#FFFFFF" points="-471.851,1003.783 -655.679,1204.422 -655.679,1281.844 -655.679,1286.998 -655.679,1364.42 
				-471.851,1565.059 -425.86,1565.059 -425.86,1286.998 -425.86,1281.844 -425.86,1003.783 			"/>
			<path fill="#555555" d="M-413.36,1577.559h-63.992l-190.827-208.279v-169.719l190.827-208.277h63.992V1577.559z
				 M-466.35,1552.559h27.99v-536.275h-27.99l-176.829,192.998v150.277L-466.35,1552.559z"/>
		</g>
		<g>
			<path fill="#555555" d="M-1220.121,1204.285c-45.98,0-68.86-30.36-68.86-77c0-48.181,24.2-77.221,71.5-77.221
				c18.26,0,33,4.4,44.22,13.64c10.56,9.46,16.5,22.44,18.04,38.72h-18.48c-6.6,0-11.44-3.08-14.3-9.02
				c-5.06-10.779-14.96-16.28-29.48-16.28c-28.38,0-40.92,20.021-40.92,50.161c0,29.26,12.1,49.939,40.04,49.939
				c19.14,0,30.14-10.561,33.44-27.061h29.7C-1158.081,1184.705-1182.281,1204.285-1220.121,1204.285z"/>
			<path fill="#555555" d="M-1060.4,1052.484l53.681,149.601h-32.34l-9.9-30.58h-57.86l-9.9,30.58h-32.78l49.94-139.7
				c2.2-6.601,7.04-9.9,14.52-9.9H-1060.4z M-1098.68,1146.205h41.141l-20.68-63.58L-1098.68,1146.205z"/>
			<path fill="#555555" d="M-976.583,1052.484h29.7l30.141,113.961l29.26-113.961h45.54v149.601h-28.82v-120.78l-30.58,120.78
				h-31.24l-30.58-120.78v120.78h-28.82v-133.54C-991.982,1059.965-985.163,1052.484-976.583,1052.484z"/>
			<path fill="#555555" d="M-884.248,1304.213h13.085c15.001,0,22.661,7.66,22.661,22.66v195.012h-44.364v-146.498H-933.4v-31.916
				C-909.143,1343.471-890.312,1325.916-884.248,1304.213z"/>
		</g>
	</g>
	<g>
		<g>
			<path fill="#FFFFFF" d="M-1234.781,863.074c-71.208,0-129.141-57.932-129.141-129.141V357.942
				c0-71.208,57.932-129.141,129.141-129.141h375.992c71.209,0,129.142,57.933,129.142,129.141v375.991
				c0,71.209-57.933,129.141-129.142,129.141H-1234.781z"/>
			<g>
				<path fill="#555555" d="M-858.79,241.301c31.156,0,60.447,12.133,82.479,34.164c22.03,22.031,34.163,51.322,34.163,82.478
					v375.991c0,31.156-12.133,60.447-34.163,82.479c-22.031,22.029-51.322,34.162-82.479,34.162h-375.992
					c-31.156,0-60.447-12.133-82.477-34.162c-22.031-22.031-34.164-51.322-34.164-82.479V357.942
					c0-31.156,12.133-60.447,34.164-82.478s51.321-34.164,82.477-34.164H-858.79 M-858.79,216.301h-375.992
					c-78.226,0-141.641,63.416-141.641,141.641v375.991c0,78.227,63.415,141.641,141.641,141.641h375.992
					c78.227,0,141.642-63.414,141.642-141.641V357.942C-717.148,279.717-780.563,216.301-858.79,216.301L-858.79,216.301z"/>
			</g>
		</g>
		<polygon fill="#FFFFFF" stroke="#555555" stroke-width="25" stroke-miterlimit="10" points="-471.851,271.709 -655.679,472.348 
			-655.679,549.77 -655.679,554.924 -655.679,632.346 -471.851,832.984 -425.86,832.984 -425.86,554.924 -425.86,549.77 
			-425.86,271.709 		"/>
		<text transform="matrix(1 0 0 1 -1303.9385 470.0112)"><tspan x="0" y="0" fill="#555555" font-family="'HarabaraMaisBold-HarabaraMaisBold'" font-size="220">CAM </tspan><tspan x="359.367" y="319.163" fill="#555555" font-family="'HarabaraMaisBold-HarabaraMaisBold'" font-size="319.1618">1</tspan></text>
	</g>
	<g>
		<g>
			<path fill="#FFFFFF" d="M-1234.781,134.212c-71.208,0-129.141-57.932-129.141-129.141V-370.92
				c0-71.208,57.932-129.141,129.141-129.141h375.992c71.209,0,129.142,57.933,129.142,129.141V5.071
				c0,71.209-57.933,129.141-129.142,129.141H-1234.781z"/>
			<g>
				<path fill="#555555" d="M-858.79-487.561c31.156,0,60.447,12.133,82.479,34.164c22.03,22.031,34.163,51.322,34.163,82.478V5.071
					c0,31.156-12.133,60.447-34.163,82.479c-22.031,22.029-51.322,34.162-82.479,34.162h-375.992
					c-31.156,0-60.447-12.133-82.477-34.162c-22.031-22.031-34.164-51.322-34.164-82.479V-370.92
					c0-31.156,12.133-60.447,34.164-82.478s51.321-34.164,82.477-34.164H-858.79 M-858.79-512.561h-375.992
					c-78.226,0-141.641,63.416-141.641,141.641V5.071c0,78.227,63.415,141.641,141.641,141.641h375.992
					c78.227,0,141.642-63.414,141.642-141.641V-370.92C-717.148-449.146-780.563-512.561-858.79-512.561L-858.79-512.561z"/>
			</g>
		</g>
		<polygon fill="#FFFFFF" stroke="#555555" stroke-width="25" stroke-miterlimit="10" points="-471.851,-457.153 -655.679,-256.515 
			-655.679,-179.093 -655.679,-173.938 -655.679,-96.517 -471.851,104.122 -425.86,104.122 -425.86,-173.938 -425.86,-179.093 
			-425.86,-457.153 		"/>
		<text transform="matrix(1 0 0 1 -1303.9385 -258.8516)"><tspan x="0" y="0" fill="#555555" font-family="'HarabaraMaisBold-HarabaraMaisBold'" font-size="220">CAM </tspan><tspan x="293.301" y="319.162" fill="#555555" font-family="'HarabaraMaisBold-HarabaraMaisBold'" font-size="319.1618">2</tspan></text>
	</g>
	<g>
		<polygon fill="#FFFFFF" stroke="#555555" stroke-width="25" stroke-miterlimit="10" points="-458.536,-1187.148 -642.364,-986.51 
			-642.364,-909.088 -642.364,-903.934 -642.364,-826.512 -458.536,-625.874 -412.543,-625.874 -412.543,-903.934 
			-412.543,-909.088 -412.543,-1187.148 		"/>
		<g>
			<g>
				<path fill="#FFFFFF" d="M-1227.717-589.374c-71.208,0-129.141-57.933-129.141-129.141v-375.992
					c0-71.208,57.932-129.141,129.141-129.141h375.993c71.208,0,129.141,57.933,129.141,129.141v375.992
					c0,71.208-57.933,129.141-129.141,129.141H-1227.717z"/>
				<g>
					<path fill="#555555" d="M-851.724-1211.147c31.156,0,60.447,12.133,82.478,34.164c22.03,22.03,34.163,51.322,34.163,82.478
						v375.992c0,31.156-12.133,60.447-34.163,82.478s-51.321,34.163-82.478,34.163h-375.993c-31.156,0-60.447-12.133-82.477-34.163
						c-22.031-22.03-34.164-51.321-34.164-82.478v-375.992c0-31.156,12.133-60.447,34.164-82.478s51.321-34.164,82.477-34.164
						H-851.724 M-851.724-1236.147h-375.993c-78.226,0-141.641,63.416-141.641,141.641v375.992
						c0,78.227,63.415,141.641,141.641,141.641h375.993c78.227,0,141.641-63.414,141.641-141.641v-375.992
						C-710.083-1172.732-773.498-1236.147-851.724-1236.147L-851.724-1236.147z"/>
				</g>
			</g>
			
				<text transform="matrix(1 0 0 1 -1288.0605 -836.8462)" fill="#555555" font-family="'HarabaraMaisBold-HarabaraMaisBold'" font-size="221.8278">finish</text>
		</g>
	</g>
	<g>
		<g>
			<polygon fill="#FFFFFF" points="3663.498,-1309.869 3479.67,-1109.23 3479.67,-1031.808 3479.67,-1026.654 3479.67,-949.232 
				3663.498,-748.593 3709.49,-748.593 3709.49,-1026.654 3709.49,-1031.808 3709.49,-1309.869 			"/>
			<path fill="#555555" d="M3721.99-736.093h-63.992L3467.17-944.372v-169.719l190.828-208.278h63.992V-736.093z M3669-761.093
				h27.99v-536.275H3669l-176.83,192.999v150.277L3669-761.093z"/>
		</g>
		<g>
			<g>
				<g>
					<path fill="#FFFFFF" d="M2894.316-712.093c-71.207,0-129.141-57.933-129.141-129.141v-375.992
						c0-71.209,57.934-129.141,129.141-129.141h375.994c71.207,0,129.141,57.932,129.141,129.141v375.992
						c0,71.208-57.934,129.141-129.141,129.141H2894.316z"/>
				</g>
				<g>
					<g>
						<path fill="#555555" d="M3270.311-1333.867c31.156,0,60.447,12.133,82.477,34.163c22.031,22.03,34.164,51.321,34.164,82.478
							v375.992c0,31.156-12.133,60.447-34.164,82.478c-22.029,22.03-51.32,34.163-82.477,34.163h-375.994
							c-31.154,0-60.445-12.133-82.477-34.163s-34.164-51.321-34.164-82.478v-375.992c0-31.156,12.133-60.447,34.164-82.478
							s51.322-34.163,82.477-34.163H3270.311 M3270.311-1358.867h-375.994c-78.225,0-141.641,63.415-141.641,141.641v375.992
							c0,78.227,63.416,141.641,141.641,141.641h375.994c78.227,0,141.641-63.414,141.641-141.641v-375.992
							C3411.951-1295.452,3348.537-1358.867,3270.311-1358.867L3270.311-1358.867z"/>
					</g>
				</g>
			</g>
			<g>
				<path fill="#555555" d="M2875.234-1047.855h-3.992v88.289h-29.504v-120.455c-1.109-22.405,11.979-31.278,33.939-31.278
					c5.102,0,9.762,0.222,14.197,0.888v24.401h-7.764c-6.877,0-10.648,2.884-11.314,8.651v7.764h19.078v6.877
					C2889.875-1054.732,2883.221-1047.855,2875.234-1047.855z"/>
				<path fill="#555555" d="M2919.818-1110.412c9.762,0,14.42,4.88,14.197,14.419v8.651h-29.504v-23.07H2919.818z
					 M2919.818-1076.916c9.539,0,14.197,4.658,14.197,14.197v103.152h-29.504v-117.35H2919.818z"/>
				<path fill="#555555" d="M3035.613-959.566c-9.762-0.665-14.641-5.324-14.641-14.641v-60.339
					c-0.666-12.201-7.32-18.19-20.41-18.19c-13.088,0-19.742,5.989-19.965,18.19v74.979h-29.947v-68.99
					c0-33.496,16.859-50.134,50.357-50.134c33.496,0,49.912,16.638,49.689,50.134v68.99H3035.613z"/>
				<path fill="#555555" d="M3079.309-1110.412c9.76,0,14.42,4.88,14.197,14.419v8.651h-29.504v-23.07H3079.309z M3079.309-1076.916
					c9.539,0,14.197,4.658,14.197,14.197v103.152h-29.504v-117.35H3079.309z"/>
				<path fill="#555555" d="M3161.383-980.862c12.424,0,18.635-3.55,18.635-11.092c0-5.989-10.205-10.869-30.391-14.419
					c-25.955-4.658-39.266-16.193-39.486-34.606c0-25.288,19.965-37.268,46.807-37.711c15.084,0,27.063,3.327,35.938,9.982
					c8.65,6.877,13.309,16.415,13.975,28.616h-18.635c-6.877-0.222-11.313-2.662-13.088-7.32c-1.996-5.103-7.986-7.986-17.746-7.986
					c-11.535,0-17.303,3.105-17.303,9.096c0,5.989,7.543,10.647,22.848,13.531c19.965,3.993,33.055,9.096,39.486,15.085
					c5.547,5.768,8.209,12.866,8.209,20.853c0,28.838-22.627,39.486-53.684,39.486c-16.416,0-28.838-3.55-36.824-10.427
					c-8.873-6.654-13.311-16.859-13.311-30.391h30.17C3137.648-985.298,3146.965-980.862,3161.383-980.862z"/>
				<path fill="#555555" d="M3278.063-1052.292c-17.525,0-25.066,14.642-25.066,32.61v60.116h-29.504v-150.846h14.861
					c9.762,0,14.643,5.102,14.643,14.862v35.05c15.084-17.304,33.496-22.184,55.457-14.419c16.416,5.989,24.18,21.739,23.293,47.25
					v68.103h-29.281v-60.116C3302.465-1039.425,3294.922-1052.292,3278.063-1052.292z"/>
			</g>
		</g>
	</g>
	<g>
		<g>
			<polygon fill="#FFFFFF" points="3663.499,-539.49 3479.671,-338.851 3479.671,-261.43 3479.671,-256.275 3479.671,-178.854 
				3663.499,21.785 3709.491,21.785 3709.491,-256.275 3709.491,-261.43 3709.491,-539.49 			"/>
			<path fill="#555555" d="M3721.991,34.285h-63.993l-190.827-208.277v-169.719l190.827-208.278h63.993V34.285z M3669,9.285h27.991
				V-526.99H3669l-176.829,192.999v150.278L3669,9.285z"/>
		</g>
		<g>
			<g>
				<g>
					<path fill="#FFFFFF" d="M2894.317,58.285c-71.209,0-129.141-57.932-129.141-129.141v-375.992
						c0-71.209,57.932-129.141,129.141-129.141h375.992c71.209,0,129.141,57.932,129.141,129.141v375.992
						c0,71.209-57.932,129.141-129.141,129.141H2894.317z"/>
				</g>
				<g>
					<g>
						<path fill="#555555" d="M3270.31-563.488c31.156,0,60.447,12.133,82.479,34.163c22.029,22.03,34.162,51.321,34.162,82.478
							v375.992c0,31.156-12.133,60.447-34.162,82.479c-22.031,22.029-51.322,34.162-82.479,34.162h-375.992
							c-31.156,0-60.447-12.133-82.477-34.162c-22.031-22.031-34.164-51.322-34.164-82.479v-375.992
							c0-31.156,12.133-60.447,34.164-82.478c22.03-22.03,51.32-34.163,82.477-34.163H3270.31 M3270.31-588.488h-375.992
							c-78.226,0-141.641,63.415-141.641,141.641v375.992c0,78.227,63.415,141.641,141.641,141.641h375.992
							c78.227,0,141.641-63.414,141.641-141.641v-375.992C3411.95-525.073,3348.536-588.488,3270.31-588.488L3270.31-588.488z"/>
					</g>
				</g>
			</g>
			<g>
				<path fill="#555555" d="M2839.25-346.935v63.859h-25.506v-58.758c0-28.529,14.358-42.699,42.888-42.699
					c12.848,0,22.672,2.834,29.852,8.502c7.18-5.479,17.004-8.124,29.852-8.124c28.529,0,42.699,14.17,42.511,42.699v58.759h-13.036
					c-8.313-0.566-12.471-4.535-12.471-12.47v-51.391c-0.566-10.391-6.234-15.492-17.381-15.492
					c-11.147,0-16.815,5.102-17.004,15.492v63.482h-25.318v-63.859c-0.566-10.392-6.234-15.493-17.381-15.493
					C2845.106-362.428,2839.438-357.327,2839.25-346.935z"/>
				<path fill="#555555" d="M3063.517-332.577c0,34.386-15.303,51.768-45.533,51.768c-30.229,0-45.344-17.382-45.344-51.768
					c0-34.764,15.115-51.957,45.344-51.957C3048.214-384.534,3063.517-367.34,3063.517-332.577z M2998.146-332.577
					c0.189,19.46,6.803,29.285,19.65,29.285c12.846,0,19.27-10.202,19.459-30.041c0-19.46-6.424-29.096-19.271-29.096
					C3004.759-362.428,2998.146-352.415,2998.146-332.577z"/>
				<path fill="#555555" d="M3100.737-369.041c6.424-10.392,15.869-15.493,28.34-15.493c26.639,0.945,39.865,18.327,39.865,52.335
					c0,33.253-15.492,50.068-46.479,50.634c-31.174,0.189-46.855-14.737-46.855-44.777v-85.21h12.658
					c8.313,0,12.471,4.346,12.471,12.659V-369.041z M3100.737-333.333c-0.189,20.216,6.611,30.419,20.971,30.419
					s21.539-10.203,21.539-30.419c-0.566-19.271-7.559-28.718-21.16-28.718C3108.483-362.05,3101.493-352.603,3100.737-333.333z"/>
				<path fill="#555555" d="M3193.315-411.551c8.313,0,12.279,4.157,12.092,12.281v7.368h-25.129v-19.649H3193.315z
					 M3193.315-383.022c8.123,0,12.092,3.968,12.092,12.092v87.854h-25.129v-99.946H3193.315z"/>
				<path fill="#555555" d="M3248.481-399.27v116.194h-25.129v-128.475h13.037C3243.001-411.551,3248.481-405.883,3248.481-399.27z"
					/>
				<path fill="#555555" d="M3307.239-280.809c-30.229-0.945-45.344-18.515-45.344-52.524c0-34.008,15.303-51.012,45.723-51.201
					c31.74,0,46.666,19.461,44.777,58.57h-64.615c0.943,15.304,7.557,23.05,19.838,23.05c5.855,0,11.336-2.456,16.248-7.18
					c2.268-2.456,5.102-3.59,8.502-3.59h18.516C3345.405-292.522,3331.802-280.809,3307.239-280.809z M3288.157-343.913h37.598
					c-1.512-13.226-7.746-20.027-18.516-20.027S3290.046-357.138,3288.157-343.913z"/>
				<path fill="#555555" d="M3219.073-203.076h10.25c11.75,0,17.75,6,17.75,17.75v152.75h-34.75v-114.75h-31.75v-25
					C3199.573-172.326,3214.323-186.076,3219.073-203.076z"/>
			</g>
		</g>
	</g>
	<g>
		<g>
			<polygon fill="#FFFFFF" points="938.166,231.361 754.338,432 754.338,509.422 754.338,514.576 754.338,591.998 938.166,792.637 
				984.158,792.637 984.158,514.576 984.158,509.422 984.158,231.361 			"/>
			<path fill="#555555" d="M996.658,805.137h-63.994L741.838,596.858V427.14l190.826-208.278h63.994V805.137z M943.666,780.137
				h27.992V243.861h-27.992L766.838,436.86v150.277L943.666,780.137z"/>
		</g>
		<g>
			<g>
				<g>
					<path fill="#FFFFFF" d="M168.984,829.137c-71.209,0-129.141-57.933-129.141-129.141V324.004
						c0-71.209,57.932-129.141,129.141-129.141h375.993c71.209,0,129.141,57.932,129.141,129.141v375.992
						c0,71.208-57.932,129.141-129.141,129.141H168.984z"/>
				</g>
				<g>
					<g>
						<path fill="#555555" d="M544.977,207.363c31.156,0,60.447,12.133,82.479,34.163c22.029,22.03,34.162,51.321,34.162,82.478
							v375.992c0,31.156-12.133,60.447-34.162,82.478c-22.031,22.03-51.322,34.163-82.479,34.163H168.984
							c-31.156,0-60.447-12.133-82.477-34.163c-22.031-22.03-34.164-51.321-34.164-82.478V324.004
							c0-31.156,12.133-60.447,34.164-82.478c22.03-22.03,51.32-34.163,82.477-34.163H544.977 M544.977,182.363H168.984
							c-78.226,0-141.641,63.415-141.641,141.641v375.992c0,78.227,63.415,141.641,141.641,141.641h375.993
							c78.227,0,141.641-63.414,141.641-141.641V324.004C686.617,245.778,623.203,182.363,544.977,182.363L544.977,182.363z"/>
					</g>
				</g>
			</g>
			<g>
				<path fill="#555555" d="M113.917,423.916v63.859H88.411v-58.759c0-28.529,14.358-42.699,42.888-42.699
					c12.848,0,22.672,2.834,29.852,8.502c7.18-5.479,17.004-8.124,29.852-8.124c28.529,0,42.699,14.17,42.511,42.699v58.759h-13.036
					c-8.313-0.566-12.471-4.534-12.471-12.47v-51.391c-0.566-10.391-6.234-15.492-17.381-15.492
					c-11.147,0-16.815,5.102-17.004,15.492v63.482h-25.318v-63.859c-0.566-10.392-6.234-15.493-17.381-15.493
					C119.773,408.423,114.105,413.524,113.917,423.916z"/>
				<path fill="#555555" d="M338.183,438.274c0,34.386-15.303,51.769-45.533,51.769c-30.229,0-45.344-17.383-45.344-51.769
					c0-34.764,15.115-51.957,45.344-51.957C322.88,386.317,338.183,403.511,338.183,438.274z M272.812,438.274
					c0.189,19.46,6.803,29.285,19.65,29.285c12.846,0,19.27-10.202,19.459-30.041c0-19.46-6.424-29.096-19.271-29.096
					C279.425,408.423,272.812,418.437,272.812,438.274z"/>
				<path fill="#555555" d="M375.404,401.811c6.424-10.392,15.869-15.493,28.34-15.493c26.639,0.945,39.865,18.327,39.865,52.335
					c0,33.253-15.492,50.067-46.479,50.635c-31.174,0.188-46.855-14.737-46.855-44.777V359.3h12.658
					c8.313,0,12.471,4.346,12.471,12.659V401.811z M375.404,437.519c-0.189,20.216,6.611,30.419,20.971,30.419
					s21.539-10.203,21.539-30.419c-0.566-19.271-7.559-28.718-21.16-28.718C383.15,408.801,376.16,418.248,375.404,437.519z"/>
				<path fill="#555555" d="M467.982,359.3c8.313,0,12.279,4.157,12.092,12.281v7.368h-25.129V359.3H467.982z M467.982,387.829
					c8.123,0,12.092,3.968,12.092,12.092v87.854h-25.129v-99.946H467.982z"/>
				<path fill="#555555" d="M523.148,371.581v116.194h-25.129V359.3h13.037C517.668,359.3,523.148,364.968,523.148,371.581z"/>
				<path fill="#555555" d="M581.906,490.043c-30.229-0.945-45.344-18.516-45.344-52.524c0-34.008,15.303-51.012,45.723-51.201
					c31.74,0,46.666,19.461,44.777,58.57h-64.615c0.943,15.304,7.557,23.05,19.838,23.05c5.855,0,11.336-2.456,16.248-7.18
					c2.268-2.456,5.102-3.59,8.502-3.59h18.516C620.072,478.329,606.469,490.043,581.906,490.043z M562.824,426.938h37.598
					c-1.512-13.226-7.746-20.027-18.516-20.027S564.713,413.713,562.824,426.938z"/>
				<path fill="#555555" d="M431.865,608.775c5.75-29.25,25.75-43.75,59.5-43.75c38.5,0,58.25,17.75,60,54c-0.75,13-4,23-9.75,30.25
					c-6.5,9-24,23.5-52.75,43c-8.25,5.25-12.5,10.5-13.5,15.75h74.25v29.75h-122.75c0.75-15,4.5-29,11.75-42
					c7.5-12,18-22.5,31.75-31.25s25.75-17.5,36.25-26.25c5.5-4.5,8.5-11.25,9.25-19.75c1-17-7.5-25.5-25-26.25
					c-18.5,0-27.5,12-27.25,35.75h-19C433.615,628.025,429.365,621.525,431.865,608.775z"/>
			</g>
		</g>
	</g>
	<g>
		<g>
			<polygon fill="#FFFFFF" points="2598.767,-539.49 2414.938,-338.852 2414.938,-261.43 2414.938,-256.275 2414.938,-178.854 
				2598.767,21.785 2644.759,21.785 2644.759,-256.275 2644.759,-261.43 2644.759,-539.49 			"/>
			<path fill="#555555" d="M2657.259,34.285h-63.993l-190.827-208.278v-169.719l190.827-208.278h63.993V34.285z M2604.268,9.285
				h27.991V-526.99h-27.991l-176.829,192.999v150.277L2604.268,9.285z"/>
		</g>
		<g>
			<g>
				<g>
					<path fill="#FFFFFF" d="M1829.585,58.285c-71.208,0-129.141-57.933-129.141-129.141v-375.992
						c0-71.208,57.933-129.141,129.141-129.141h375.993c71.208,0,129.141,57.933,129.141,129.141v375.992
						c0,71.208-57.933,129.141-129.141,129.141H1829.585z"/>
				</g>
				<g>
					<g>
						<path fill="#555555" d="M2205.578-563.489c31.156,0,60.447,12.133,82.478,34.164c22.03,22.03,34.163,51.322,34.163,82.478
							v375.992c0,31.156-12.133,60.447-34.163,82.478s-51.321,34.163-82.478,34.163h-375.993c-31.155,0-60.446-12.133-82.477-34.163
							c-22.031-22.03-34.164-51.321-34.164-82.478v-375.992c0-31.156,12.133-60.447,34.164-82.478s51.321-34.164,82.477-34.164
							H2205.578 M2205.578-588.489h-375.993c-78.225,0-141.641,63.416-141.641,141.641v375.992
							c0,78.227,63.416,141.641,141.641,141.641h375.993c78.227,0,141.641-63.414,141.641-141.641v-375.992
							C2347.219-525.073,2283.805-588.489,2205.578-588.489L2205.578-588.489z"/>
					</g>
				</g>
			</g>
			<g>
				<path fill="#555555" d="M1788.48-422.853h222.938v57.272h-95.139v264.591h-65.793V-365.58h-95.139v-22.72
					C1755.348-406.759,1770.021-422.853,1788.48-422.853z"/>
				<path fill="#555555" d="M2046.438-345.227c10.886-55.379,48.752-82.832,112.651-82.832c72.893,0,110.285,33.606,113.599,102.239
					c-1.42,24.613-7.573,43.546-18.46,57.272c-12.307,17.04-45.439,44.493-99.872,81.413c-15.619,9.939-23.666,19.88-25.56,29.819
					h140.578v56.326h-232.403c1.42-28.399,8.52-54.906,22.246-79.519c14.2-22.721,34.08-42.6,60.113-59.167
					c26.032-16.566,48.752-33.133,68.632-49.699c10.413-8.52,16.094-21.3,17.514-37.393c1.893-32.186-14.2-48.279-47.333-49.699
					c-35.026,0-52.066,22.72-51.593,67.686h-35.973C2049.751-308.781,2041.705-321.087,2046.438-345.227z"/>
			</g>
		</g>
	</g>
	<g>
		<g>
			<polygon fill="#FFFFFF" points="2586.266,-1306.799 2402.438,-1106.161 2402.438,-1028.738 2402.438,-1023.584 
				2402.438,-946.163 2586.266,-745.524 2632.258,-745.524 2632.258,-1023.584 2632.258,-1028.738 2632.258,-1306.799 			"/>
			<path fill="#555555" d="M2644.758-733.024h-63.993l-190.827-208.278v-169.719l190.827-208.278h63.993V-733.024z
				 M2591.767-758.024h27.991v-536.275h-27.991L2414.938-1101.3v150.277L2591.767-758.024z"/>
		</g>
		<g>
			<g>
				<g>
					<path fill="#FFFFFF" d="M1817.084-709.024c-71.208,0-129.141-57.933-129.141-129.141v-375.992
						c0-71.208,57.933-129.141,129.141-129.141h375.993c71.208,0,129.141,57.933,129.141,129.141v375.992
						c0,71.208-57.933,129.141-129.141,129.141H1817.084z"/>
				</g>
				<g>
					<g>
						<path fill="#555555" d="M2193.077-1330.798c31.156,0,60.447,12.133,82.478,34.164c22.03,22.03,34.163,51.322,34.163,82.478
							v375.992c0,31.156-12.133,60.447-34.163,82.478s-51.321,34.163-82.478,34.163h-375.993c-31.155,0-60.446-12.133-82.477-34.163
							c-22.031-22.03-34.164-51.321-34.164-82.478v-375.992c0-31.156,12.133-60.447,34.164-82.478s51.321-34.164,82.477-34.164
							H2193.077 M2193.077-1355.798h-375.993c-78.225,0-141.641,63.416-141.641,141.641v375.992
							c0,78.227,63.416,141.641,141.641,141.641h375.993c78.227,0,141.641-63.414,141.641-141.641v-375.992
							C2334.718-1292.382,2271.304-1355.798,2193.077-1355.798L2193.077-1355.798z"/>
					</g>
				</g>
			</g>
			<g>
				<path fill="#555555" d="M1828.957-1190.162h222.938v57.272h-95.139v264.591h-65.793v-264.591h-95.139v-22.72
					C1795.824-1174.068,1810.498-1190.162,1828.957-1190.162z"/>
				<path fill="#555555" d="M2155.074-1190.162h19.406c22.246,0,33.605,11.36,33.605,33.606v289.203h-65.792v-217.257h-60.112
					v-47.333C2118.154-1131.942,2146.081-1157.976,2155.074-1190.162z"/>
			</g>
		</g>
	</g>
</g>
<g id="Layer_2">
</g>
</svg>
