<?xml version="1.0" encoding="utf-8"?>
<!-- Generator: Adobe Illustrator 16.0.4, SVG Export Plug-In . SVG Version: 6.00 Build 0)  -->
<!DOCTYPE svg PUBLIC "-//W3C//DTD SVG 1.1//EN" "http://www.w3.org/Graphics/SVG/1.1/DTD/svg11.dtd">
<svg version="1.1" id="Layer_2" xmlns="http://www.w3.org/2000/svg" xmlns:xlink="http://www.w3.org/1999/xlink" x="0px" y="0px"
	 width="32px" height="32px" viewBox="0 0 32 32" enable-background="new 0 0 32 32" xml:space="preserve">
<polygon fill="#FFFFFF" points="4.75,5.219 4,7.167 4,16.212 4,24.75 4.985,26.514 7.125,28.083 12.833,28.083 18.334,28.083 
	23.334,28.083 25.865,28.083 27.573,27.062 28.757,25 28.757,18.75 28.969,7.594 28.167,5.861 27.167,4.543 25.417,3.5 21.46,3.312 
	17.938,3.312 13.312,3.312 9.358,3.312 6.469,3.688 "/>
<linearGradient id="SVGID_1_" gradientUnits="userSpaceOnUse" x1="10.7832" y1="15.8086" x2="22.4512" y2="15.8086">
	<stop  offset="0" style="stop-color:#A1A1A1"/>
	<stop  offset="1" style="stop-color:#000000"/>
</linearGradient>
<circle fill="url(#SVGID_1_)" cx="16.617" cy="15.809" r="5.834"/>
<path display="none" fill="none" stroke="#545454" stroke-width="0.5" stroke-miterlimit="10" d="M16.354,12.522
	c2.022,0.01,3.655,1.66,3.645,3.683l1.461,0.007c0.015-2.829-2.269-5.135-5.099-5.149L16.354,12.522z"/>
<g>
	<path fill="#545454" d="M24.324,3.885c2.21,0,4,1.791,4,4v15.848c0,2.209-1.79,4-4,4H8.479c-2.21,0-4-1.791-4-4V7.885
		c0-2.209,1.79-4,4-4H24.324 M24.324,2.885H8.479c-2.757,0-5,2.243-5,5v15.848c0,2.757,2.243,5,5,5h15.846c2.757,0,5-2.243,5-5
		V7.885C29.324,5.128,27.081,2.885,24.324,2.885L24.324,2.885z"/>
</g>
<circle fill="#FFFFFF" cx="19.23" cy="14.638" r="1.954"/>
<circle fill="#FFFFFF" cx="17.354" cy="11.813" r="0.709"/>
<circle fill="none" stroke="#545454" stroke-width="0.5" stroke-miterlimit="10" cx="16.617" cy="15.809" r="5.834"/>
<circle fill="none" stroke="#545454" stroke-width="0.5" stroke-miterlimit="10" cx="16.617" cy="15.809" r="7.259"/>
</svg>
