<?xml version="1.0" encoding="utf-8"?>
<!-- Generator: Adobe Illustrator 16.0.4, SVG Export Plug-In . SVG Version: 6.00 Build 0)  -->
<!DOCTYPE svg PUBLIC "-//W3C//DTD SVG 1.1//EN" "http://www.w3.org/Graphics/SVG/1.1/DTD/svg11.dtd">
<svg version="1.1" id="Ebene_1" xmlns="http://www.w3.org/2000/svg" xmlns:xlink="http://www.w3.org/1999/xlink" x="0px" y="0px"
	 width="132.416px" height="121.61px" viewBox="0 0 132.416 121.61" enable-background="new 0 0 132.416 121.61"
	 xml:space="preserve">
<g>
	<path fill="#00A77E" d="M23.639,86.134v19.469h6.121c1.867-0.027,3.514-0.193,4.803-0.662c1.787-0.662,2.803-1.791,3.268-2.346
		c0.549-0.633,0.824-1.074,0.988-1.404c1.209-2.207,1.318-4.856,1.318-5.571c0-2.566-0.77-4.357-1.236-5.24s-1.125-1.738-1.92-2.398
		c-1.922-1.518-4.557-1.766-5.08-1.82c-0.604-0.057-1.096-0.057-1.619-0.027H23.639z M47.53,86.134l-7.746,19.469h4.062
		l5.961-16.059l4.924,13.022l-5.574-0.027v3.064h10.805l-7.574-19.469H47.53z M57,86.11v3.283h6.148v16.188h4.283V89.337h6.094
		V86.11H57z M75.366,86.126v19.467h13.34v-3.307h-9.031v-5.241h8.07v-3.311h-8.07v-4.412h8.674v-3.197H75.366z M97.051,105.593
		l-7.275-19.467h4.365l5.484,16.059l4.629-12.981l-5.271-0.016v-3.062h10.506l-7.578,19.467H97.051z M27.618,89.333
		c0.727-0.027,1.455-0.086,2.184-0.086c0.223,0,2.492-0.053,3.836,0.818c1.178,0.787,2.297,2.59,2.297,5.766
		c0,3.405-1.373,5.149-2.66,5.854c-1.457,0.789-3.557,0.816-5.656,0.73V89.333z"/>
	<g>
		<rect x="23.639" y="19.754" fill="#72BF44" width="85.24" height="61.945"/>
		<path fill="#A0CF67" d="M66.26,50.728"/>
	</g>
</g>
</svg>
