<?xml version="1.0" encoding="UTF-8" ?>
<!DOCTYPE svg PUBLIC "-//W3C//DTD SVG 1.1//EN" "http://www.w3.org/Graphics/SVG/1.1/DTD/svg11.dtd">
<svg width="512pt" height="512pt" viewBox="0 0 512 512" version="1.1" xmlns="http://www.w3.org/2000/svg">
<g id="#000000ff">
<path fill="#000000" opacity="1.00" d=" M 258.51 24.52 C 321.02 87.00 383.50 149.50 445.99 212.00 C 319.49 211.99 192.99 212.03 66.48 211.97 C 66.52 186.82 66.48 161.66 66.50 136.51 C 130.50 136.48 194.50 136.51 258.49 136.49 C 258.51 99.17 258.48 61.85 258.51 24.52 Z" />
<path fill="#000000" opacity="1.00" d=" M 66.01 300.00 C 192.51 300.01 319.01 299.97 445.51 300.03 C 445.48 325.18 445.52 350.34 445.50 375.50 C 381.50 375.51 317.50 375.49 253.51 375.51 C 253.49 412.83 253.52 450.15 253.49 487.48 C 190.99 425.00 128.50 362.50 66.01 300.00 Z" />
</g>
</svg>
