<?xml version="1.0" encoding="UTF-8" ?>
<!DOCTYPE svg PUBLIC "-//W3C//DTD SVG 1.1//EN" "http://www.w3.org/Graphics/SVG/1.1/DTD/svg11.dtd">
<svg width="512pt" height="512pt" viewBox="0 0 512 512" version="1.1" xmlns="http://www.w3.org/2000/svg">
<g id="#ffffffff">
<path fill="#ffffff" opacity="1.00" d=" M 123.41 47.33 C 132.82 36.27 146.61 29.31 160.93 27.47 C 167.51 27.59 174.34 26.61 180.69 28.82 C 198.25 32.76 213.56 45.33 220.86 61.79 C 224.02 68.09 224.95 75.10 226.35 81.92 C 226.52 94.51 226.40 107.11 226.41 119.70 C 246.13 119.70 265.86 119.70 285.58 119.71 C 285.56 107.11 285.51 94.52 285.60 81.93 C 286.91 73.56 288.80 65.15 293.07 57.73 C 301.93 41.08 319.37 29.72 337.95 27.46 C 344.79 27.56 351.86 26.61 358.45 28.95 C 381.34 34.23 399.74 54.65 402.63 77.93 C 403.93 91.75 403.11 105.68 403.24 119.55 C 405.12 119.90 407.01 120.36 408.95 120.31 C 423.31 120.29 437.67 120.30 452.03 120.30 C 461.38 119.75 470.26 128.59 469.69 137.95 C 469.69 245.63 469.69 353.32 469.69 461.00 C 469.63 464.99 469.85 469.00 469.52 472.99 C 467.99 479.23 463.14 484.49 456.98 486.41 C 454.35 486.75 451.71 487.19 449.06 487.25 C 320.02 487.21 190.98 487.26 61.95 487.22 C 58.48 486.77 54.71 486.98 51.69 484.95 C 45.90 482.05 41.81 475.55 42.29 469.03 C 42.30 358.68 42.30 248.32 42.29 137.96 C 41.63 127.90 51.39 119.83 60.93 119.68 C 76.86 119.71 92.78 119.73 108.71 119.67 C 108.96 105.10 107.89 90.46 109.53 75.96 C 111.62 65.47 116.13 55.27 123.41 47.33 M 161.52 63.13 C 152.01 65.72 143.72 74.78 144.40 85.01 C 144.38 112.35 144.36 139.69 144.40 167.03 C 143.86 176.97 152.13 185.51 161.13 188.42 C 165.03 188.95 169.01 188.82 172.94 188.56 C 182.87 186.12 191.17 176.52 190.74 166.06 C 190.70 138.34 190.84 110.62 190.67 82.91 C 189.77 74.96 184.29 67.57 176.87 64.47 C 172.17 62.09 166.58 62.12 161.52 63.13 M 335.74 64.14 C 327.10 67.54 320.66 76.60 321.24 85.98 C 321.25 112.67 321.24 139.36 321.24 166.05 C 320.70 176.53 329.11 186.11 339.01 188.58 C 344.40 188.74 350.24 189.58 355.09 186.65 C 362.05 182.75 368.13 175.39 367.59 167.01 C 367.61 139.33 367.63 111.65 367.58 83.97 C 367.90 77.58 363.98 71.70 359.30 67.68 C 352.85 62.34 343.45 60.92 335.74 64.14 M 78.08 241.11 L 77.52 241.82 C 77.58 311.55 77.47 381.28 77.57 451.02 C 78.19 451.15 79.44 451.42 80.06 451.56 C 197.66 451.51 315.26 451.55 432.87 451.54 C 433.25 451.40 434.02 451.11 434.41 450.97 C 434.52 381.26 434.42 311.55 434.46 241.84 C 434.16 241.51 433.56 240.83 433.25 240.50 C 315.09 240.59 196.92 240.58 78.76 240.50 L 78.08 241.11 Z" />
<path fill="#ffffff" opacity="1.00" d=" M 293.95 283.02 C 297.01 280.29 299.59 276.34 304.00 275.82 C 312.41 275.70 320.82 275.82 329.23 275.79 C 329.50 310.70 329.17 345.63 329.40 380.54 C 338.47 380.37 347.53 380.61 356.60 380.41 C 356.77 389.79 356.78 399.18 356.59 408.57 C 328.13 408.38 299.67 408.58 271.21 408.47 C 269.26 408.90 268.67 406.51 268.71 405.02 C 268.72 397.66 268.69 390.30 268.73 382.94 C 268.35 380.63 271.07 379.76 272.90 379.80 C 280.87 379.78 288.84 379.84 296.81 379.79 C 296.71 359.26 296.89 338.72 296.72 318.20 C 291.98 321.42 288.39 326.05 284.03 329.75 C 278.28 322.77 271.34 316.86 265.58 309.88 C 275.02 300.92 284.18 291.64 293.95 283.02 Z" />
<path fill="#ffffff" opacity="1.00" d=" M 162.24 276.55 C 189.95 276.50 217.66 276.41 245.37 276.60 C 245.22 282.93 245.56 289.27 245.23 295.59 C 243.12 299.51 239.42 302.25 236.81 305.82 C 230.38 312.77 224.71 320.43 217.96 327.07 C 233.50 330.23 247.32 342.96 249.57 358.98 C 249.52 365.99 250.63 373.36 247.75 379.99 C 243.11 395.45 228.78 407.01 212.99 409.42 C 204.41 409.96 195.78 409.97 187.21 409.27 C 176.72 407.05 166.62 402.48 158.45 395.47 C 156.61 394.38 157.03 391.84 157.87 390.26 C 162.22 383.32 166.58 376.39 170.83 369.39 C 171.35 369.39 172.39 369.40 172.91 369.40 C 178.47 374.07 184.99 377.60 192.01 379.48 C 195.00 379.80 198.01 379.70 201.01 379.70 C 207.58 380.16 214.85 376.47 217.18 370.07 C 218.53 365.86 216.93 361.19 213.98 358.05 C 210.56 355.12 206.08 353.97 201.83 352.79 C 195.91 352.07 189.91 352.80 183.97 352.32 C 181.48 346.84 177.47 341.23 178.35 334.92 C 187.29 324.44 195.84 313.61 205.19 303.49 C 191.16 304.91 177.01 304.11 162.92 304.31 C 162.58 304.02 161.91 303.45 161.57 303.16 C 161.60 294.48 161.48 285.79 161.63 277.11 L 162.24 276.55 Z" />
</g>
</svg>
