<?xml version="1.0" encoding="UTF-8" ?>
<!DOCTYPE svg PUBLIC "-//W3C//DTD SVG 1.1//EN" "http://www.w3.org/Graphics/SVG/1.1/DTD/svg11.dtd">
<svg width="512pt" height="512pt" viewBox="0 0 512 512" version="1.1" xmlns="http://www.w3.org/2000/svg">
<g id="#ffffffff">
<path fill="#ffffff" opacity="1.00" d=" M 255.38 0.00 L 255.62 0.00 C 278.40 65.91 301.09 131.91 323.85 197.85 C 324.04 198.22 324.43 198.97 324.62 199.34 C 387.08 199.14 449.54 199.28 512.00 199.27 L 512.00 199.27 C 461.04 241.74 410.13 284.26 359.17 326.74 C 377.39 388.50 395.65 450.24 413.84 512.00 L 413.80 512.00 C 378.53 486.67 343.18 461.46 307.88 436.18 C 290.38 423.78 273.09 411.04 255.45 398.85 C 202.86 436.66 150.11 474.27 97.44 511.97 C 115.58 449.76 134.04 387.63 152.04 325.38 C 102.86 284.75 53.86 243.90 4.74 203.19 C 3.23 201.87 1.67 200.61 0.00 199.49 L 0.00 199.46 C 6.31 198.93 12.67 199.26 19.00 199.08 C 74.30 198.65 129.59 198.06 184.89 197.70 C 202.70 148.44 220.18 99.05 237.86 49.74 C 243.63 33.14 250.00 16.69 255.38 0.00 Z" />
</g>
</svg>
