<?xml version="1.0" encoding="utf-8"?>
<!-- Generator: Adobe Illustrator 16.0.4, SVG Export Plug-In . SVG Version: 6.00 Build 0)  -->
<!DOCTYPE svg PUBLIC "-//W3C//DTD SVG 1.1//EN" "http://www.w3.org/Graphics/SVG/1.1/DTD/svg11.dtd">
<svg version="1.1" id="Layer_2" xmlns="http://www.w3.org/2000/svg" xmlns:xlink="http://www.w3.org/1999/xlink" x="0px" y="0px"
	 width="498.5px" height="183px" viewBox="0 0 498.5 183" enable-background="new 0 0 498.5 183" xml:space="preserve">
<g>
	<path fill="#00163B" d="M405.938,142.599l0.018-6.98c21.196-1.438,46.395-21.183,46.395-46.807c0-30.42-22.78-53.837-52.179-53.837
		c-19.048,0-34.872,10.212-43.948,24.958h-3.933c6.086-9.544,15.114-17.045,25.804-21.257c6.774-2.821,14.207-4.38,22.005-4.38
		c7.802,0,15.328,1.552,22.101,4.38c19.977,7.879,34.1,27.369,34.1,50.136C456.3,117.375,434.04,140.764,405.938,142.599z
		 M396.145,89.562c-0.304,0.26-1.962,1.391-1.251,5.16c0,0-1.646,5.327,1.949,16.312c0.288,1.026,0.698,1.782,0.739,1.969
		c0,0-0.282,0.383-0.282,2.104c0,1.715,0.561,2.457,0.561,2.457s-1.139,0.91-1.216,3.34c-0.082,2.421,0.346,3.065,0.788,7.131
		c0.373,3.398,0.093,4.425,0.099,4.401c-0.002-0.323-0.025-0.938-0.062-1.434c-0.155-2.388-1.482-6.235-1.753-7.39
		c-0.274-1.155-0.414-2.148-0.436-3.365c-0.035-1.229,1.039-3.707,1.039-3.707s-0.194-0.586-0.469-1.685
		c-0.276-1.113,0.204-2.86,0.204-2.86s-0.7-1.875-2.241-7.277c-1.619-5.643-0.998-11.863-0.998-11.863s-0.312-0.837-0.104-2.721
		c0.2-1.881,1.224-3.562,1.429-3.89L396.145,89.562z M396.759,56.209c0.064-3.378,2.911-3.912,3.562-3.989
		c0.469,0.061,2.549,0.455,3.267,2.659l0.074,0.469c0.625,3.11-0.512,4.416-0.679,4.614c0,0-1.382,3.188,0.049,5.556
		c0,0,0.857-0.218,1.696-0.029c0,0,0.529-1.304,2.778-2.316c0.327-0.153,0.688-0.281,1.094-0.425c0,0,1.63-2.138,3.391-2.851
		c0.578-0.244,1.023-0.446,1.36-0.617c0.274-0.171,0.561-0.348,0.874-0.515c-0.076,0.06-0.339,0.242-0.874,0.515
		c-3.239,2.066-4.172,4.435-4.172,4.435c-2.806,1.339-3.049,4.016-3.159,4.036c-3.191-1.053-5.695,0.223-5.695,0.223l0.967-1.497
		c-0.445-1.604-0.071-3.477,0.062-4.449c0-0.021,0.767-2.053-1.136-3.199c-1.866,1.151-1.715,3.177-1.707,3.199
		c0.146,0.972,0.282,2.844-0.159,4.449l1.434,1.497c0,0-1.867-1.432-4.377-0.273c0,0,0.41-2.927-3.802-5.062
		c3.455,1.02,4.21,2.851,4.21,2.851c0.843-0.188,1.692,0.029,1.692,0.029c1.435-2.368,0.055-5.556,0.055-5.556
		c0.673-1.956,1.93-2.391,2.459-2.513c0.827-0.171,1.349,0.346,1.351-1.731c0-1.635-0.531-2.346-1.138-2.47
		C397.435,53.294,396.759,56.209,396.759,56.209z M400.913,74.042l-1.459-0.008l0.771-5.159L400.913,74.042z M400.862,84.956
		l0.639,0.462l-0.674,0.386l-0.603,1.632l-0.607-1.632l-0.683-0.386l0.653-0.462l0.637-4.649L400.862,84.956z M394.196,85.231
		c-0.027-0.376-0.087-0.495,0.184-2.476c0.291-1.985-0.825-4.38-1.862-6.932c-1.031-2.543-0.772-4.599-0.772-4.599
		c-2.053-1.873-2.843-4.258-2.843-4.258s-0.447-0.261-1.486-0.922c-1.033-0.65-3.271-3.884-3.504-4.396
		c-0.135-0.297-0.463-1.334-1.905-2.018c-2.408-1.16-4.802-5.586-5.241-6.202c-0.426-0.621-0.778-1.535-2.656-2.137
		c-3.045-0.962-3.402-3.245-3.486-3.607c-0.183-0.706,0.327-2.15,0.613-1.986c0,0,0.187,0.86,0.733,2.046
		c0.551,1.172,0.996,1.287,2.586,2.192c1.188,0.667,1.571,0.386,1.571,0.386s0,0.94,0.306,1.489
		c0.829,1.444,2.288,2.729,4.234,4.775c1.482,1.565,3.361,2.112,3.361,2.112c2.031,4.463,6.339,7.125,6.339,7.125
		c0.315,1.798,2.602,3.462,2.602,3.462s0.308,2.871,1.568,3.967c1.382,1.172,1.969,1.256,4.588,0.814c0,0-1.708,2.509-4.141,3.129
		c0,0,0.272,0.427,0.553,1.408c0.5,0.654,0.854,0.357,1.598,0c0.649-0.348,1.086-0.582,1.321-0.811
		c0.222-0.222,0.567-0.657,0.571-1.217c0.006,0.489,0.249,1.688-0.228,2.265c-0.638,0.772-3.731,0.659-4.521,6.345L394.196,85.231z
		 M399.191,113.26v-9.634c-0.107-5.059-0.437-8.904-1.313-12.585c0.187,0.736,0.704,1.468,1.313,2.008
		c0.402,0.368,0.889,0.394,1.033,0.388c0.126,0.006,0.644,0.01,1.093-0.433c0.897-0.906,1.572-2.219,1.572-2.219
		c1.423-2.992,0.669-4.976-0.869-5.369c2.128-0.767,1.477-3.87,0.994-4.741c-0.592-1.064-0.831-0.987-1.456-1.757
		c-0.477-0.586-0.058-1.851-0.044-2.34c0.002,0.561,0.192,0.894,0.546,1.233c0.178,0.164,0.488,0.433,1.16,0.915
		c0.537,0.361,1.136,0.592,1.788-0.12l0.426-1.468c-2.42-0.62-4.196-3.069-4.196-3.069c2.626,0.441,3.361,0.335,4.757-0.814
		c1.543-1.268,1.59-4.859,1.59-4.859s2.271-1.664,2.591-3.462c0,0,4.299-2.664,6.338-7.126c0,0,1.881-0.546,3.363-2.114
		c1.944-2.049,3.409-3.335,4.23-4.772c0.316-0.552,0.316-1.489,0.316-1.489s0.407,0.332,1.559-0.39
		c1.562-0.974,2.041-1.018,2.588-2.193c0.549-1.176,0.737-1.149,0.737-1.149c0.286-0.164,0.8,1.281,0.617,1.986
		c-0.094,0.362-0.437,2.645-3.491,3.607c-1.875,0.602-2.235,1.516-2.655,2.137c-0.443,0.615-2.837,5.042-5.249,6.202
		c-1.437,0.684-1.763,1.721-1.897,2.018c-0.241,0.512-2.465,3.747-3.504,4.396c-1.045,0.661-1.484,0.922-1.484,0.922
		s-0.788,2.385-2.841,4.258c0,0,0.255,2.055-0.78,4.599c-1.039,2.552-2.148,4.947-1.866,6.932c0.276,1.981,0.525,2.295,0.49,2.538
		c-0.042,0.252-0.28,0.895-0.28,0.895s1.242,1.853,1.468,3.946c0.196,1.884-0.111,2.721-0.111,2.721s0.631,6.22-0.984,11.863
		c-1.557,5.402-2.249,7.277-2.249,7.277s0.447,1.251,0.2,2.86c-0.274,1.099-0.473,1.685-0.473,1.685s1.127,2.396,1.098,3.619
		c-0.025,1.231-0.154,2.218-0.429,3.375c-0.271,1.166-1.606,5.003-1.761,7.388c-0.149,2.381,0.004,2.487,0.059,2.938
		c0.062,0.438,0.214,0.829,0.214,0.829s-0.488,0.472-0.667,1.211c-0.182,0.742-0.198,2.894,0.018,3.724
		c0.216,0.837,0.692,1.024,0.622,1.706c-0.065,0.549-0.404,1.217-0.667,1.261h-4.897c-0.261-0.044-0.61-0.712-0.663-1.261
		c-0.08-0.682,0.408-0.869,0.618-1.706c0.212-0.83,0.195-2.981,0.02-3.724c-0.153-0.595-0.48-1.076-0.604-1.214
		c0,0,1.159,1.245,1.354,2.959c0.18,1.712-0.22,3.166-0.282,3.655l3.189,0.006c0,0-0.512-3.895,0.78-6.794
		c0.079-0.651-0.07-1.767,0.116-3.58c0.605-5.757,2.055-10.147,0.456-13.413c0.291-0.375,0.608-1.527,0.552-2.735
		c-0.044-0.839-0.157-1.564-0.309-1.805c2.039-7.716,2.508-18.908,1.895-21.809c-0.161-0.926-1.208,0.456-1.685,1.57
		c-1.235,2.923-1.784,5.185-1.784,10.865v9.654c-0.423,1.122-0.578,2.249,0.027,4.285c-0.46,3.377-0.874,10.252-1.113,14.782
		c0.012,0.291,0,1.304,0.188,2.109c0,0-0.216,0.509-0.235,0.896l-0.101,2.567l-0.105-2.578c-0.008-0.395-0.222-0.885-0.222-0.885
		c0.167-0.531,0.155-1.776,0.173-2.119c-0.233-4.674-0.653-12.954-0.922-14.736C400.023,114.675,399.191,113.26,399.191,113.26z"/>
	<path fill="#00163B" d="M221.472,95.642c-2.3-6.091-8.491-7.801-14.668-7.801h-9.789v28.809h-7.605V84.671h17.221
		c6.921,0,13.155,1.325,17.41,4.096c3.039,1.934,4.975,4.267,5.529,6.863L221.472,95.642z M221.509,100.424v-1.792h38.479
		c-1.067-6.47-7.943-10.715-15.053-11.611c-5.201-0.651-9.699-0.879-13.357-0.216c3.545-1.369,7.958-2.133,13.283-2.133
		c6.413,0,11.789,1.396,16.065,4.298c4.331,3.025,6.639,7.433,6.639,12.514h-38.487c0.694,8.989,8.446,12.144,15.771,12.144
		c6.547,0,10.643-1.887,13.849-5.461l8.871-0.003c-1.347,1.653-4.423,4.188-7.872,5.762c-3.59,1.584-7.811,2.765-14.76,2.765
		c-6.929,0-11.77-0.879-16.021-3.644C224.719,110.384,221.509,105.967,221.509,100.424z M140.289,84.671h7.597v16.812
		c0.696,8.989,8.461,11.999,15.794,11.999h9.77V84.671h7.605v31.979l-17.355-0.004c-6.922,0-13.029-1.309-17.275-4.09
		c-4.199-2.664-6.136-6.588-6.136-12.127V84.671z M79.041,98.631v1.943c0,5.534-1.954,9.317-6.158,11.981
		c-4.235,2.781-10.142,4.094-17.062,4.094H38.21V84.671h7.604l0.002,28.811l9.819-0.008c7.327,0,15.101-3.002,15.794-11.991v-2.852
		H79.041z M132.717,101.509v15.165h-22.619c-6.919,0-13.021-1.263-17.271-4.035c-4.193-2.66-6.143-6.715-6.143-12.251v-1.735h38.122
		c-1.065-6.469-6.901-10.527-14.672-11.674c-5.188-0.764-9.688-0.874-13.354-0.221c3.551-1.359,7.952-2.123,13.282-2.123
		c6.411,0,11.798,1.388,16.06,4.284C130.461,91.95,132.717,96.425,132.717,101.509z M125.119,113.503l-0.012-11.994H94.283
		c0.693,8.992,8.423,11.994,15.755,11.994H125.119z M364.615,91.352v-3.566h0.914l1.574,2.993l1.576-2.993h0.906v3.566h-0.632
		c0,0-0.014,0-0.014-2.969l-1.555,2.969h-0.562c0,0-0.01,0-1.584-2.969v2.969H364.615z M361.651,91.352v-3.165h-1.657v-0.402h3.984
		v0.402h-1.661v3.165H361.651z M369.586,100.424c0,5.543-3.214,9.96-7.409,12.622c-4.249,2.765-9.1,3.644-16.021,3.644
		c-6.949,0-11.172-1.181-14.758-2.765c-3.453-1.574-6.527-4.108-7.88-5.762l8.884,0.003c3.189,3.574,7.299,5.461,13.834,5.461
		c7.333,0,15.083-3.155,15.777-12.144h-38.487c0-5.081,2.308-9.488,6.639-12.514c4.276-2.903,9.656-4.298,16.065-4.298
		c5.321,0,9.74,0.764,13.285,2.133c-3.666-0.663-8.156-0.435-13.354,0.216c-7.105,0.896-13.991,5.141-15.053,11.611h38.477V100.424z
		 M315.888,84.671v15.757c0,5.539-1.945,9.463-6.146,12.127c-4.244,2.781-10.348,4.09-17.27,4.09l-17.352,0.004l-0.006-31.979h7.605
		v28.811h9.771c7.329,0,15.094-3.01,15.792-11.999V84.671H315.888z"/>
	<g>
		<path fill="#00163B" d="M41.6,142.6c-1.022,0-1.883-0.146-3.084-0.503l0.276-0.99c1.087,0.276,1.947,0.421,2.727,0.421
			c1.379,0,2.402-0.778,2.402-1.946c0-0.796-0.195-1.202-1.039-1.575c-1.753-0.796-4.253-0.941-4.253-3.44
			c0-1.85,1.282-2.986,3.263-2.986c0.86,0,1.834,0.162,2.84,0.454l-0.227,0.958c-1.071-0.228-1.899-0.342-2.565-0.342
			c-1.185,0-2.012,0.65-2.012,1.802c0,0.974,0.276,1.266,2.305,1.883c2.37,0.73,2.986,1.445,2.986,3.084
			C45.219,141.383,43.791,142.6,41.6,142.6z"/>
		<path fill="#00163B" d="M57.912,137.373c-0.714,0.568-1.412,0.714-3.295,0.714h-1.331v4.415h-1.299v-10.825h3.246
			c1.38,0,2.11,0.146,2.678,0.567c0.714,0.52,1.104,1.396,1.104,2.532C59.016,135.88,58.609,136.821,57.912,137.373z
			 M56.646,132.894c-0.324-0.146-0.958-0.211-1.915-0.211h-1.444v4.431h0.973c1.51,0,2.013-0.064,2.452-0.292
			c0.649-0.357,1.005-1.039,1.005-1.98S57.311,133.169,56.646,132.894z"/>
		<path fill="#00163B" d="M69.646,142.696c-2.905,0-4.447-1.931-4.447-5.583c0-3.57,1.624-5.567,4.48-5.567s4.447,1.997,4.447,5.6
			C74.126,140.749,72.551,142.696,69.646,142.696z M69.711,132.584c-2.061,0-3.116,1.543-3.116,4.545
			c0,1.462,0.325,2.856,0.844,3.555c0.455,0.617,1.282,0.975,2.256,0.975c2.045,0,3.035-1.461,3.035-4.513
			C72.73,134.078,71.756,132.584,69.711,132.584z"/>
		<path fill="#00163B" d="M87.386,142.502l-0.925-2.451c-0.406-1.055-0.714-2.175-2.013-2.306c-0.325-0.032-0.844-0.048-1.655-0.048
			h-0.309v4.805h-1.298v-10.825h2.775c1.493,0,2.126,0.113,2.727,0.47c0.73,0.438,1.152,1.299,1.152,2.338
			c0,1.541-0.73,2.418-2.272,2.742c1.103,0.309,1.477,0.796,2.272,2.89l0.909,2.386H87.386z M85.795,132.959
			c-0.373-0.243-0.811-0.31-1.915-0.31h-1.396v4.025h0.682c1.558,0,3.376,0.065,3.376-2.045
			C86.542,133.867,86.282,133.283,85.795,132.959z"/>
		<path fill="#00163B" d="M98.112,132.649v9.853h-1.299v-9.853H93.47v-0.973h7.985v0.973H98.112z"/>
		<path fill="#00163B" d="M118.011,132.649v3.685h4.707v0.975h-4.707v5.193h-1.298v-10.825h6.119v0.973H118.011z"/>
		<path fill="#00163B" d="M133.462,142.696c-2.905,0-4.447-1.931-4.447-5.583c0-3.57,1.623-5.567,4.479-5.567s4.448,1.997,4.448,5.6
			C137.942,140.749,136.368,142.696,133.462,142.696z M133.527,132.584c-2.061,0-3.116,1.543-3.116,4.545
			c0,1.462,0.325,2.856,0.844,3.555c0.455,0.617,1.282,0.975,2.256,0.975c2.045,0,3.036-1.461,3.036-4.513
			C136.547,134.078,135.572,132.584,133.527,132.584z"/>
		<path fill="#00163B" d="M151.202,142.502l-0.925-2.451c-0.406-1.055-0.715-2.175-2.013-2.306
			c-0.324-0.032-0.844-0.048-1.656-0.048H146.3v4.805h-1.298v-10.825h2.775c1.494,0,2.127,0.113,2.728,0.47
			c0.729,0.438,1.151,1.299,1.151,2.338c0,1.541-0.73,2.418-2.271,2.742c1.103,0.309,1.477,0.796,2.271,2.89l0.909,2.386H151.202z
			 M149.612,132.959c-0.374-0.243-0.812-0.31-1.915-0.31H146.3v4.025h0.682c1.559,0,3.375,0.065,3.375-2.045
			C150.357,133.867,150.098,133.283,149.612,132.959z"/>
		<path fill="#00163B" d="M171.507,142.713c-2.581,0-4.074-2.045-4.074-5.616c0-3.635,1.557-5.566,4.43-5.566
			c0.876,0,1.802,0.162,3.231,0.6l-0.228,0.958c-1.104-0.275-2.241-0.438-2.924-0.438c-2.108,0-3.114,1.413-3.114,4.383
			c0,1.526,0.308,2.824,0.827,3.57c0.503,0.715,1.12,1.007,2.159,1.007c0.682,0,1.543-0.146,2.354-0.39v-3.798h1.249v4.349
			C173.861,142.421,172.61,142.713,171.507,142.713z"/>
		<path fill="#00163B" d="M186.537,142.696c-2.906,0-4.449-1.931-4.449-5.583c0-3.57,1.625-5.567,4.48-5.567
			c2.856,0,4.446,1.997,4.446,5.6C191.015,140.749,189.442,142.696,186.537,142.696z M186.602,132.584
			c-2.062,0-3.117,1.543-3.117,4.545c0,1.462,0.325,2.856,0.845,3.555c0.455,0.617,1.282,0.975,2.255,0.975
			c2.045,0,3.037-1.461,3.037-4.513C189.621,134.078,188.646,132.584,186.602,132.584z"/>
		<path fill="#00163B" d="M202.036,142.696c-2.906,0-4.447-1.931-4.447-5.583c0-3.57,1.623-5.567,4.48-5.567
			c2.856,0,4.446,1.997,4.446,5.6C206.516,140.749,204.941,142.696,202.036,142.696z M202.101,132.584
			c-2.061,0-3.115,1.543-3.115,4.545c0,1.462,0.323,2.856,0.845,3.555c0.453,0.617,1.28,0.975,2.255,0.975
			c2.045,0,3.035-1.461,3.035-4.513C205.12,134.078,204.146,132.584,202.101,132.584z"/>
		<path fill="#00163B" d="M219.517,141.787c-0.909,0.585-1.623,0.715-3.748,0.715h-2.192v-10.825h2.58
			c1.949,0,2.922,0.243,3.749,0.94c1.088,0.926,1.672,2.468,1.672,4.479C221.577,139.255,220.831,140.928,219.517,141.787z
			 M219.111,133.494c-0.667-0.666-1.315-0.845-3.149-0.845h-1.088v8.878h0.714c2.014,0,2.792-0.193,3.475-0.876
			c0.729-0.714,1.119-1.932,1.119-3.555C220.182,135.393,219.825,134.208,219.111,133.494z"/>
		<path fill="#00163B" d="M238.815,132.649v3.685h4.706v0.975h-4.706v5.193h-1.3v-10.825h6.119v0.973H238.815z"/>
		<path fill="#00163B" d="M254.266,142.696c-2.903,0-4.446-1.931-4.446-5.583c0-3.57,1.623-5.567,4.479-5.567s4.447,1.997,4.447,5.6
			C258.746,140.749,257.172,142.696,254.266,142.696z M254.33,132.584c-2.061,0-3.115,1.543-3.115,4.545
			c0,1.462,0.323,2.856,0.843,3.555c0.455,0.617,1.282,0.975,2.257,0.975c2.045,0,3.035-1.461,3.035-4.513
			C257.35,134.078,256.375,132.584,254.33,132.584z"/>
		<path fill="#00163B" d="M272.59,141.69c-0.68,0.649-1.72,0.99-3.068,0.99c-1.428,0-2.66-0.52-3.245-1.363
			c-0.486-0.698-0.568-1.218-0.568-3.278v-6.362h1.298v7.319c0,1.802,0.895,2.613,2.712,2.613c1.168,0,1.98-0.374,2.37-1.088
			c0.226-0.405,0.308-0.957,0.308-1.947v-6.897h1.087v6.427C273.482,140.392,273.337,140.96,272.59,141.69z"/>
		<path fill="#00163B" d="M286.889,142.502l-4.868-9.495v9.495h-1.088v-10.825h1.851l4.868,9.624v-9.624h1.089v10.825H286.889z"/>
		<path fill="#00163B" d="M302.228,141.787c-0.91,0.585-1.624,0.715-3.749,0.715h-2.192v-10.825h2.581
			c1.948,0,2.921,0.243,3.748,0.94c1.089,0.926,1.673,2.468,1.673,4.479C304.288,139.255,303.541,140.928,302.228,141.787z
			 M301.821,133.494c-0.664-0.666-1.315-0.845-3.148-0.845h-1.088v8.878h0.715c2.012,0,2.79-0.193,3.473-0.876
			c0.729-0.714,1.119-1.932,1.119-3.555C302.892,135.393,302.535,134.208,301.821,133.494z"/>
		<path fill="#00163B" d="M317.626,142.502l-1.055-2.905h-4.674l-1.039,2.905h-1.169l3.847-10.825h1.477l3.945,10.825H317.626z
			 M314.186,132.796l-1.947,5.811h3.961L314.186,132.796z"/>
		<path fill="#00163B" d="M327.443,132.649v9.853h-1.298v-9.853h-3.343v-0.973h7.985v0.973H327.443z"/>
		<path fill="#00163B" d="M337.166,142.502v-10.825h1.298v10.825H337.166z"/>
		<path fill="#00163B" d="M349.972,142.696c-2.904,0-4.447-1.931-4.447-5.583c0-3.57,1.624-5.567,4.48-5.567s4.446,1.997,4.446,5.6
			C354.451,140.749,352.877,142.696,349.972,142.696z M350.036,132.584c-2.061,0-3.115,1.543-3.115,4.545
			c0,1.462,0.323,2.856,0.843,3.555c0.455,0.617,1.282,0.975,2.257,0.975c2.045,0,3.035-1.461,3.035-4.513
			C353.056,134.078,352.081,132.584,350.036,132.584z"/>
		<path fill="#00163B" d="M367.469,142.502l-4.869-9.495v9.495h-1.088v-10.825h1.851l4.868,9.624v-9.624h1.089v10.825H367.469z"/>
	</g>
</g>
</svg>
