<?xml version="1.0" encoding="utf-8"?>
<!-- Generator: Adobe Illustrator 16.0.4, SVG Export Plug-In . SVG Version: 6.00 Build 0)  -->
<!DOCTYPE svg PUBLIC "-//W3C//DTD SVG 1.1//EN" "http://www.w3.org/Graphics/SVG/1.1/DTD/svg11.dtd">
<svg version="1.1" id="Layer_1" xmlns="http://www.w3.org/2000/svg" xmlns:xlink="http://www.w3.org/1999/xlink" x="0px" y="0px"
	 width="256px" height="256px" viewBox="0 0 256 256" enable-background="new 0 0 256 256" xml:space="preserve">
<g>
	<polygon fill="#FFFFFF" points="143.292,159.25 127.333,175.209 111.375,159.25 111.375,207.125 79.459,207.125 127.333,255 
		175.208,207.125 143.292,207.125 	"/>
	<polygon fill="#FFFFFF" points="111.375,95.417 127.333,79.954 143.292,95.417 143.292,47.542 175.208,47.542 127.333,-0.333 
		79.459,47.542 111.375,47.542 	"/>
	<polygon fill="#FFFFFF" points="79.459,127.333 95.417,111.375 47.542,111.375 47.542,79.458 -0.333,127.333 47.542,175.209 
		47.542,143.292 95.417,143.292 	"/>
	<polygon fill="#FFFFFF" points="255,127.333 207.125,79.458 207.125,111.375 159.25,111.375 174.71,127.333 159.25,143.292 
		207.125,143.292 207.125,175.209 	"/>
</g>
</svg>
