<?xml version="1.0" encoding="UTF-8" ?>
<!DOCTYPE svg PUBLIC "-//W3C//DTD SVG 1.1//EN" "http://www.w3.org/Graphics/SVG/1.1/DTD/svg11.dtd">
<svg width="512pt" height="512pt" viewBox="0 0 512 512" version="1.1" xmlns="http://www.w3.org/2000/svg">
<g id="#ffffffff">
<path fill="#ffffff" opacity="1.00" d=" M 218.63 121.77 C 232.41 113.29 249.19 110.77 265.11 112.40 C 280.42 113.96 295.50 120.56 305.87 132.13 C 313.13 140.13 318.01 150.24 319.78 160.89 C 321.03 168.17 320.58 175.60 320.17 182.93 C 319.50 191.13 318.58 199.53 315.12 207.10 C 318.48 206.75 320.18 210.05 320.55 212.87 C 321.98 220.53 318.10 227.67 316.37 234.92 C 315.12 239.48 314.85 244.80 311.28 248.30 C 309.96 249.72 307.96 249.77 306.17 249.81 C 305.27 257.78 304.36 265.79 302.39 273.57 C 300.70 280.26 296.17 285.72 291.48 290.57 C 291.71 299.09 291.58 307.71 293.35 316.09 C 293.84 319.38 297.15 320.93 299.85 322.18 C 304.76 324.21 309.79 325.96 314.86 327.59 C 326.76 330.61 339.28 331.10 350.86 335.40 C 366.29 341.35 379.94 352.59 387.54 367.41 C 392.76 377.42 394.96 388.77 395.02 400.00 C 302.34 400.00 209.65 400.00 116.97 400.00 C 116.91 385.17 121.09 370.09 130.24 358.26 C 137.67 348.51 147.86 340.98 159.12 336.21 C 173.82 329.97 190.45 331.04 205.14 324.82 C 209.59 322.97 215.01 321.91 218.02 317.88 C 220.69 309.08 220.09 299.67 220.50 290.57 C 215.80 285.74 211.30 280.27 209.59 273.60 C 207.61 265.81 206.69 257.79 205.81 249.81 C 204.00 249.77 201.99 249.72 200.68 248.28 C 197.11 244.77 196.87 239.46 195.57 234.91 C 193.69 227.46 189.79 220.03 191.55 212.15 C 191.93 209.48 193.81 206.74 196.86 207.11 C 193.55 199.86 192.58 191.84 191.89 183.98 C 191.26 174.52 190.79 164.81 193.37 155.58 C 197.02 141.60 206.30 129.26 218.63 121.77 Z" />
<path fill="#ffffff" opacity="1.00" d=" M 90.58 165.52 C 101.69 159.56 114.92 159.14 127.15 160.91 C 137.98 162.58 148.47 168.16 154.69 177.36 C 159.36 184.02 161.84 191.99 162.94 199.99 C 165.53 218.60 161.70 237.57 165.28 256.10 C 166.63 263.44 169.53 270.43 173.53 276.72 C 163.89 283.68 151.56 284.90 140.06 285.83 C 140.10 291.04 138.58 297.00 141.16 301.75 C 148.56 305.95 157.23 306.99 165.21 309.67 C 168.07 310.64 170.05 313.58 168.90 316.59 C 160.75 317.43 152.31 317.97 144.84 321.64 C 136.60 325.71 129.16 331.29 122.56 337.66 C 118.35 341.83 114.26 346.38 112.08 351.99 C 85.36 352.01 58.65 352.00 31.93 351.99 C 32.13 340.27 37.54 329.01 45.78 320.82 C 48.40 318.27 51.32 315.89 54.81 314.68 C 63.57 311.55 72.46 308.79 81.54 306.76 C 85.39 305.57 89.72 304.41 92.43 301.22 C 94.07 296.04 93.29 290.47 93.22 285.13 C 81.69 284.59 69.16 283.88 59.45 276.90 C 63.61 271.35 66.40 264.84 67.68 258.03 C 71.86 236.22 65.45 213.65 71.16 192.01 C 73.88 181.14 80.48 170.84 90.58 165.52 Z" />
<path fill="#ffffff" opacity="1.00" d=" M 364.51 169.53 C 373.84 162.00 386.26 159.72 397.98 160.01 C 408.90 160.08 420.33 162.99 428.53 170.54 C 436.84 178.04 440.96 189.07 442.44 199.94 C 444.95 218.26 441.12 236.82 443.85 255.13 C 444.98 262.92 447.82 270.51 452.60 276.81 C 442.91 283.87 430.31 284.52 418.76 285.04 C 418.69 290.38 417.90 295.97 419.56 301.14 C 421.82 303.92 425.45 305.05 428.72 306.19 C 439.33 308.89 450.09 311.51 460.12 315.95 C 471.98 323.81 479.69 337.75 480.07 351.99 C 453.35 352.00 426.63 352.01 399.91 351.99 C 397.60 346.14 393.26 341.43 388.82 337.11 C 382.23 330.89 374.82 325.44 366.62 321.53 C 359.23 318.01 350.93 317.51 342.91 316.68 C 341.73 313.35 344.25 310.37 347.35 309.50 C 354.57 307.42 362.02 305.94 368.93 302.89 C 369.94 302.37 371.21 301.85 371.49 300.61 C 372.64 295.80 372.03 290.80 371.82 285.92 C 360.33 284.99 348.00 283.77 338.37 276.82 C 342.63 270.23 345.53 262.78 346.83 255.04 C 350.15 236.13 346.10 216.79 349.27 197.87 C 351.00 187.11 355.81 176.40 364.51 169.53 Z" />
</g>
</svg>
