<?xml version="1.0" encoding="utf-8"?>
<!-- Generator: Adobe Illustrator 16.0.4, SVG Export Plug-In . SVG Version: 6.00 Build 0)  -->
<!DOCTYPE svg PUBLIC "-//W3C//DTD SVG 1.1//EN" "http://www.w3.org/Graphics/SVG/1.1/DTD/svg11.dtd">
<svg version="1.1" id="Layer_1" xmlns="http://www.w3.org/2000/svg" xmlns:xlink="http://www.w3.org/1999/xlink" x="0px" y="0px"
	 width="256px" height="256px" viewBox="0 0 256 256" enable-background="new 0 0 256 256" xml:space="preserve">
<g>
	<path fill="#FFFFFF" d="M128.156,146.023c-53.552,0-69.85,38.417-69.85,38.417v19.791h139.7V184.44
		C198.006,184.44,181.708,146.023,128.156,146.023z"/>
	<path fill="#FFFFFF" d="M128.156,122.741c19.79,0,34.925-15.134,34.925-34.925c0-19.791-15.135-34.925-34.925-34.925
		c-19.791,0-34.925,15.134-34.925,34.925C93.231,107.607,108.365,122.741,128.156,122.741z"/>
	<circle fill="#FFFFFF" cx="203.826" cy="81.995" r="29.104"/>
	<path fill="#FFFFFF" d="M203.826,134.383c-13.971,0-24.447,3.492-32.597,9.313c26.776,12.806,37.254,34.925,37.254,37.253v1.163
		h47.73v-15.134C256.214,165.815,243.408,134.383,203.826,134.383z"/>
	<circle fill="#FFFFFF" cx="52.485" cy="81.995" r="29.104"/>
	<path fill="#FFFFFF" d="M85.082,143.695c-8.149-5.82-18.627-9.313-32.597-9.313c-39.582,0-52.387,31.433-52.387,32.597v15.133
		h47.73v-1.163C47.829,178.621,58.306,156.502,85.082,143.695z"/>
</g>
</svg>
