<?xml version="1.0" encoding="UTF-8" ?>
<!DOCTYPE svg PUBLIC "-//W3C//DTD SVG 1.1//EN" "http://www.w3.org/Graphics/SVG/1.1/DTD/svg11.dtd">
<svg width="512pt" height="512pt" viewBox="0 0 512 512" version="1.1" xmlns="http://www.w3.org/2000/svg">
<g id="#ffffffff">
<path fill="#ffffff" opacity="1.00" d=" M 171.97 100.98 C 227.93 101.13 283.90 100.79 339.85 101.15 C 340.20 147.46 339.90 193.79 340.00 240.11 C 395.33 240.19 450.66 240.00 505.99 240.08 C 506.02 289.06 505.98 338.03 506.00 387.00 C 343.34 387.00 180.67 387.00 18.00 387.00 C 14.07 386.96 10.13 387.14 6.20 386.80 C 5.73 360.21 6.13 333.60 6.00 307.00 C 5.97 269.00 6.06 231.00 5.96 193.00 C 6.52 192.81 7.65 192.43 8.21 192.24 C 62.47 192.05 116.74 192.40 170.99 192.06 C 171.04 164.71 171.29 137.36 171.28 110.00 C 171.41 106.99 170.81 103.85 171.97 100.98 M 233.00 135.06 C 233.01 137.71 233.00 140.36 233.00 143.02 C 238.96 141.53 245.00 140.38 250.97 138.93 C 251.04 157.95 250.98 176.98 251.00 196.01 C 245.67 195.98 240.33 196.02 234.99 195.99 C 235.01 198.66 235.01 201.33 234.99 204.01 C 249.00 204.00 263.00 204.00 277.01 204.01 C 276.99 201.33 276.99 198.66 277.01 195.99 C 271.67 196.02 266.33 195.98 261.00 196.01 C 261.01 174.34 260.99 152.67 261.01 131.00 C 257.71 131.05 254.41 130.87 251.12 131.08 C 245.04 132.19 239.05 133.76 233.00 135.06 M 44.00 234.04 C 44.00 237.32 44.00 240.59 44.01 243.87 C 51.67 239.46 60.62 235.60 69.62 237.51 C 75.42 238.68 80.12 243.99 80.01 249.99 C 80.30 254.86 77.63 259.17 74.89 262.96 C 68.84 270.81 61.62 277.63 54.71 284.71 C 50.96 288.34 47.78 292.50 44.00 296.11 C 44.01 298.74 44.00 301.37 43.99 304.01 C 59.43 303.99 74.86 304.00 90.29 304.00 C 90.29 301.33 90.29 298.66 90.29 296.00 C 78.75 296.00 67.22 296.01 55.68 295.99 C 63.92 287.47 71.96 278.76 80.33 270.35 C 86.65 263.69 92.07 254.32 89.29 244.87 C 87.75 236.59 79.92 231.17 72.04 229.75 C 62.51 227.45 52.86 230.67 44.00 234.04 M 416.00 260.06 C 416.00 263.06 416.00 266.06 416.00 269.06 C 423.28 266.27 431.13 264.36 438.97 265.22 C 442.51 265.86 446.52 267.22 448.26 270.66 C 451.22 275.58 450.67 283.20 445.56 286.51 C 440.07 290.17 433.18 288.70 426.99 288.99 C 427.00 291.66 427.00 294.33 426.99 297.01 C 433.23 297.18 439.98 296.09 445.64 299.40 C 452.01 302.38 453.44 310.96 450.85 316.94 C 448.94 320.24 445.80 323.03 442.02 323.92 C 432.54 326.55 422.21 324.58 414.01 319.28 C 414.00 322.50 414.00 325.72 414.00 328.95 C 420.70 331.50 427.85 333.14 435.05 333.03 C 443.56 332.72 452.93 330.44 458.30 323.27 C 462.50 318.08 460.65 311.10 460.96 304.99 C 459.57 298.27 453.00 294.33 446.86 292.55 C 450.48 291.37 454.18 289.72 456.51 286.56 C 462.90 278.71 460.25 265.44 451.21 260.78 C 440.41 254.55 427.40 257.25 416.00 260.06 Z" />
</g>
</svg>
