<?xml version="1.0" encoding="UTF-8" ?>
<!DOCTYPE svg PUBLIC "-//W3C//DTD SVG 1.1//EN" "http://www.w3.org/Graphics/SVG/1.1/DTD/svg11.dtd">
<svg width="512pt" height="512pt" viewBox="0 0 512 512" version="1.1" xmlns="http://www.w3.org/2000/svg">
<g id="#ffffffff">
<path fill="#ffffff" opacity="1.00" d=" M 236.58 3.92 C 267.29 0.94 298.71 5.09 327.45 16.37 C 357.64 28.08 384.79 47.46 405.79 72.11 C 426.32 96.09 440.96 125.10 447.93 155.90 C 459.00 203.63 451.44 255.42 426.81 297.82 C 417.20 314.93 404.12 329.65 392.05 345.00 C 349.19 398.51 306.37 452.05 263.49 505.54 C 259.86 510.16 252.10 510.15 248.47 505.53 C 203.06 448.89 157.72 392.19 112.33 335.54 C 105.26 326.65 97.94 317.92 91.71 308.40 C 74.22 282.07 63.24 251.45 60.08 219.99 C 56.88 188.26 61.35 155.73 73.37 126.16 C 93.05 76.87 133.65 36.45 183.02 16.96 C 200.13 10.08 218.23 5.75 236.58 3.92 M 204.27 51.09 C 170.85 62.65 141.68 85.92 122.83 115.82 C 103.78 145.61 95.51 181.97 99.39 217.09 C 102.45 246.81 114.53 275.40 133.27 298.62 C 174.13 349.77 215.09 400.83 256.00 451.93 C 293.93 404.56 331.85 357.19 369.78 309.82 C 376.75 301.06 383.98 292.45 389.87 282.90 C 406.08 257.11 414.35 226.46 413.44 196.02 C 412.78 164.85 402.48 133.98 384.32 108.65 C 363.95 79.94 333.73 58.34 299.89 48.59 C 268.78 39.53 234.86 40.39 204.27 51.09 Z" />
<path fill="#ffffff" opacity="1.00" d=" M 245.56 131.74 C 259.26 129.66 273.60 131.74 286.06 137.85 C 300.36 144.75 312.10 156.76 318.68 171.21 C 324.66 184.20 326.38 199.07 323.64 213.10 C 320.59 229.03 311.63 243.71 298.92 253.78 C 287.65 262.82 273.46 268.13 259.02 268.72 C 245.01 269.36 230.84 265.61 219.03 258.05 C 205.95 249.77 195.82 236.96 190.80 222.31 C 184.49 204.16 186.24 183.37 195.62 166.57 C 205.72 148.09 224.69 134.77 245.56 131.74 Z" />
</g>
</svg>
