<?xml version="1.0" encoding="utf-8"?>
<!-- Generator: Adobe Illustrator 16.0.4, SVG Export Plug-In . SVG Version: 6.00 Build 0)  -->
<!DOCTYPE svg PUBLIC "-//W3C//DTD SVG 1.1//EN" "http://www.w3.org/Graphics/SVG/1.1/DTD/svg11.dtd">
<svg version="1.1" id="Layer_1" xmlns="http://www.w3.org/2000/svg" xmlns:xlink="http://www.w3.org/1999/xlink" x="0px" y="0px"
	 width="128px" height="128px" viewBox="0 0 128 128" enable-background="new 0 0 128 128" xml:space="preserve">
<g>
	<path fill="#FFFFFF" d="M63.875,1.25C29.481,1.25,1.5,29.231,1.5,63.625C1.5,98.02,29.481,126,63.875,126
		c34.395,0,62.375-27.98,62.375-62.375C126.25,29.231,98.27,1.25,63.875,1.25z M63.875,116.254
		c-29.02,0-52.629-23.608-52.629-52.629c0-29.02,23.609-52.629,52.629-52.629c29.021,0,52.629,23.609,52.629,52.629
		C116.504,92.646,92.896,116.254,63.875,116.254z"/>
	<path fill="#FFFFFF" d="M90.889,60.478L51.727,37.633c-2.968-1.73-5.394-0.336-5.394,3.098L46.332,86.52
		c0,3.433,2.427,4.826,5.394,3.097L90.889,66.77C93.855,65.039,93.855,62.208,90.889,60.478z"/>
</g>
</svg>
