<?xml version="1.0" encoding="utf-8"?>
<!-- Generator: Adobe Illustrator 16.0.4, SVG Export Plug-In . SVG Version: 6.00 Build 0)  -->
<!DOCTYPE svg PUBLIC "-//W3C//DTD SVG 1.1//EN" "http://www.w3.org/Graphics/SVG/1.1/DTD/svg11.dtd">
<svg version="1.1" id="Layer_1" xmlns="http://www.w3.org/2000/svg" xmlns:xlink="http://www.w3.org/1999/xlink" x="0px" y="0px"
	 width="512px" height="512px" viewBox="0 0 512 512" enable-background="new 0 0 512 512" xml:space="preserve">
<g>
	<path fill="#37404D" d="M256.108,3.02c-139.743,0-253,113.257-253,253c0,139.744,113.257,252.995,253,252.995
		s253-113.251,253-252.995C509.108,116.277,395.852,3.02,256.108,3.02z M256.108,488.775c-128.338,0-232.76-104.418-232.76-232.755
		c0-128.339,104.422-232.76,232.76-232.76c128.338,0,232.76,104.421,232.76,232.76C488.868,384.357,384.446,488.775,256.108,488.775
		z"/>
	<polyline fill="#37404D" points="245.988,245.9 104.98,245.9 104.98,266.141 245.988,266.141 251.875,266.5 256,266.5 
		266.229,266.141 407.908,266.141 407.908,245.9 266.229,245.9 	"/>
</g>
</svg>
