<?xml version="1.0" encoding="utf-8"?>
<!-- Generator: Adobe Illustrator 16.0.4, SVG Export Plug-In . SVG Version: 6.00 Build 0)  -->
<!DOCTYPE svg PUBLIC "-//W3C//DTD SVG 1.1//EN" "http://www.w3.org/Graphics/SVG/1.1/DTD/svg11.dtd">
<svg version="1.1" id="Layer_1" xmlns="http://www.w3.org/2000/svg" xmlns:xlink="http://www.w3.org/1999/xlink" x="0px" y="0px"
	 width="256px" height="256px" viewBox="0 0 256 256" enable-background="new 0 0 256 256" xml:space="preserve">
<rect x="89.152" y="19.619" fill="#FFFFFF" width="78.36" height="217.814"/>
<rect x="177.475" y="153.762" fill="#FFFFFF" width="78.359" height="83.672"/>
<rect x="0.167" y="88.019" fill="#FFFFFF" width="78.36" height="149.415"/>
<g enable-background="new    ">
	<path fill="#010101" d="M51.687,223.188c0.314,0,0.561,0.094,0.737,0.28c0.177,0.188,0.266,0.428,0.266,0.723v1.651H25.765v-1.003
		c0-0.216,0.054-0.438,0.162-0.663c0.108-0.226,0.25-0.418,0.428-0.575l14.244-14.421c1.18-1.199,2.271-2.359,3.273-3.48
		c1.002-1.12,1.872-2.25,2.609-3.391s1.312-2.311,1.726-3.51s0.619-2.477,0.619-3.834c0-1.533-0.256-2.865-0.767-3.996
		c-0.512-1.13-1.189-2.059-2.035-2.787c-0.846-0.727-1.828-1.268-2.949-1.621c-1.12-0.354-2.28-0.531-3.479-0.531
		c-1.317,0-2.531,0.201-3.643,0.604c-1.11,0.403-2.094,0.964-2.948,1.681c-0.855,0.719-1.563,1.574-2.124,2.566
		c-0.561,0.992-0.949,2.078-1.165,3.258c-0.138,0.434-0.32,0.719-0.546,0.855c-0.226,0.139-0.536,0.188-0.929,0.148l-1.445-0.236
		c0.255-1.789,0.747-3.381,1.474-4.777s1.652-2.576,2.772-3.539s2.418-1.695,3.893-2.197c1.474-0.502,3.066-0.752,4.777-0.752
		c1.592,0,3.111,0.231,4.556,0.693c1.445,0.462,2.724,1.16,3.834,2.094s1.991,2.104,2.64,3.51c0.648,1.405,0.973,3.052,0.973,4.939
		c0,1.572-0.24,3.033-0.722,4.379c-0.482,1.348-1.136,2.64-1.962,3.878c-0.825,1.239-1.784,2.443-2.875,3.612
		c-1.091,1.17-2.236,2.365-3.436,3.584l-13.064,13.329c0.629-0.157,1.283-0.274,1.961-0.354c0.679-0.078,1.361-0.118,2.05-0.118
		H51.687z"/>
</g>
<g enable-background="new    ">
	<path fill="#010101" d="M141.425,223.659v2.183h-21.528v-2.183h9.584v-33.854c0-0.668,0.03-1.377,0.089-2.124l-9.201,8.169
		c-0.275,0.236-0.55,0.324-0.826,0.266s-0.492-0.178-0.649-0.354l-0.855-1.18l12.062-10.646h2.212v39.724H141.425z"/>
</g>
<g enable-background="new    ">
	<path fill="#010101" d="M204.944,195.57c0.255-1.789,0.747-3.381,1.475-4.777s1.651-2.576,2.772-3.539
		c1.12-0.963,2.418-1.695,3.893-2.197s3.066-0.752,4.777-0.752c1.593,0,3.097,0.221,4.512,0.664c1.416,0.441,2.659,1.105,3.73,1.99
		s1.917,1.986,2.536,3.303c0.62,1.317,0.93,2.842,0.93,4.571c0,1.356-0.207,2.58-0.619,3.671c-0.413,1.092-0.988,2.051-1.726,2.876
		s-1.607,1.519-2.61,2.079c-1.002,0.561-2.094,0.988-3.273,1.283c3.067,0.57,5.383,1.754,6.945,3.553
		c1.563,1.799,2.345,4.046,2.345,6.739c0,1.71-0.345,3.298-1.032,4.763c-0.688,1.465-1.632,2.728-2.831,3.789
		s-2.615,1.893-4.247,2.492s-3.401,0.899-5.308,0.899c-2.38,0-4.36-0.319-5.942-0.958c-1.583-0.639-2.886-1.47-3.908-2.492
		s-1.818-2.168-2.389-3.436c-0.57-1.269-1.032-2.531-1.386-3.789l1.121-0.473c0.313-0.137,0.643-0.177,0.987-0.117
		c0.344,0.059,0.595,0.285,0.752,0.678c0.099,0.236,0.231,0.604,0.398,1.105c0.167,0.502,0.407,1.058,0.722,1.667
		s0.723,1.233,1.225,1.872c0.501,0.64,1.131,1.224,1.888,1.755c0.756,0.531,1.666,0.964,2.728,1.298s2.319,0.501,3.774,0.501
		c1.77,0,3.318-0.295,4.646-0.885s2.438-1.342,3.332-2.256s1.563-1.937,2.006-3.067c0.441-1.13,0.663-2.227,0.663-3.288
		c0-1.278-0.202-2.467-0.604-3.568c-0.403-1.101-1.076-2.05-2.021-2.846c-0.943-0.796-2.188-1.425-3.73-1.888
		c-1.543-0.461-3.445-0.693-5.706-0.693v-2.034c1.809-0.039,3.401-0.28,4.777-0.723s2.526-1.047,3.45-1.813
		c0.924-0.768,1.622-1.682,2.094-2.742c0.472-1.062,0.708-2.232,0.708-3.51c0-1.475-0.246-2.752-0.737-3.834
		c-0.491-1.081-1.15-1.977-1.976-2.684c-0.826-0.708-1.789-1.229-2.891-1.562c-1.101-0.334-2.251-0.502-3.45-0.502
		c-1.317,0-2.536,0.201-3.657,0.604c-1.12,0.403-2.108,0.964-2.963,1.681c-0.855,0.719-1.568,1.574-2.139,2.566
		s-0.963,2.078-1.18,3.258c-0.117,0.434-0.285,0.719-0.501,0.855c-0.217,0.139-0.521,0.188-0.915,0.148L204.944,195.57z"/>
</g>
</svg>
