<?xml version="1.0" encoding="UTF-8" ?>
<!DOCTYPE svg PUBLIC "-//W3C//DTD SVG 1.1//EN" "http://www.w3.org/Graphics/SVG/1.1/DTD/svg11.dtd">
<svg width="512pt" height="512pt" viewBox="0 0 512 512" version="1.1" xmlns="http://www.w3.org/2000/svg">
<g id="#ffffffff">
<path fill="#ffffff" opacity="1.00" d=" M 377.05 43.21 C 387.74 41.44 399.07 43.89 408.00 50.05 C 418.85 57.36 425.96 69.88 426.58 82.96 C 427.38 95.79 421.95 108.79 412.29 117.25 C 403.06 125.54 390.08 129.42 377.81 127.54 C 365.38 125.82 353.98 118.22 347.52 107.48 C 340.71 96.45 339.45 82.26 344.09 70.17 C 349.29 56.19 362.30 45.50 377.05 43.21 Z" />
<path fill="#ffffff" opacity="1.00" d=" M 206.90 63.39 C 225.90 56.96 247.11 61.71 263.81 72.02 C 291.97 92.90 320.09 113.84 348.22 134.77 C 359.46 143.64 368.25 155.93 372.18 169.77 C 374.25 178.82 375.48 188.03 377.41 197.11 C 378.52 202.04 380.74 207.10 385.07 210.01 C 389.13 212.76 394.20 213.29 398.99 213.32 C 422.44 213.34 445.88 213.31 469.33 213.34 C 469.32 227.56 469.33 241.78 469.33 256.00 C 445.89 256.00 422.45 256.00 399.00 256.00 C 379.59 255.90 361.29 245.55 348.88 231.01 C 342.28 223.23 337.16 213.99 335.18 203.91 C 334.14 198.29 333.15 192.65 332.11 187.03 C 310.07 204.79 288.02 222.54 265.98 240.30 C 275.49 261.02 285.03 281.73 294.53 302.46 C 297.91 309.95 298.36 318.56 296.42 326.50 C 293.53 338.38 286.10 349.09 276.03 356.02 C 269.87 360.23 262.49 362.85 254.97 362.66 C 205.53 362.65 156.09 362.68 106.65 362.65 C 106.66 348.43 106.65 334.21 106.66 319.99 C 154.99 319.98 203.33 319.99 251.66 319.98 C 234.91 296.60 218.06 273.30 201.38 249.86 C 189.80 232.95 193.17 207.99 208.60 194.57 C 230.02 176.33 251.59 158.25 273.06 140.07 C 274.74 138.62 276.57 137.31 278.04 135.63 C 265.52 126.65 253.35 117.20 240.86 108.19 C 235.98 104.89 230.11 101.33 223.99 102.95 C 193.86 111.13 163.67 119.14 133.52 127.27 C 129.82 113.55 126.17 99.80 122.46 86.08 C 150.59 78.44 178.77 70.99 206.90 63.39 Z" />
<path fill="#ffffff" opacity="1.00" d=" M 42.65 149.34 C 100.25 149.31 157.84 149.33 215.44 149.33 C 205.43 156.39 195.86 164.11 185.48 170.63 C 137.87 170.69 90.26 170.66 42.65 170.64 C 42.65 163.54 42.66 156.44 42.65 149.34 Z" />
<path fill="#ffffff" opacity="1.00" d=" M 42.66 192.00 C 84.62 192.00 126.59 191.99 168.55 192.01 C 165.93 198.95 162.09 205.70 162.06 213.33 C 122.26 213.33 82.46 213.33 42.66 213.33 C 42.65 206.22 42.66 199.11 42.66 192.00 Z" />
<path fill="#ffffff" opacity="1.00" d=" M 42.66 234.66 C 81.78 234.65 120.91 234.66 160.04 234.66 C 162.13 241.77 162.28 249.57 166.33 256.01 C 125.10 255.98 83.88 256.01 42.66 256.00 C 42.66 248.88 42.65 241.77 42.66 234.66 Z" />
<path fill="#ffffff" opacity="1.00" d=" M 132.27 445.86 C 152.17 425.23 172.09 404.62 192.00 384.00 C 211.90 384.00 231.81 384.00 251.71 384.00 C 223.99 412.45 196.25 440.87 168.54 469.32 C 156.44 461.52 144.36 453.68 132.27 445.86 Z" />
</g>
</svg>
