<?xml version="1.0" encoding="utf-8"?>
<!-- Generator: Adobe Illustrator 16.0.4, SVG Export Plug-In . SVG Version: 6.00 Build 0)  -->
<!DOCTYPE svg PUBLIC "-//W3C//DTD SVG 1.1//EN" "http://www.w3.org/Graphics/SVG/1.1/DTD/svg11.dtd">
<svg version="1.1" id="Layer_1" xmlns="http://www.w3.org/2000/svg" xmlns:xlink="http://www.w3.org/1999/xlink" x="0px" y="0px"
	 width="256px" height="256px" viewBox="0 0 256 256" enable-background="new 0 0 256 256" xml:space="preserve">
<path fill="#FFFFFF" d="M253.472,115.602c0,0-4.63-1.74-18.025-2.976c-16.378-1.515-21.318-7.653-26.765-15.294h-0.11
	c-0.678-1.817-1.406-3.61-2.205-5.367l0.062-0.063c-1.555-9.254-2.395-17.091,8.114-29.743
	c8.593-10.342,10.642-14.851,10.642-14.851c-2.018-5.117-6.863-9.963-6.863-9.963s-4.85-4.848-9.964-6.861
	c0,0-4.509,2.044-14.851,10.638c-12.651,10.511-20.488,9.666-29.742,8.114l-0.063,0.063c-1.755-0.799-3.546-1.522-5.367-2.204
	v-0.106c-7.643-5.446-13.78-10.393-15.295-26.77c-1.237-13.388-2.976-18.024-2.976-18.024c-5.045-2.194-11.898-2.194-11.898-2.194
	s-6.856,0-11.896,2.194c0,0-1.743,4.637-2.979,18.024c-1.514,16.377-7.656,21.324-15.294,26.77v0.106
	c-1.816,0.682-3.61,1.405-5.366,2.201l-0.061-0.06c-9.254,1.558-17.091,2.399-29.744-8.11c-10.341-8.592-14.855-10.64-14.855-10.64
	c-5.116,2.018-9.957,6.858-9.957,6.858s-4.849,4.853-6.861,9.965c0,0,2.042,4.509,10.639,14.848
	C52.3,74.81,51.448,82.647,49.902,91.901l0.063,0.063c-0.8,1.757-1.523,3.55-2.205,5.367h-0.107
	c-5.442,7.644-10.389,13.78-26.765,15.294c-13.39,1.238-18.03,2.982-18.03,2.982C0.669,120.653,0.669,127.5,0.669,127.5
	s0,6.858,2.194,11.896c0,0,4.63,1.745,18.021,2.978c16.377,1.515,21.318,7.66,26.769,15.294h0.107
	c0.682,1.821,1.404,3.612,2.205,5.368l-0.063,0.062c1.557,9.256,2.398,17.092-8.111,29.742
	C33.2,203.183,31.15,207.698,31.15,207.698c2.021,5.114,6.86,9.957,6.86,9.957s4.852,4.849,9.966,6.859
	c0,0,4.506-2.039,14.848-10.638c12.652-10.509,20.492-9.656,29.743-8.112l0.064-0.063c1.756,0.8,3.55,1.521,5.366,2.205v0.109
	c7.645,5.442,13.78,10.39,15.295,26.766c1.238,13.389,2.98,18.029,2.98,18.029c5.047,2.188,11.894,2.188,11.894,2.188
	s6.858,0,11.897-2.193c0,0,1.746-4.631,2.977-18.025c1.515-16.377,7.66-21.317,15.295-26.765v-0.11
	c1.821-0.685,3.612-1.404,5.367-2.204l0.063,0.063c9.254-1.556,17.091-2.396,29.742,8.112c10.342,8.593,14.858,10.643,14.858,10.643
	c5.113-2.022,9.956-6.864,9.956-6.864s4.846-4.849,6.863-9.964c0,0-2.043-4.509-10.642-14.851
	c-10.509-12.65-9.663-20.486-8.114-29.742l-0.062-0.062c0.799-1.756,1.527-3.547,2.205-5.368h0.11
	c5.441-7.641,10.387-13.779,26.765-15.294c13.389-1.236,18.029-2.978,18.029-2.978c2.189-5.043,2.189-11.896,2.189-11.896
	S255.664,120.642,253.472,115.602z M128.166,187.13c-32.934,0-59.63-26.697-59.63-59.63c0-32.933,26.696-59.629,59.63-59.629
	c32.932,0,59.629,26.696,59.629,59.629C187.795,160.433,161.098,187.13,128.166,187.13z"/>
</svg>
