<?xml version="1.0" encoding="UTF-8" ?>
<!DOCTYPE svg PUBLIC "-//W3C//DTD SVG 1.1//EN" "http://www.w3.org/Graphics/SVG/1.1/DTD/svg11.dtd">
<svg width="512pt" height="512pt" viewBox="0 0 512 512" version="1.1" xmlns="http://www.w3.org/2000/svg">
<g id="#ffffffff">
<path fill="#ffffff" opacity="1.00" d=" M 385.57 128.77 C 398.82 126.45 412.92 129.37 424.11 136.86 C 435.66 144.47 444.05 156.74 446.85 170.30 C 449.83 184.18 446.95 199.21 438.99 210.97 C 431.38 222.40 419.20 230.69 405.75 233.49 C 393.07 236.20 379.42 234.12 368.19 227.62 C 356.32 220.88 347.23 209.41 343.45 196.27 C 339.30 182.20 341.29 166.43 348.92 153.88 C 356.74 140.73 370.46 131.28 385.57 128.77 Z" />
<path fill="#ffffff" opacity="1.00" d=" M 190.80 150.75 C 203.44 143.28 218.74 141.19 233.14 143.26 C 246.86 145.24 260.30 151.00 270.26 160.80 C 274.57 165.18 278.12 170.22 281.95 175.01 C 299.87 198.12 317.82 221.23 335.37 244.60 C 344.47 255.50 353.55 266.41 362.65 277.32 C 326.70 277.39 290.07 281.00 256.52 294.69 C 241.55 300.54 227.61 308.74 212.56 314.38 C 194.82 320.98 174.88 321.94 156.75 316.37 C 145.92 312.95 135.67 307.11 127.96 298.69 C 173.11 272.69 218.28 246.76 263.44 220.77 C 256.27 211.49 249.07 202.24 241.84 193.01 C 238.60 188.67 234.62 184.19 229.03 183.14 C 222.95 182.06 217.07 184.84 211.95 187.84 C 187.61 202.41 163.30 217.04 138.97 231.62 C 131.64 219.43 124.33 207.23 117.01 195.03 C 141.61 180.27 166.21 165.52 190.80 150.75 Z" />
<path fill="#ffffff" opacity="1.00" d=" M 270.85 337.82 C 302.88 324.07 338.36 316.62 373.19 321.48 C 406.42 326.10 438.50 336.89 469.33 349.86 C 469.33 365.51 469.33 381.15 469.33 396.79 C 448.39 387.32 426.99 378.78 404.97 372.15 C 384.92 366.24 364.09 361.45 343.04 362.91 C 318.13 364.19 294.36 372.72 271.66 382.50 C 255.68 389.84 239.28 396.50 222.12 400.54 C 202.83 405.17 182.75 406.40 163.02 404.36 C 121.44 399.85 81.30 386.75 42.66 371.18 C 42.66 356.25 42.65 341.32 42.66 326.40 C 65.44 335.15 88.46 343.36 111.91 350.14 C 130.62 355.46 149.62 360.13 169.01 362.03 C 182.99 363.42 197.15 362.39 210.87 359.43 C 231.72 354.89 251.42 346.43 270.85 337.82 Z" />
</g>
</svg>
