<?xml version="1.0" encoding="utf-8"?>
<!-- Generator: Adobe Illustrator 16.0.4, SVG Export Plug-In . SVG Version: 6.00 Build 0)  -->
<!DOCTYPE svg PUBLIC "-//W3C//DTD SVG 1.1//EN" "http://www.w3.org/Graphics/SVG/1.1/DTD/svg11.dtd">
<svg version="1.1" xmlns="http://www.w3.org/2000/svg" xmlns:xlink="http://www.w3.org/1999/xlink" x="0px" y="0px"
	 width="106.25px" height="66.97px" viewBox="0 0 106.25 66.97" enable-background="new 0 0 106.25 66.97" xml:space="preserve">
<g id="Randabstand">
	<rect x="0" fill="none" width="310.844" height="66.982"/>
</g>
<g id="Marke">
	<g>
		<path fill="#E20074" d="M14.881,39.53v-7.534h7.534v7.534H14.881z"/>
		<path fill="#E20074" d="M37.855,39.53v-7.534h7.534v7.534H37.855z"/>
		<path fill="#E20074" d="M60.457,39.53v-7.534h7.534v7.534H60.457z"/>
		<path fill="#E20074" d="M83.059,39.53v-7.534h7.534v7.534H83.059z"/>
		<path fill="#E20074" d="M45.017,14.882H15.254L14.881,28.01l1.974,0.341c0.368-3.868,1.383-6.739,3.046-8.612
			c1.75-1.96,4.16-2.984,7.257-3.072v27.463c0,2.398-0.335,3.956-1.035,4.674c-0.595,0.613-1.602,0.989-3.019,1.129
			c-0.42,0.035-1.138,0.053-2.153,0.053v2.101h18.367v-2.101c-1.015,0-1.732-0.018-2.153-0.053c-1.417-0.14-2.424-0.516-3.019-1.129
			c-0.7-0.718-1.039-2.275-1.039-4.674V16.667c3.098,0.088,5.511,1.112,7.262,3.072c1.663,1.873,2.678,4.744,3.045,8.612
			l1.974-0.341L45.017,14.882z"/>
	</g>
</g>
<g id="Slogan">
</g>
<g id="Hilfslinien" display="none">
</g>
</svg>
