<?xml version="1.0" encoding="utf-8"?>
<!-- Generator: Adobe Illustrator 16.0.4, SVG Export Plug-In . SVG Version: 6.00 Build 0)  -->
<!DOCTYPE svg PUBLIC "-//W3C//DTD SVG 1.1//EN" "http://www.w3.org/Graphics/SVG/1.1/DTD/svg11.dtd">
<svg version="1.1" id="Layer_1" xmlns="http://www.w3.org/2000/svg" xmlns:xlink="http://www.w3.org/1999/xlink" x="0px" y="0px"
	 width="32px" height="32px" viewBox="0 0 32 32" enable-background="new 0 0 32 32" xml:space="preserve">
<g display="none">
	<path display="inline" fill="#FFFFFF" d="M20.555,8.959c0-0.002,0-0.004,0-0.006c0-0.009,0.002-0.019,0.002-0.028
		c0-0.006-0.002-0.012-0.002-0.017c0-0.005,0-0.01,0-0.014C20.509,7.869,18.242,7.333,16,7.333c-2.241,0-4.51,0.537-4.555,1.562
		c0,0.005,0,0.009-0.001,0.014c0,0.006-0.001,0.011-0.001,0.017c0,0.01,0.001,0.019,0.001,0.028c0,0.002,0,0.004,0,0.006
		l0.001,0.008c0.001,0.028,0.005,0.056,0.009,0.084l1.293,11.072c0.027,0.808,1.698,1.174,3.251,1.174
		c1.552,0,3.225-0.366,3.25-1.174l1.294-11.072c0.006-0.028,0.008-0.056,0.01-0.084L20.555,8.959z M16,7.916
		c2.559,0,3.957,0.659,3.971,1.003v0.022C19.93,9.287,18.533,9.934,16,9.934c-2.534,0-3.929-0.646-3.969-0.993l-0.003-0.022
		C12.042,8.576,13.442,7.916,16,7.916z M18.669,20.068c-0.002,0.013-0.002,0.021-0.002,0.033c-0.035,0.182-0.983,0.61-2.667,0.61
		c-1.682,0-2.632-0.429-2.667-0.61c0-0.011,0-0.021-0.002-0.033l-1.199-10.26c0.849,0.468,2.364,0.71,3.868,0.71
		s3.02-0.242,3.868-0.71L18.669,20.068z"/>
</g>
<circle fill="#FFFFFF" stroke="#515151" stroke-miterlimit="10" cx="15.895" cy="15.688" r="10.376"/>
<g>
	<path fill="none" stroke="#515151" stroke-width="2" stroke-linecap="round" stroke-linejoin="round" stroke-miterlimit="10" d="
		M12.911,11.06h5.561c1.945,0,3.652,1.707,3.652,3.652c0,1.944-1.707,3.651-3.652,3.651H9.665"/>
	
		<polyline fill="none" stroke="#515151" stroke-width="2" stroke-linecap="round" stroke-linejoin="round" stroke-miterlimit="10" points="
		12.243,20.941 9.665,18.363 12.243,15.786 	"/>
</g>
</svg>
