<?xml version="1.0" encoding="utf-8"?>
<!-- Generator: Adobe Illustrator 16.0.4, SVG Export Plug-In . SVG Version: 6.00 Build 0)  -->
<!DOCTYPE svg PUBLIC "-//W3C//DTD SVG 1.1//EN" "http://www.w3.org/Graphics/SVG/1.1/DTD/svg11.dtd">
<svg version="1.1" id="Layer_1" xmlns="http://www.w3.org/2000/svg" xmlns:xlink="http://www.w3.org/1999/xlink" x="0px" y="0px"
	 width="32px" height="32px" viewBox="0 0 32 32" enable-background="new 0 0 32 32" xml:space="preserve">
<circle fill="#515151" cx="16" cy="15.794" r="10.481"/>
<g>
	<path fill="#FFFFFF" d="M20.555,10.438c0-0.002,0-0.004,0-0.006c0-0.009,0.002-0.019,0.002-0.028c0-0.006-0.002-0.012-0.002-0.017
		c0-0.005,0-0.01,0-0.014C20.509,9.348,18.242,8.812,16,8.812c-2.241,0-4.51,0.537-4.555,1.562c0,0.005,0,0.009-0.001,0.014
		c0,0.006-0.001,0.011-0.001,0.017c0,0.01,0.001,0.019,0.001,0.028c0,0.002,0,0.004,0,0.006l0.001,0.008
		c0.001,0.028,0.005,0.056,0.009,0.084l1.293,11.072c0.027,0.808,1.698,1.174,3.251,1.174c1.552,0,3.225-0.366,3.25-1.174
		l1.294-11.072c0.006-0.028,0.008-0.056,0.01-0.084L20.555,10.438z M16,9.395c2.559,0,3.957,0.659,3.971,1.003v0.022
		c-0.041,0.346-1.438,0.993-3.971,0.993c-2.534,0-3.929-0.646-3.969-0.993l-0.003-0.022C12.042,10.055,13.442,9.395,16,9.395z
		 M18.669,21.547c-0.002,0.013-0.002,0.021-0.002,0.033c-0.035,0.182-0.983,0.61-2.667,0.61c-1.682,0-2.632-0.429-2.667-0.61
		c0-0.011,0-0.021-0.002-0.033l-1.199-10.26c0.849,0.468,2.364,0.71,3.868,0.71s3.02-0.242,3.868-0.71L18.669,21.547z"/>
</g>
</svg>
