<?xml version="1.0" encoding="utf-8"?>
<!-- Generator: Adobe Illustrator 16.0.4, SVG Export Plug-In . SVG Version: 6.00 Build 0)  -->
<!DOCTYPE svg PUBLIC "-//W3C//DTD SVG 1.1//EN" "http://www.w3.org/Graphics/SVG/1.1/DTD/svg11.dtd">
<svg version="1.1" id="Layer_1" xmlns="http://www.w3.org/2000/svg" xmlns:xlink="http://www.w3.org/1999/xlink" x="0px" y="0px"
	 width="42.5px" height="42.5px" viewBox="0 0 42.5 42.5" enable-background="new 0 0 42.5 42.5" xml:space="preserve">
<linearGradient id="SVGID_1_" gradientUnits="userSpaceOnUse" x1="7.0645" y1="21.25" x2="34.958" y2="21.25">
	<stop  offset="0" style="stop-color:#57A4F4"/>
	<stop  offset="0.0074" style="stop-color:#66A1F6"/>
	<stop  offset="0.0235" style="stop-color:#819CF9"/>
	<stop  offset="0.042" style="stop-color:#9798FB"/>
	<stop  offset="0.0636" style="stop-color:#A895FD"/>
	<stop  offset="0.0903" style="stop-color:#B393FE"/>
	<stop  offset="0.1278" style="stop-color:#BA91FF"/>
	<stop  offset="0.2319" style="stop-color:#BC91FF"/>
	<stop  offset="1" style="stop-color:#03ABFF"/>
</linearGradient>
<circle fill="url(#SVGID_1_)" stroke="#FFFFFF" stroke-miterlimit="10" cx="21.012" cy="21.25" r="13.947"/>
<g>
	<path fill="#FFFFFF" stroke="#FFFFFF" stroke-width="0.5" stroke-miterlimit="10" d="M27.312,14.123c0-0.003,0-0.005,0-0.008
		c0-0.013,0.002-0.025,0.002-0.039c0-0.008-0.002-0.016-0.002-0.021c0-0.008,0-0.015,0-0.02c-0.062-1.364-3.078-2.077-6.062-2.077
		c-2.982,0-6,0.715-6.061,2.078c0,0.007,0,0.012-0.002,0.019c0,0.008-0.001,0.016-0.001,0.023c0,0.013,0.001,0.024,0.001,0.036
		c0,0.003,0,0.005,0,0.008l0.002,0.011c0,0.039,0.007,0.075,0.012,0.113l1.721,14.733c0.035,1.074,2.26,1.562,4.326,1.562
		c2.064,0,4.291-0.488,4.324-1.562l1.723-14.733c0.008-0.038,0.01-0.074,0.012-0.113L27.312,14.123z M21.25,12.734
		c3.404,0,5.266,0.877,5.283,1.334v0.03c-0.055,0.461-1.912,1.321-5.283,1.321s-5.229-0.86-5.281-1.321l-0.005-0.03
		C15.982,13.614,17.846,12.734,21.25,12.734z M24.803,28.905c-0.004,0.018-0.004,0.027-0.004,0.043
		c-0.047,0.242-1.309,0.812-3.549,0.812c-2.238,0-3.502-0.57-3.549-0.812c0-0.016,0-0.027-0.002-0.043l-1.596-13.654
		c1.129,0.623,3.145,0.945,5.146,0.945s4.018-0.322,5.146-0.945L24.803,28.905z"/>
</g>
</svg>
