<?xml version="1.0" encoding="utf-8"?>
<!-- Generator: Adobe Illustrator 16.0.4, SVG Export Plug-In . SVG Version: 6.00 Build 0)  -->
<!DOCTYPE svg PUBLIC "-//W3C//DTD SVG 1.1//EN" "http://www.w3.org/Graphics/SVG/1.1/DTD/svg11.dtd">
<svg version="1.1" id="Layer_1" xmlns="http://www.w3.org/2000/svg" xmlns:xlink="http://www.w3.org/1999/xlink" x="0px" y="0px"
	 width="32px" height="32px" viewBox="0 0 32 32" enable-background="new 0 0 32 32" xml:space="preserve">
<g id="pin_1_">
	<path fill="#515151" stroke="#FFFFFF" stroke-miterlimit="10" d="M26.48,13.794c0-5.789-4.692-10.481-10.48-10.481
		c-5.789,0-10.481,4.692-10.481,10.481c0,1.036,0.153,2.036,0.433,2.983c1.492,6.035,10.095,12.785,10.095,12.785
		s9.719-7.621,10.291-13.911l-0.025-0.005C26.421,15.046,26.48,14.427,26.48,13.794z"/>
</g>
<g>
	<path fill="#FFFFFF" d="M20.555,8.959c0-0.002,0-0.004,0-0.006c0-0.009,0.002-0.019,0.002-0.028c0-0.006-0.002-0.012-0.002-0.017
		s0-0.01,0-0.014C20.509,7.869,18.242,7.333,16,7.333c-2.241,0-4.51,0.537-4.555,1.562c0,0.005,0,0.009-0.001,0.014
		c0,0.006-0.001,0.011-0.001,0.017c0,0.01,0.001,0.019,0.001,0.028c0,0.002,0,0.004,0,0.006l0.001,0.008
		c0.001,0.028,0.005,0.056,0.009,0.084l1.293,11.072c0.027,0.807,1.698,1.174,3.251,1.174c1.552,0,3.224-0.367,3.25-1.174
		l1.294-11.072c0.006-0.028,0.008-0.056,0.01-0.084L20.555,8.959z M16,7.916c2.558,0,3.957,0.659,3.971,1.003L19.97,8.941
		C19.929,9.287,18.533,9.934,16,9.934c-2.534,0-3.929-0.646-3.969-0.993l-0.003-0.022C12.042,8.576,13.442,7.916,16,7.916z
		 M18.669,20.068c-0.002,0.013-0.002,0.021-0.002,0.033c-0.035,0.182-0.984,0.611-2.667,0.611c-1.682,0-2.632-0.429-2.667-0.61
		c0-0.011,0-0.021-0.002-0.034L12.132,9.808c0.849,0.468,2.364,0.71,3.868,0.71s3.02-0.242,3.868-0.71L18.669,20.068z"/>
</g>
</svg>
