<?xml version="1.0" encoding="utf-8"?>
<!-- Generator: Adobe Illustrator 15.1.0, SVG Export Plug-In . SVG Version: 6.00 Build 0)  -->
<!DOCTYPE svg PUBLIC "-//W3C//DTD SVG 1.1//EN" "http://www.w3.org/Graphics/SVG/1.1/DTD/svg11.dtd">
<svg version="1.1" xmlns="http://www.w3.org/2000/svg" xmlns:xlink="http://www.w3.org/1999/xlink" x="0px" y="0px" width="1024px"
	 height="1024px" viewBox="0 0 1024 1024" enable-background="new 0 0 1024 1024" xml:space="preserve">
<g id="Layer_1">
	<g>
		<g>
			<g>
				<path fill="#FFFFFF" d="M-1234.781,1595.148c-71.208,0-129.141-57.932-129.141-129.141v-375.992
					c0-71.208,57.932-129.141,129.141-129.141h375.992c71.209,0,129.142,57.933,129.142,129.141v375.992
					c0,71.209-57.933,129.141-129.142,129.141H-1234.781z"/>
			</g>
			<g>
				<g>
					<path fill="#555555" d="M-858.79,973.375c31.156,0,60.447,12.133,82.479,34.164c22.03,22.03,34.163,51.321,34.163,82.477
						v375.992c0,31.156-12.133,60.447-34.163,82.479c-22.031,22.029-51.322,34.162-82.479,34.162h-375.992
						c-31.156,0-60.447-12.133-82.477-34.162c-22.031-22.031-34.164-51.322-34.164-82.479v-375.992
						c0-31.155,12.133-60.446,34.164-82.477c22.031-22.031,51.321-34.164,82.477-34.164H-858.79 M-858.79,948.375h-375.992
						c-78.226,0-141.641,63.416-141.641,141.641v375.992c0,78.227,63.415,141.641,141.641,141.641h375.992
						c78.227,0,141.642-63.414,141.642-141.641v-375.992C-717.148,1011.791-780.563,948.375-858.79,948.375L-858.79,948.375z"/>
				</g>
			</g>
		</g>
		<g>
			<polygon fill="#FFFFFF" points="-471.851,1003.783 -655.679,1204.422 -655.679,1281.844 -655.679,1286.998 -655.679,1364.42 
				-471.851,1565.059 -425.86,1565.059 -425.86,1286.998 -425.86,1281.844 -425.86,1003.783 			"/>
			<path fill="#555555" d="M-413.36,1577.559h-63.992l-190.827-208.279v-169.719l190.827-208.277h63.992V1577.559z
				 M-466.35,1552.559h27.99v-536.275h-27.99l-176.829,192.998v150.277L-466.35,1552.559z"/>
		</g>
		<g>
			<path fill="#555555" d="M-1220.121,1204.285c-45.98,0-68.86-30.36-68.86-77c0-48.181,24.2-77.221,71.5-77.221
				c18.26,0,33,4.4,44.22,13.64c10.56,9.46,16.5,22.44,18.04,38.72h-18.48c-6.6,0-11.44-3.08-14.3-9.02
				c-5.06-10.779-14.96-16.28-29.48-16.28c-28.38,0-40.92,20.021-40.92,50.161c0,29.26,12.1,49.939,40.04,49.939
				c19.14,0,30.14-10.561,33.44-27.061h29.7C-1158.081,1184.705-1182.281,1204.285-1220.121,1204.285z"/>
			<path fill="#555555" d="M-1060.4,1052.484l53.681,149.601h-32.34l-9.9-30.58h-57.86l-9.9,30.58h-32.78l49.94-139.7
				c2.2-6.601,7.04-9.9,14.52-9.9H-1060.4z M-1098.68,1146.205h41.141l-20.68-63.58L-1098.68,1146.205z"/>
			<path fill="#555555" d="M-976.583,1052.484h29.7l30.141,113.961l29.26-113.961h45.54v149.601h-28.82v-120.78l-30.58,120.78
				h-31.24l-30.58-120.78v120.78h-28.82v-133.54C-991.982,1059.965-985.163,1052.484-976.583,1052.484z"/>
			<path fill="#555555" d="M-884.248,1304.213h13.085c15.001,0,22.661,7.66,22.661,22.66v195.012h-44.364v-146.498H-933.4v-31.916
				C-909.143,1343.471-890.312,1325.916-884.248,1304.213z"/>
		</g>
	</g>
	<g>
		<g>
			<path fill="#FFFFFF" d="M-1234.781,863.074c-71.208,0-129.141-57.932-129.141-129.141V357.942
				c0-71.208,57.932-129.141,129.141-129.141h375.992c71.209,0,129.142,57.933,129.142,129.141v375.991
				c0,71.209-57.933,129.141-129.142,129.141H-1234.781z"/>
			<g>
				<path fill="#555555" d="M-858.79,241.301c31.156,0,60.447,12.133,82.479,34.164c22.03,22.031,34.163,51.322,34.163,82.478
					v375.991c0,31.156-12.133,60.447-34.163,82.479c-22.031,22.029-51.322,34.162-82.479,34.162h-375.992
					c-31.156,0-60.447-12.133-82.477-34.162c-22.031-22.031-34.164-51.322-34.164-82.479V357.942
					c0-31.156,12.133-60.447,34.164-82.478s51.321-34.164,82.477-34.164H-858.79 M-858.79,216.301h-375.992
					c-78.226,0-141.641,63.416-141.641,141.641v375.991c0,78.227,63.415,141.641,141.641,141.641h375.992
					c78.227,0,141.642-63.414,141.642-141.641V357.942C-717.148,279.717-780.563,216.301-858.79,216.301L-858.79,216.301z"/>
			</g>
		</g>
		<polygon fill="#FFFFFF" stroke="#555555" stroke-width="25" stroke-miterlimit="10" points="-471.851,271.709 -655.679,472.348 
			-655.679,549.77 -655.679,554.924 -655.679,632.346 -471.851,832.984 -425.86,832.984 -425.86,554.924 -425.86,549.77 
			-425.86,271.709 		"/>
		<text transform="matrix(1 0 0 1 -1303.9385 470.0112)"><tspan x="0" y="0" fill="#555555" font-family="'HarabaraMaisBold-HarabaraMaisBold'" font-size="220">CAM </tspan><tspan x="359.367" y="319.163" fill="#555555" font-family="'HarabaraMaisBold-HarabaraMaisBold'" font-size="319.1618">1</tspan></text>
	</g>
	<g>
		<g>
			<path fill="#FFFFFF" d="M-1234.781,134.212c-71.208,0-129.141-57.932-129.141-129.141V-370.92
				c0-71.208,57.932-129.141,129.141-129.141h375.992c71.209,0,129.142,57.933,129.142,129.141V5.071
				c0,71.209-57.933,129.141-129.142,129.141H-1234.781z"/>
			<g>
				<path fill="#555555" d="M-858.79-487.561c31.156,0,60.447,12.133,82.479,34.164c22.03,22.031,34.163,51.322,34.163,82.478V5.071
					c0,31.156-12.133,60.447-34.163,82.479c-22.031,22.029-51.322,34.162-82.479,34.162h-375.992
					c-31.156,0-60.447-12.133-82.477-34.162c-22.031-22.031-34.164-51.322-34.164-82.479V-370.92
					c0-31.156,12.133-60.447,34.164-82.478s51.321-34.164,82.477-34.164H-858.79 M-858.79-512.561h-375.992
					c-78.226,0-141.641,63.416-141.641,141.641V5.071c0,78.227,63.415,141.641,141.641,141.641h375.992
					c78.227,0,141.642-63.414,141.642-141.641V-370.92C-717.148-449.146-780.563-512.561-858.79-512.561L-858.79-512.561z"/>
			</g>
		</g>
		<polygon fill="#FFFFFF" stroke="#555555" stroke-width="25" stroke-miterlimit="10" points="-471.851,-457.153 -655.679,-256.515 
			-655.679,-179.093 -655.679,-173.938 -655.679,-96.517 -471.851,104.122 -425.86,104.122 -425.86,-173.938 -425.86,-179.093 
			-425.86,-457.153 		"/>
		<text transform="matrix(1 0 0 1 -1303.9385 -258.8516)"><tspan x="0" y="0" fill="#555555" font-family="'HarabaraMaisBold-HarabaraMaisBold'" font-size="220">CAM </tspan><tspan x="293.301" y="319.162" fill="#555555" font-family="'HarabaraMaisBold-HarabaraMaisBold'" font-size="319.1618">2</tspan></text>
	</g>
	<g>
		<polygon fill="#FFFFFF" stroke="#555555" stroke-width="25" stroke-miterlimit="10" points="-458.536,-1187.148 -642.364,-986.51 
			-642.364,-909.088 -642.364,-903.934 -642.364,-826.512 -458.536,-625.874 -412.543,-625.874 -412.543,-903.934 
			-412.543,-909.088 -412.543,-1187.148 		"/>
		<g>
			<g>
				<path fill="#FFFFFF" d="M-1227.717-589.374c-71.208,0-129.141-57.933-129.141-129.141v-375.992
					c0-71.208,57.932-129.141,129.141-129.141h375.993c71.208,0,129.141,57.933,129.141,129.141v375.992
					c0,71.208-57.933,129.141-129.141,129.141H-1227.717z"/>
				<g>
					<path fill="#555555" d="M-851.724-1211.147c31.156,0,60.447,12.133,82.478,34.164c22.03,22.03,34.163,51.322,34.163,82.478
						v375.992c0,31.156-12.133,60.447-34.163,82.478s-51.321,34.163-82.478,34.163h-375.993c-31.156,0-60.447-12.133-82.477-34.163
						c-22.031-22.03-34.164-51.321-34.164-82.478v-375.992c0-31.156,12.133-60.447,34.164-82.478s51.321-34.164,82.477-34.164
						H-851.724 M-851.724-1236.147h-375.993c-78.226,0-141.641,63.416-141.641,141.641v375.992
						c0,78.227,63.415,141.641,141.641,141.641h375.993c78.227,0,141.641-63.414,141.641-141.641v-375.992
						C-710.083-1172.732-773.498-1236.147-851.724-1236.147L-851.724-1236.147z"/>
				</g>
			</g>
			
				<text transform="matrix(1 0 0 1 -1288.0605 -836.8462)" fill="#555555" font-family="'HarabaraMaisBold-HarabaraMaisBold'" font-size="221.8278">finish</text>
		</g>
	</g>
	<g>
		<g>
			<polygon fill="#FFFFFF" points="2061.289,1052.781 1877.461,1253.42 1877.461,1330.842 1877.461,1335.996 1877.461,1413.418 
				2061.289,1614.057 2107.281,1614.057 2107.281,1335.996 2107.281,1330.842 2107.281,1052.781 			"/>
			<path fill="#555555" d="M2119.781,1626.557h-63.993l-190.827-208.278V1248.56l190.827-208.278h63.993V1626.557z
				 M2066.79,1601.557h27.991v-536.275h-27.991l-176.829,192.999v150.277L2066.79,1601.557z"/>
		</g>
		<g>
			<g>
				<g>
					<path fill="#FFFFFF" d="M1292.107,1650.557c-71.208,0-129.141-57.933-129.141-129.141v-375.992
						c0-71.209,57.933-129.141,129.141-129.141h375.993c71.208,0,129.141,57.932,129.141,129.141v375.992
						c0,71.208-57.933,129.141-129.141,129.141H1292.107z"/>
				</g>
				<g>
					<g>
						<path fill="#555555" d="M1668.101,1028.783c31.156,0,60.447,12.133,82.478,34.163s34.163,51.321,34.163,82.478v375.992
							c0,31.156-12.133,60.447-34.163,82.478s-51.321,34.163-82.478,34.163h-375.993c-31.155,0-60.446-12.133-82.477-34.163
							c-22.031-22.03-34.164-51.321-34.164-82.478v-375.992c0-31.156,12.133-60.447,34.164-82.478s51.321-34.163,82.477-34.163
							H1668.101 M1668.101,1003.783h-375.993c-78.225,0-141.641,63.415-141.641,141.641v375.992
							c0,78.227,63.416,141.641,141.641,141.641h375.993c78.227,0,141.641-63.414,141.641-141.641v-375.992
							C1809.741,1067.198,1746.327,1003.783,1668.101,1003.783L1668.101,1003.783z"/>
					</g>
				</g>
			</g>
			<g>
				<path fill="#555555" d="M1273.025,1314.795h-3.993v88.289h-29.504v-120.455c-1.109-22.405,11.979-31.278,33.94-31.278
					c5.102,0,9.761,0.222,14.197,0.888v24.401h-7.764c-6.877,0-10.648,2.884-11.314,8.651v7.764h19.078v6.877
					C1287.666,1307.918,1281.011,1314.795,1273.025,1314.795z"/>
				<path fill="#555555" d="M1317.609,1252.238c9.761,0,14.42,4.88,14.197,14.419v8.651h-29.504v-23.07H1317.609z
					 M1317.609,1285.734c9.539,0,14.197,4.658,14.197,14.197v103.152h-29.504v-117.35H1317.609z"/>
				<path fill="#555555" d="M1433.404,1403.084c-9.762-0.665-14.642-5.324-14.642-14.641v-60.339
					c-0.665-12.201-7.32-18.19-20.409-18.19c-13.088,0-19.742,5.989-19.965,18.19v74.979h-29.947v-68.99
					c0-33.496,16.859-50.134,50.356-50.134s49.912,16.638,49.69,50.134v68.99H1433.404z"/>
				<path fill="#555555" d="M1477.1,1252.238c9.76,0,14.419,4.88,14.197,14.419v8.651h-29.504v-23.07H1477.1z M1477.1,1285.734
					c9.539,0,14.197,4.658,14.197,14.197v103.152h-29.504v-117.35H1477.1z"/>
				<path fill="#555555" d="M1559.174,1381.788c12.424,0,18.635-3.55,18.635-11.092c0-5.989-10.205-10.869-30.391-14.419
					c-25.955-4.658-39.266-16.193-39.486-34.606c0-25.288,19.965-37.268,46.807-37.711c15.084,0,27.063,3.327,35.937,9.982
					c8.651,6.877,13.31,16.415,13.976,28.616h-18.635c-6.877-0.222-11.313-2.662-13.088-7.32c-1.996-5.103-7.986-7.986-17.746-7.986
					c-11.535,0-17.303,3.105-17.303,9.096c0,5.989,7.542,10.647,22.848,13.531c19.965,3.993,33.054,9.096,39.486,15.085
					c5.547,5.768,8.208,12.866,8.208,20.853c0,28.838-22.626,39.486-53.683,39.486c-16.416,0-28.839-3.55-36.824-10.427
					c-8.874-6.654-13.311-16.859-13.311-30.391h30.17C1535.438,1377.352,1544.756,1381.788,1559.174,1381.788z"/>
				<path fill="#555555" d="M1675.853,1310.357c-17.524,0-25.066,14.642-25.066,32.61v60.116h-29.504v-150.846h14.862
					c9.761,0,14.642,5.102,14.642,14.862v35.05c15.084-17.304,33.496-22.184,55.458-14.419c16.415,5.989,24.18,21.739,23.292,47.25
					v68.103h-29.281v-60.116C1700.255,1323.225,1692.712,1310.357,1675.853,1310.357z"/>
			</g>
		</g>
	</g>
	<g>
		<g>
			<polygon fill="#FFFFFF" points="3178.842,1072.998 2995.014,1273.637 2995.014,1351.059 2995.014,1356.213 2995.014,1433.635 
				3178.842,1634.273 3224.834,1634.273 3224.834,1356.213 3224.834,1351.059 3224.834,1072.998 			"/>
			<path fill="#555555" d="M3237.334,1646.773h-63.993l-190.827-208.278v-169.719l190.827-208.278h63.993V1646.773z
				 M3184.343,1621.773h27.991v-536.275h-27.991l-176.829,192.999v150.277L3184.343,1621.773z"/>
		</g>
		<g>
			<g>
				<g>
					<path fill="#FFFFFF" d="M2409.66,1670.773c-71.209,0-129.141-57.933-129.141-129.141v-375.992
						c0-71.209,57.932-129.141,129.141-129.141h375.992c71.209,0,129.141,57.932,129.141,129.141v375.992
						c0,71.208-57.932,129.141-129.141,129.141H2409.66z"/>
				</g>
				<g>
					<g>
						<path fill="#555555" d="M2785.652,1049c31.156,0,60.447,12.133,82.479,34.163c22.029,22.03,34.162,51.321,34.162,82.478
							v375.992c0,31.156-12.133,60.447-34.162,82.478c-22.031,22.03-51.322,34.163-82.479,34.163H2409.66
							c-31.156,0-60.447-12.133-82.477-34.163c-22.031-22.03-34.164-51.321-34.164-82.478v-375.992
							c0-31.156,12.133-60.447,34.164-82.478c22.03-22.03,51.32-34.163,82.477-34.163H2785.652 M2785.652,1024H2409.66
							c-78.226,0-141.641,63.415-141.641,141.641v375.992c0,78.227,63.415,141.641,141.641,141.641h375.992
							c78.227,0,141.641-63.414,141.641-141.641v-375.992C2927.293,1087.415,2863.879,1024,2785.652,1024L2785.652,1024z"/>
					</g>
				</g>
			</g>
			<g>
				<path fill="#555555" d="M2354.593,1265.553v63.859h-25.506v-58.759c0-28.529,14.358-42.699,42.888-42.699
					c12.848,0,22.672,2.834,29.852,8.502c7.18-5.479,17.004-8.124,29.852-8.124c28.529,0,42.699,14.17,42.511,42.699v58.759h-13.036
					c-8.313-0.566-12.471-4.534-12.471-12.47v-51.391c-0.566-10.391-6.234-15.492-17.381-15.492
					c-11.147,0-16.815,5.102-17.004,15.492v63.482h-25.318v-63.859c-0.566-10.392-6.234-15.493-17.381-15.493
					C2360.449,1250.06,2354.781,1255.161,2354.593,1265.553z"/>
				<path fill="#555555" d="M2578.859,1279.911c0,34.386-15.303,51.769-45.533,51.769c-30.229,0-45.344-17.383-45.344-51.769
					c0-34.764,15.115-51.957,45.344-51.957C2563.557,1227.954,2578.859,1245.147,2578.859,1279.911z M2513.488,1279.911
					c0.189,19.46,6.803,29.285,19.65,29.285c12.846,0,19.27-10.202,19.459-30.041c0-19.46-6.424-29.096-19.271-29.096
					C2520.102,1250.06,2513.488,1260.073,2513.488,1279.911z"/>
				<path fill="#555555" d="M2616.08,1243.447c6.424-10.392,15.869-15.493,28.34-15.493c26.639,0.945,39.865,18.327,39.865,52.335
					c0,33.253-15.492,50.067-46.479,50.635c-31.174,0.188-46.855-14.737-46.855-44.777v-85.21h12.658
					c8.313,0,12.471,4.346,12.471,12.659V1243.447z M2616.08,1279.155c-0.189,20.216,6.611,30.419,20.971,30.419
					s21.539-10.203,21.539-30.419c-0.566-19.271-7.559-28.718-21.16-28.718C2623.826,1250.438,2616.836,1259.885,2616.08,1279.155z"
					/>
				<path fill="#555555" d="M2708.658,1200.937c8.313,0,12.279,4.157,12.092,12.281v7.368h-25.129v-19.649H2708.658z
					 M2708.658,1229.466c8.123,0,12.092,3.968,12.092,12.092v87.854h-25.129v-99.946H2708.658z"/>
				<path fill="#555555" d="M2763.824,1213.218v116.194h-25.129v-128.476h13.037
					C2758.344,1200.937,2763.824,1206.604,2763.824,1213.218z"/>
				<path fill="#555555" d="M2822.582,1331.68c-30.229-0.945-45.344-18.516-45.344-52.524c0-34.008,15.303-51.012,45.723-51.201
					c31.74,0,46.666,19.461,44.777,58.57h-64.615c0.943,15.304,7.557,23.05,19.838,23.05c5.855,0,11.336-2.456,16.248-7.18
					c2.268-2.456,5.102-3.59,8.502-3.59h18.516C2860.748,1319.966,2847.145,1331.68,2822.582,1331.68z M2803.5,1268.575h37.598
					c-1.512-13.226-7.746-20.027-18.516-20.027S2805.389,1255.35,2803.5,1268.575z"/>
				<path fill="#555555" d="M2734.416,1409.412h10.25c11.75,0,17.75,6,17.75,17.75v152.75h-34.75v-114.75h-31.75v-25
					C2714.916,1440.162,2729.666,1426.412,2734.416,1409.412z"/>
			</g>
		</g>
	</g>
	<g>
		<g>
			<polygon fill="#FFFFFF" points="3178.842,1900.833 2995.014,2101.472 2995.014,2178.894 2995.014,2184.048 2995.014,2261.47 
				3178.842,2462.108 3224.834,2462.108 3224.834,2184.048 3224.834,2178.894 3224.834,1900.833 			"/>
			<path fill="#555555" d="M3237.334,2474.608h-63.993l-190.827-208.278v-169.719l190.827-208.278h63.993V2474.608z
				 M3184.343,2449.608h27.991v-536.275h-27.991l-176.829,192.999v150.277L3184.343,2449.608z"/>
		</g>
		<g>
			<g>
				<g>
					<path fill="#FFFFFF" d="M2409.66,2498.608c-71.209,0-129.141-57.933-129.141-129.141v-375.992
						c0-71.209,57.932-129.141,129.141-129.141h375.992c71.209,0,129.141,57.932,129.141,129.141v375.992
						c0,71.208-57.932,129.141-129.141,129.141H2409.66z"/>
				</g>
				<g>
					<g>
						<path fill="#555555" d="M2785.652,1876.835c31.156,0,60.447,12.133,82.479,34.163c22.029,22.03,34.162,51.321,34.162,82.478
							v375.992c0,31.156-12.133,60.447-34.162,82.478c-22.031,22.03-51.322,34.163-82.479,34.163H2409.66
							c-31.156,0-60.447-12.133-82.477-34.163c-22.031-22.03-34.164-51.321-34.164-82.478v-375.992
							c0-31.156,12.133-60.447,34.164-82.478c22.03-22.03,51.32-34.163,82.477-34.163H2785.652 M2785.652,1851.835H2409.66
							c-78.226,0-141.641,63.415-141.641,141.641v375.992c0,78.227,63.415,141.641,141.641,141.641h375.992
							c78.227,0,141.641-63.414,141.641-141.641v-375.992C2927.293,1915.25,2863.879,1851.835,2785.652,1851.835L2785.652,1851.835z
							"/>
					</g>
				</g>
			</g>
			<g>
				<path fill="#555555" d="M2354.593,2093.388v63.859h-25.506v-58.759c0-28.529,14.358-42.699,42.888-42.699
					c12.848,0,22.672,2.834,29.852,8.502c7.18-5.479,17.004-8.124,29.852-8.124c28.529,0,42.699,14.17,42.511,42.699v58.759h-13.036
					c-8.313-0.566-12.471-4.534-12.471-12.47v-51.391c-0.566-10.391-6.234-15.492-17.381-15.492
					c-11.147,0-16.815,5.102-17.004,15.492v63.482h-25.318v-63.859c-0.566-10.392-6.234-15.493-17.381-15.493
					C2360.449,2077.895,2354.781,2082.996,2354.593,2093.388z"/>
				<path fill="#555555" d="M2578.859,2107.746c0,34.386-15.303,51.769-45.533,51.769c-30.229,0-45.344-17.383-45.344-51.769
					c0-34.764,15.115-51.957,45.344-51.957C2563.557,2055.789,2578.859,2072.982,2578.859,2107.746z M2513.488,2107.746
					c0.189,19.46,6.803,29.285,19.65,29.285c12.846,0,19.27-10.202,19.459-30.041c0-19.46-6.424-29.096-19.271-29.096
					C2520.102,2077.895,2513.488,2087.908,2513.488,2107.746z"/>
				<path fill="#555555" d="M2616.08,2071.282c6.424-10.392,15.869-15.493,28.34-15.493c26.639,0.945,39.865,18.327,39.865,52.335
					c0,33.253-15.492,50.067-46.479,50.635c-31.174,0.188-46.855-14.737-46.855-44.777v-85.21h12.658
					c8.313,0,12.471,4.346,12.471,12.659V2071.282z M2616.08,2106.99c-0.189,20.216,6.611,30.419,20.971,30.419
					s21.539-10.203,21.539-30.419c-0.566-19.271-7.559-28.718-21.16-28.718C2623.826,2078.272,2616.836,2087.72,2616.08,2106.99z"/>
				<path fill="#555555" d="M2708.658,2028.771c8.313,0,12.279,4.157,12.092,12.281v7.368h-25.129v-19.649H2708.658z
					 M2708.658,2057.301c8.123,0,12.092,3.968,12.092,12.092v87.854h-25.129v-99.946H2708.658z"/>
				<path fill="#555555" d="M2763.824,2041.053v116.194h-25.129v-128.476h13.037
					C2758.344,2028.771,2763.824,2034.439,2763.824,2041.053z"/>
				<path fill="#555555" d="M2822.582,2159.515c-30.229-0.945-45.344-18.516-45.344-52.524c0-34.008,15.303-51.012,45.723-51.201
					c31.74,0,46.666,19.461,44.777,58.57h-64.615c0.943,15.304,7.557,23.05,19.838,23.05c5.855,0,11.336-2.456,16.248-7.18
					c2.268-2.456,5.102-3.59,8.502-3.59h18.516C2860.748,2147.801,2847.145,2159.515,2822.582,2159.515z M2803.5,2096.41h37.598
					c-1.512-13.226-7.746-20.027-18.516-20.027S2805.389,2083.185,2803.5,2096.41z"/>
				<path fill="#555555" d="M2672.541,2278.247c5.75-29.25,25.75-43.75,59.5-43.75c38.5,0,58.25,17.75,60,54
					c-0.75,13-4,23-9.75,30.25c-6.5,9-24,23.5-52.75,43c-8.25,5.25-12.5,10.5-13.5,15.75h74.25v29.75h-122.75
					c0.75-15,4.5-29,11.75-42c7.5-12,18-22.5,31.75-31.25s25.75-17.5,36.25-26.25c5.5-4.5,8.5-11.25,9.25-19.75
					c1-17-7.5-25.5-25-26.25c-18.5,0-27.5,12-27.25,35.75h-19C2674.291,2297.497,2670.041,2290.997,2672.541,2278.247z"/>
			</g>
		</g>
	</g>
	<g>
		<g>
			<polygon fill="#FFFFFF" points="3121.289,234.567 2937.461,435.205 2937.461,512.627 2937.461,517.781 2937.461,595.203 
				3121.289,795.842 3167.281,795.842 3167.281,517.781 3167.281,512.627 3167.281,234.567 			"/>
			<path fill="#555555" d="M3179.781,808.342h-63.993l-190.827-208.278V430.345l190.827-208.278h63.993V808.342z M3126.79,783.342
				h27.991V247.067h-27.991l-176.829,192.999v150.277L3126.79,783.342z"/>
		</g>
		<g>
			<g>
				<g>
					<path fill="#FFFFFF" d="M2352.107,832.342c-71.208,0-129.141-57.933-129.141-129.141V327.209
						c0-71.208,57.933-129.141,129.141-129.141h375.993c71.208,0,129.141,57.933,129.141,129.141v375.992
						c0,71.208-57.933,129.141-129.141,129.141H2352.107z"/>
				</g>
				<g>
					<g>
						<path fill="#555555" d="M2728.101,210.568c31.156,0,60.447,12.133,82.478,34.164c22.03,22.03,34.163,51.322,34.163,82.478
							v375.992c0,31.156-12.133,60.447-34.163,82.478s-51.321,34.163-82.478,34.163h-375.993c-31.155,0-60.446-12.133-82.477-34.163
							c-22.031-22.03-34.164-51.321-34.164-82.478V327.209c0-31.156,12.133-60.447,34.164-82.478s51.321-34.164,82.477-34.164
							H2728.101 M2728.101,185.568h-375.993c-78.225,0-141.641,63.416-141.641,141.641v375.992
							c0,78.227,63.416,141.641,141.641,141.641h375.993c78.227,0,141.641-63.414,141.641-141.641V327.209
							C2869.741,248.983,2806.327,185.568,2728.101,185.568L2728.101,185.568z"/>
					</g>
				</g>
			</g>
			<g>
				<path fill="#555555" d="M2311.003,351.204h222.938v57.272h-95.139v264.591h-65.793V408.477h-95.139v-22.72
					C2277.87,367.297,2292.544,351.204,2311.003,351.204z"/>
				<path fill="#555555" d="M2568.961,428.83c10.886-55.379,48.752-82.832,112.651-82.832c72.893,0,110.285,33.606,113.599,102.239
					c-1.42,24.613-7.573,43.546-18.46,57.272c-12.307,17.04-45.439,44.493-99.872,81.413c-15.619,9.939-23.666,19.88-25.56,29.819
					h140.578v56.326h-232.403c1.42-28.399,8.52-54.906,22.246-79.519c14.2-22.721,34.08-42.6,60.113-59.167
					c26.032-16.566,48.752-33.133,68.632-49.699c10.413-8.52,16.094-21.3,17.514-37.393c1.893-32.186-14.2-48.279-47.333-49.699
					c-35.026,0-52.066,22.72-51.593,67.686h-35.973C2572.273,465.276,2564.228,452.97,2568.961,428.83z"/>
			</g>
		</g>
	</g>
	<g>
		<g>
			<polygon fill="#FFFFFF" points="938.165,228.894 754.337,429.532 754.337,506.955 754.337,512.108 754.337,589.53 
				938.165,790.169 984.157,790.169 984.157,512.108 984.157,506.955 984.157,228.894 			"/>
			<path fill="#555555" d="M996.657,802.669h-63.993L741.837,594.391V424.672l190.827-208.278h63.993V802.669z M943.666,777.669
				h27.991V241.394h-27.991L766.837,434.393V584.67L943.666,777.669z"/>
		</g>
		<g>
			<g>
				<g>
					<path fill="#FFFFFF" d="M168.983,826.669c-71.208,0-129.141-57.933-129.141-129.141V321.536
						c0-71.208,57.933-129.141,129.141-129.141h375.993c71.208,0,129.141,57.933,129.141,129.141v375.992
						c0,71.208-57.933,129.141-129.141,129.141H168.983z"/>
				</g>
				<g>
					<g>
						<path fill="#555555" d="M544.977,204.895c31.156,0,60.447,12.133,82.478,34.164c22.03,22.03,34.163,51.322,34.163,82.478
							v375.992c0,31.156-12.133,60.447-34.163,82.478s-51.321,34.163-82.478,34.163H168.983c-31.155,0-60.446-12.133-82.477-34.163
							c-22.031-22.03-34.164-51.321-34.164-82.478V321.536c0-31.156,12.133-60.447,34.164-82.478s51.321-34.164,82.477-34.164
							H544.977 M544.977,179.895H168.983c-78.225,0-141.641,63.416-141.641,141.641v375.992
							c0,78.227,63.416,141.641,141.641,141.641h375.993c78.227,0,141.641-63.414,141.641-141.641V321.536
							C686.617,243.311,623.203,179.895,544.977,179.895L544.977,179.895z"/>
					</g>
				</g>
			</g>
			<g>
				<path fill="#555555" d="M180.856,345.531h222.938v57.272h-95.139v264.591h-65.793V402.804h-95.139v-22.72
					C147.724,361.625,162.397,345.531,180.856,345.531z"/>
				<path fill="#555555" d="M506.974,345.531h19.406c22.246,0,33.605,11.36,33.605,33.606v289.203h-65.792V451.083h-60.112V403.75
					C470.054,403.75,497.98,377.717,506.974,345.531z"/>
			</g>
		</g>
	</g>
</g>
<g id="Layer_2">
</g>
</svg>
