<?xml version="1.0" encoding="utf-8"?>
<!-- Generator: Adobe Illustrator 16.0.4, SVG Export Plug-In . SVG Version: 6.00 Build 0)  -->
<!DOCTYPE svg PUBLIC "-//W3C//DTD SVG 1.1//EN" "http://www.w3.org/Graphics/SVG/1.1/DTD/svg11.dtd">
<svg version="1.1" id="Layer_2" xmlns="http://www.w3.org/2000/svg" xmlns:xlink="http://www.w3.org/1999/xlink" x="0px" y="0px"
	 width="43.625px" height="39.875px" viewBox="0 0 43.625 39.875" enable-background="new 0 0 43.625 39.875" xml:space="preserve">
<linearGradient id="SVGID_1_" gradientUnits="userSpaceOnUse" x1="4.1636" y1="19.7246" x2="36.9814" y2="19.7246">
	<stop  offset="0" style="stop-color:#FFFFFF"/>
	<stop  offset="0.0312" style="stop-color:#FF2E36"/>
	<stop  offset="1" style="stop-color:#C30000"/>
</linearGradient>
<polygon fill="url(#SVGID_1_)" points="5.149,5.953 4.164,8.513 4.164,20.401 4.164,31.623 5.458,33.941 8.271,36.004 
	15.773,36.004 23.004,36.004 29.575,36.004 32.902,36.004 35.147,34.662 36.703,31.952 36.703,23.737 36.981,9.074 35.928,6.796 
	34.613,5.064 32.313,3.693 27.112,3.446 22.482,3.446 16.403,3.446 11.206,3.446 7.409,3.94 "/>
<linearGradient id="SVGID_2_" gradientUnits="userSpaceOnUse" x1="602.7832" y1="774.8086" x2="614.4512" y2="774.8086" gradientTransform="matrix(1 0 0 1 -592 -759)">
	<stop  offset="0" style="stop-color:#A1A1A1"/>
	<stop  offset="1" style="stop-color:#000000"/>
</linearGradient>
<circle display="none" fill="url(#SVGID_2_)" cx="16.617" cy="15.809" r="5.834"/>
<path display="none" fill="none" stroke="#545454" stroke-width="0.5" stroke-miterlimit="10" d="M16.354,12.522
	c2.022,0.01,3.655,1.66,3.645,3.683l1.461,0.007c0.015-2.829-2.269-5.135-5.099-5.149L16.354,12.522z"/>
<g>
	<path fill="#FFFFFF" d="M30.877,4.199c2.904,0,5.257,2.354,5.257,5.257v20.83c0,2.903-2.353,5.257-5.257,5.257H10.051
		c-2.905,0-5.257-2.354-5.257-5.257V9.457c0-2.903,2.353-5.257,5.257-5.257H30.877 M30.877,2.885H10.051
		c-3.624,0-6.572,2.948-6.572,6.572v20.83c0,3.626,2.948,6.571,6.572,6.571h20.827c3.623,0,6.572-2.945,6.572-6.571V9.457
		C37.448,5.833,34.5,2.885,30.877,2.885L30.877,2.885z"/>
</g>
<circle display="none" fill="#FFFFFF" cx="19.23" cy="14.638" r="1.954"/>
<circle display="none" fill="#FFFFFF" cx="17.354" cy="11.813" r="0.709"/>
<circle display="none" fill="none" stroke="#545454" stroke-width="0.5" stroke-miterlimit="10" cx="16.617" cy="15.809" r="5.834"/>
<circle display="none" fill="none" stroke="#545454" stroke-width="0.5" stroke-miterlimit="10" cx="16.617" cy="15.809" r="7.259"/>
<g enable-background="new    ">
	<path fill="#FFFBFC" d="M20.113,7.252h7.424v1.909h-3.168v8.812h-2.191V9.161h-3.169V8.403C19.009,7.789,19.498,7.252,20.113,7.252
		z"/>
	<path fill="#FFFBFC" d="M30.979,7.252h0.646c0.738,0,1.119,0.379,1.119,1.12v9.631h-2.191v-7.237h-2.003V9.191
		C29.75,9.191,30.679,8.325,30.979,7.252z"/>
</g>
<g enable-background="new    ">
	<path fill="#FFFEFD" d="M20.857,29.388c-1.201,0-1.817-0.692-1.848-2.06c0-1.359,0.608-2.043,1.833-2.065
		c0.962,0,1.533,0.428,1.705,1.292h-1.089c-0.121-0.271-0.33-0.413-0.646-0.413c-0.526,0-0.789,0.397-0.789,1.187
		s0.278,1.188,0.834,1.181c0.232,0,0.436-0.099,0.602-0.286c0.098-0.098,0.21-0.143,0.338-0.143h0.751
		C22.368,28.892,21.782,29.408,20.857,29.388z"/>
	<path fill="#FFFEFD" d="M24.101,26.359h-0.999c0.12-0.736,0.639-1.097,1.556-1.097c1.097,0,1.652,0.36,1.676,1.097v1.352
		c0,1.098-0.662,1.586-1.736,1.661c-0.954,0.074-1.615-0.369-1.615-1.247c0.022-0.954,0.714-1.21,1.721-1.308
		c0.428-0.053,0.646-0.181,0.646-0.398c-0.023-0.226-0.233-0.339-0.646-0.339C24.349,26.082,24.153,26.171,24.101,26.359z
		 M25.362,27.667v-0.368c-0.232,0.099-0.502,0.18-0.795,0.241c-0.398,0.074-0.602,0.263-0.602,0.555
		c0.021,0.316,0.188,0.467,0.503,0.467C25.024,28.562,25.362,28.23,25.362,27.667z"/>
	<path fill="#FFFEFD" d="M27.825,26.758v2.54H26.81v-2.336c0-1.136,0.572-1.699,1.707-1.699c0.511,0,0.901,0.113,1.187,0.338
		c0.286-0.218,0.676-0.323,1.188-0.323c1.134,0,1.698,0.563,1.69,1.698v2.338h-0.519c-0.33-0.023-0.497-0.182-0.497-0.497v-2.044
		c-0.022-0.413-0.247-0.616-0.691-0.616s-0.667,0.203-0.676,0.616v2.524h-1.006v-2.54c-0.022-0.413-0.247-0.616-0.691-0.616
		C28.058,26.141,27.833,26.344,27.825,26.758z"/>
</g>
<line fill="none" stroke="#FFFFFB" stroke-miterlimit="10" x1="6.355" y1="21.437" x2="33.956" y2="21.437"/>
<g>
	<path fill="#FFFEFD" d="M10.093,27.928l-2.232,1.423c-0.039,0.026-0.072,0.038-0.107,0.038c-0.045,0-0.09-0.018-0.123-0.049
		c-0.024-0.022-0.053-0.063-0.053-0.125v-3.517c0-0.154,0.172-0.216,0.275-0.142l2.24,1.428c0.054,0.035,0.121,0.036,0.177,0.007
		c0.056-0.032,0.09-0.091,0.09-0.153v-1.469c0-0.288,0.234-0.521,0.522-0.521h5.912c0.287,0,0.521,0.233,0.521,0.521v4.174
		c0,0.288-0.234,0.522-0.521,0.522h-5.912c-0.288,0-0.522-0.234-0.522-0.522v-1.469c0-0.062-0.034-0.121-0.09-0.153
		C10.215,27.892,10.147,27.894,10.093,27.928z"/>
	<path fill="#FFFEFD" d="M7.23,25.698v3.517c0,0.145,0.057,0.277,0.162,0.377c0.097,0.092,0.229,0.145,0.362,0.145l0,0
		c0.108,0,0.212-0.033,0.301-0.098l1.958-1.247v1.151c0,0.479,0.39,0.87,0.869,0.87h5.913c0.479,0,0.869-0.391,0.869-0.87v-4.174
		c0-0.48-0.39-0.869-0.869-0.869h-5.913c-0.479,0-0.869,0.389-0.869,0.869v1.151l-1.965-1.252c-0.082-0.059-0.186-0.093-0.294-0.093
		C7.465,25.176,7.23,25.411,7.23,25.698z M10.27,27.921c-0.055-0.029-0.123-0.027-0.177,0.007l-2.231,1.423
		c-0.039,0.026-0.072,0.038-0.107,0.038c-0.045,0-0.09-0.018-0.123-0.049c-0.024-0.022-0.053-0.063-0.053-0.125v-3.517
		c0-0.154,0.172-0.216,0.275-0.142l2.24,1.428c0.054,0.035,0.121,0.036,0.177,0.007c0.056-0.032,0.09-0.091,0.09-0.153v-1.469
		c0-0.288,0.234-0.521,0.522-0.521h5.912c0.287,0,0.521,0.233,0.521,0.521v4.174c0,0.288-0.234,0.522-0.521,0.522h-5.912
		c-0.288,0-0.522-0.234-0.522-0.522v-1.469C10.36,28.012,10.326,27.953,10.27,27.921z"/>
</g>
</svg>
