<?xml version="1.0" encoding="utf-8"?>
<!-- Generator: Adobe Illustrator 16.0.4, SVG Export Plug-In . SVG Version: 6.00 Build 0)  -->
<!DOCTYPE svg PUBLIC "-//W3C//DTD SVG 1.1//EN" "http://www.w3.org/Graphics/SVG/1.1/DTD/svg11.dtd">
<svg version="1.1" id="Layer_2" xmlns="http://www.w3.org/2000/svg" xmlns:xlink="http://www.w3.org/1999/xlink" x="0px" y="0px"
	 width="32px" height="32px" viewBox="0 0 32 32" enable-background="new 0 0 32 32" xml:space="preserve">
<polygon fill="#FFFFFF" points="4.75,5.219 4,7.167 4,16.212 4,24.75 4.985,26.514 7.125,28.083 12.833,28.083 18.334,28.083 
	23.334,28.083 25.865,28.083 27.573,27.062 28.757,25 28.757,18.75 28.969,7.594 28.167,5.861 27.167,4.543 25.417,3.5 21.46,3.312 
	17.938,3.312 13.312,3.312 9.358,3.312 6.469,3.688 "/>
<linearGradient id="SVGID_1_" gradientUnits="userSpaceOnUse" x1="306.7832" y1="-368.8086" x2="318.4512" y2="-368.8086" gradientTransform="matrix(1 0 0 -1 -296 -353)">
	<stop  offset="0" style="stop-color:#A1A1A1"/>
	<stop  offset="1" style="stop-color:#000000"/>
</linearGradient>
<circle display="none" fill="url(#SVGID_1_)" cx="16.617" cy="15.809" r="5.834"/>
<path display="none" fill="none" stroke="#545454" stroke-width="0.5" stroke-miterlimit="10" d="M16.354,12.522
	c2.022,0.01,3.655,1.66,3.645,3.683l1.461,0.007c0.015-2.829-2.269-5.135-5.099-5.149L16.354,12.522z"/>
<g>
	<path fill="#545454" d="M24.324,3.885c2.21,0,4,1.791,4,4v15.848c0,2.209-1.79,4-4,4H8.479c-2.21,0-4-1.791-4-4V7.885
		c0-2.209,1.79-4,4-4H24.324 M24.324,2.885H8.479c-2.757,0-5,2.243-5,5v15.848c0,2.758,2.243,5,5,5h15.846c2.757,0,5-2.242,5-5
		V7.885C29.324,5.128,27.081,2.885,24.324,2.885L24.324,2.885z"/>
</g>
<circle display="none" fill="#FFFFFF" cx="19.23" cy="14.638" r="1.954"/>
<circle display="none" fill="#FFFFFF" cx="17.354" cy="11.813" r="0.709"/>
<circle display="none" fill="none" stroke="#545454" stroke-width="0.5" stroke-miterlimit="10" cx="16.617" cy="15.809" r="5.834"/>
<circle display="none" fill="none" stroke="#545454" stroke-width="0.5" stroke-miterlimit="10" cx="16.617" cy="15.809" r="7.259"/>
<g enable-background="new    ">
	<path fill="#545454" d="M14.135,6.208h5.648V7.66h-2.41v6.704h-1.667V7.66h-2.411V7.083C13.295,6.616,13.667,6.208,14.135,6.208z"
		/>
	<path fill="#545454" d="M20.675,8.175c0.276-1.403,1.235-2.099,2.854-2.099c1.848,0,2.795,0.852,2.879,2.59
		c-0.037,0.624-0.191,1.104-0.469,1.451c-0.311,0.433-1.15,1.128-2.529,2.063c-0.396,0.252-0.601,0.504-0.648,0.756h3.562v1.427
		h-5.889c0.035-0.72,0.215-1.392,0.562-2.015c0.36-0.576,0.864-1.08,1.523-1.499c0.66-0.42,1.236-0.84,1.74-1.26
		c0.264-0.216,0.406-0.54,0.443-0.947c0.047-0.815-0.359-1.224-1.199-1.26c-0.889,0-1.32,0.576-1.308,1.716h-0.911
		C20.759,9.099,20.555,8.787,20.675,8.175z"/>
</g>
<g enable-background="new    ">
	<path fill="#545454" d="M8.932,25.748c-1.765,0-2.669-1.016-2.714-3.023c0-1.997,0.894-3.001,2.692-3.033
		c1.412,0,2.25,0.629,2.504,1.897h-1.6c-0.177-0.397-0.485-0.607-0.949-0.607c-0.772,0-1.158,0.585-1.158,1.743
		s0.408,1.743,1.224,1.732c0.342,0,0.64-0.144,0.883-0.419c0.144-0.144,0.309-0.21,0.497-0.21h1.103
		C11.149,25.02,10.289,25.78,8.932,25.748z"/>
	<path fill="#545454" d="M13.693,21.302h-1.467c0.177-1.081,0.938-1.61,2.284-1.61c1.611,0,2.427,0.529,2.46,1.61v1.985
		c0,1.611-0.971,2.328-2.548,2.438c-1.401,0.11-2.372-0.541-2.372-1.831c0.033-1.401,1.048-1.776,2.526-1.92
		c0.628-0.077,0.949-0.265,0.949-0.585c-0.033-0.331-0.342-0.496-0.949-0.496C14.058,20.894,13.771,21.025,13.693,21.302z
		 M15.547,23.222v-0.541c-0.342,0.144-0.739,0.265-1.169,0.354c-0.585,0.11-0.883,0.386-0.883,0.815
		c0.033,0.464,0.276,0.685,0.739,0.685C15.05,24.534,15.547,24.049,15.547,23.222z"/>
	<path fill="#545454" d="M19.161,21.887v3.729h-1.489v-3.431c0-1.666,0.839-2.493,2.505-2.493c0.75,0,1.323,0.165,1.743,0.496
		c0.419-0.32,0.992-0.475,1.743-0.475c1.665,0,2.493,0.827,2.481,2.493v3.432h-0.761c-0.485-0.033-0.729-0.266-0.729-0.729v-3.001
		c-0.033-0.606-0.363-0.904-1.015-0.904s-0.981,0.298-0.993,0.904v3.707H21.17v-3.729c-0.033-0.607-0.364-0.905-1.016-0.905
		C19.504,20.981,19.173,21.279,19.161,21.887z"/>
</g>
<line fill="#545454" stroke="#545454" stroke-miterlimit="10" x1="5.667" y1="17" x2="26.667" y2="17"/>
</svg>
