<?xml version="1.0" encoding="utf-8"?>
<!-- Generator: Adobe Illustrator 16.0.4, SVG Export Plug-In . SVG Version: 6.00 Build 0)  -->
<!DOCTYPE svg PUBLIC "-//W3C//DTD SVG 1.1//EN" "http://www.w3.org/Graphics/SVG/1.1/DTD/svg11.dtd">
<svg version="1.1" id="Layer_2" xmlns="http://www.w3.org/2000/svg" xmlns:xlink="http://www.w3.org/1999/xlink" x="0px" y="0px"
	 width="43.625px" height="39.875px" viewBox="0 0 43.625 39.875" enable-background="new 0 0 43.625 39.875" xml:space="preserve">
<linearGradient id="SVGID_1_" gradientUnits="userSpaceOnUse" x1="299.1348" y1="-364.5879" x2="334.5273" y2="-364.5879" gradientTransform="matrix(1 0 0 -1 -296 -345.125)">
	<stop  offset="0" style="stop-color:#FFFFFF"/>
	<stop  offset="0.0312" style="stop-color:#FF2E36"/>
	<stop  offset="1" style="stop-color:#C30000"/>
</linearGradient>
<polygon fill="url(#SVGID_1_)" points="4.197,4.61 3.135,7.371 3.135,20.192 3.135,32.295 4.53,34.796 7.564,37.02 15.655,37.02 
	23.453,37.02 30.541,37.02 34.129,37.02 36.549,35.572 38.229,32.65 38.229,23.79 38.527,7.977 37.392,5.519 35.974,3.651 
	33.492,2.173 27.884,1.907 22.891,1.907 16.334,1.907 10.73,1.907 6.635,2.439 "/>
<linearGradient id="SVGID_2_" gradientUnits="userSpaceOnUse" x1="898.7832" y1="-1119.9336" x2="910.4512" y2="-1119.9336" gradientTransform="matrix(1 0 0 -1 -888 -1104.125)">
	<stop  offset="0" style="stop-color:#A1A1A1"/>
	<stop  offset="1" style="stop-color:#000000"/>
</linearGradient>
<circle display="none" fill="url(#SVGID_2_)" cx="16.617" cy="15.809" r="5.834"/>
<path display="none" fill="none" stroke="#545454" stroke-width="0.5" stroke-miterlimit="10" d="M16.354,12.522
	c2.022,0.01,3.655,1.66,3.645,3.683l1.461,0.007c0.015-2.829-2.269-5.135-5.099-5.149L16.354,12.522z"/>
<g>
	<path fill="#FFFFFF" d="M31.944,2.719c3.132,0,5.67,2.539,5.67,5.669v22.464c0,3.132-2.538,5.67-5.67,5.67H9.483
		c-3.132,0-5.669-2.538-5.669-5.67V8.389c0-3.13,2.538-5.669,5.669-5.669h22.461 M31.944,1.301H9.483
		c-3.908,0-7.087,3.179-7.087,7.088v22.465c0,3.91,3.179,7.086,7.087,7.086h22.462c3.908,0,7.088-3.176,7.088-7.086V8.389
		C39.031,4.48,35.853,1.301,31.944,1.301L31.944,1.301z"/>
</g>
<circle display="none" fill="#FFFFFF" cx="19.23" cy="14.638" r="1.954"/>
<circle display="none" fill="#FFFFFF" cx="17.354" cy="11.813" r="0.709"/>
<circle display="none" fill="none" stroke="#545454" stroke-width="0.5" stroke-miterlimit="10" cx="16.617" cy="15.809" r="5.834"/>
<circle display="none" fill="none" stroke="#545454" stroke-width="0.5" stroke-miterlimit="10" cx="16.617" cy="15.809" r="7.259"/>
<g enable-background="new    ">
	<path fill="#FFFBFC" d="M20.335,6.011h8.006V8.07h-3.416v9.503h-2.363V8.07h-3.418V7.252C19.145,6.59,19.672,6.011,20.335,6.011z"
		/>
	<path fill="#FFFBFC" d="M32.055,6.011h0.696c0.797,0,1.207,0.409,1.207,1.208v10.387h-2.363V9.801h-2.16V8.103
		C30.729,8.103,31.731,7.168,32.055,6.011z"/>
</g>
<g enable-background="new    ">
	<path fill="#FFFEFD" d="M22.217,29.887c-1.295,0-1.96-0.748-1.994-2.223c0-1.466,0.656-2.203,1.976-2.226
		c1.039,0,1.655,0.461,1.84,1.392h-1.174c-0.131-0.292-0.356-0.444-0.697-0.444c-0.566,0-0.851,0.428-0.851,1.279
		c0,0.853,0.3,1.282,0.899,1.274c0.25,0,0.47-0.107,0.649-0.309c0.105-0.106,0.226-0.154,0.364-0.154h0.81
		C23.846,29.352,23.214,29.907,22.217,29.887z"/>
	<path fill="#FFFEFD" d="M25.716,26.619h-1.079c0.131-0.794,0.69-1.183,1.68-1.183c1.183,0,1.781,0.388,1.808,1.183v1.457
		c0,1.185-0.715,1.711-1.873,1.793c-1.028,0.078-1.742-0.398-1.742-1.346c0.024-1.028,0.771-1.305,1.857-1.411
		c0.461-0.057,0.696-0.195,0.696-0.429c-0.024-0.243-0.251-0.365-0.696-0.365C25.983,26.32,25.771,26.416,25.716,26.619z
		 M27.074,28.029v-0.396c-0.25,0.107-0.541,0.193-0.857,0.26c-0.429,0.08-0.648,0.283-0.648,0.6c0.023,0.34,0.202,0.503,0.543,0.503
		C26.71,28.995,27.074,28.637,27.074,28.029z"/>
	<path fill="#FFFEFD" d="M29.731,27.049v2.739h-1.095V27.27c0-1.225,0.617-1.831,1.842-1.831c0.55,0,0.971,0.12,1.279,0.364
		c0.309-0.237,0.729-0.351,1.282-0.351c1.222,0,1.83,0.607,1.822,1.832v2.522h-0.561c-0.356-0.025-0.535-0.197-0.535-0.537v-2.203
		c-0.024-0.447-0.269-0.665-0.746-0.665s-0.72,0.218-0.729,0.665v2.721h-1.085v-2.739c-0.024-0.445-0.268-0.664-0.745-0.664
		C29.983,26.384,29.74,26.603,29.731,27.049z"/>
</g>
<line fill="none" stroke="#FFFFFB" stroke-miterlimit="10" x1="5.831" y1="21.311" x2="35.598" y2="21.311"/>
<g>
	<path fill="#FFFEFD" d="M14.41,28.129l2.511,1.536c0.044,0.026,0.081,0.04,0.12,0.04c0.051,0,0.101-0.02,0.139-0.054
		c0.026-0.023,0.059-0.067,0.059-0.135v-3.793c0-0.166-0.194-0.232-0.31-0.151l-2.52,1.539c-0.061,0.037-0.137,0.037-0.2,0.007
		c-0.063-0.034-0.101-0.098-0.101-0.165V25.37c0-0.312-0.264-0.563-0.586-0.563H6.87c-0.323,0-0.586,0.252-0.586,0.563v4.501
		c0,0.311,0.263,0.562,0.586,0.562h6.653c0.323,0,0.586-0.252,0.586-0.562v-1.584c0-0.067,0.038-0.131,0.101-0.166
		C14.272,28.091,14.349,28.093,14.41,28.129z"/>
	<path fill="#FFFEFD" d="M17.63,25.724v3.793c0,0.156-0.064,0.299-0.182,0.406c-0.109,0.1-0.258,0.156-0.407,0.156l0,0
		c-0.121,0-0.238-0.034-0.339-0.105L14.5,28.63v1.241c0,0.516-0.439,0.938-0.977,0.938H6.869c-0.539,0-0.978-0.422-0.978-0.938
		V25.37c0-0.519,0.439-0.938,0.978-0.938h6.654c0.538,0,0.977,0.42,0.977,0.938v1.24l2.211-1.351
		c0.092-0.063,0.209-0.101,0.331-0.101C17.366,25.16,17.63,25.415,17.63,25.724z M14.21,28.121c0.062-0.03,0.139-0.028,0.2,0.008
		l2.51,1.536c0.043,0.026,0.081,0.04,0.12,0.04c0.051,0,0.101-0.02,0.139-0.054c0.027-0.023,0.06-0.067,0.06-0.135v-3.793
		c0-0.166-0.194-0.232-0.31-0.151l-2.52,1.539c-0.061,0.037-0.137,0.037-0.2,0.007c-0.063-0.034-0.101-0.098-0.101-0.165V25.37
		c0-0.312-0.264-0.563-0.586-0.563H6.869c-0.323,0-0.586,0.252-0.586,0.563v4.501c0,0.311,0.263,0.562,0.586,0.562h6.653
		c0.323,0,0.586-0.252,0.586-0.562v-1.584C14.109,28.22,14.146,28.156,14.21,28.121z"/>
</g>
</svg>
