<?xml version="1.0" encoding="utf-8"?>
<!-- Generator: Adobe Illustrator 16.0.4, SVG Export Plug-In . SVG Version: 6.00 Build 0)  -->
<!DOCTYPE svg PUBLIC "-//W3C//DTD SVG 1.1//EN" "http://www.w3.org/Graphics/SVG/1.1/DTD/svg11.dtd">
<svg version="1.1" id="Layer_2" xmlns="http://www.w3.org/2000/svg" xmlns:xlink="http://www.w3.org/1999/xlink" x="0px" y="0px"
	 width="43.625px" height="39.875px" viewBox="0 0 43.625 39.875" enable-background="new 0 0 43.625 39.875" xml:space="preserve">
<linearGradient id="SVGID_1_" gradientUnits="userSpaceOnUse" x1="4.1636" y1="19.7246" x2="36.9814" y2="19.7246">
	<stop  offset="0" style="stop-color:#FFFFFF"/>
	<stop  offset="0.0312" style="stop-color:#FF2E36"/>
	<stop  offset="1" style="stop-color:#C30000"/>
</linearGradient>
<polygon fill="url(#SVGID_1_)" points="5.149,5.953 4.164,8.513 4.164,20.401 4.164,31.623 5.458,33.941 8.271,36.004 
	15.773,36.004 23.004,36.004 29.575,36.004 32.902,36.004 35.147,34.662 36.703,31.952 36.703,23.737 36.981,9.074 35.928,6.796 
	34.613,5.064 32.313,3.693 27.112,3.446 22.482,3.446 16.403,3.446 11.206,3.446 7.409,3.94 "/>
<linearGradient id="SVGID_2_" gradientUnits="userSpaceOnUse" x1="602.7832" y1="774.8086" x2="614.4512" y2="774.8086" gradientTransform="matrix(1 0 0 1 -592 -759)">
	<stop  offset="0" style="stop-color:#A1A1A1"/>
	<stop  offset="1" style="stop-color:#000000"/>
</linearGradient>
<circle display="none" fill="url(#SVGID_2_)" cx="16.617" cy="15.809" r="5.834"/>
<path display="none" fill="none" stroke="#545454" stroke-width="0.5" stroke-miterlimit="10" d="M16.354,12.522
	c2.022,0.01,3.655,1.66,3.645,3.683l1.461,0.007c0.015-2.829-2.269-5.135-5.099-5.149L16.354,12.522z"/>
<g>
	<path fill="#FFFFFF" d="M30.877,4.199c2.904,0,5.257,2.354,5.257,5.257v20.83c0,2.903-2.353,5.257-5.257,5.257H10.051
		c-2.905,0-5.257-2.354-5.257-5.257V9.457c0-2.903,2.353-5.257,5.257-5.257H30.877 M30.877,2.885H10.051
		c-3.624,0-6.572,2.948-6.572,6.572v20.83c0,3.626,2.948,6.571,6.572,6.571h20.827c3.623,0,6.572-2.945,6.572-6.571V9.457
		C37.448,5.833,34.5,2.885,30.877,2.885L30.877,2.885z"/>
</g>
<circle display="none" fill="#FFFFFF" cx="19.23" cy="14.638" r="1.954"/>
<circle display="none" fill="#FFFFFF" cx="17.354" cy="11.813" r="0.709"/>
<circle display="none" fill="none" stroke="#545454" stroke-width="0.5" stroke-miterlimit="10" cx="16.617" cy="15.809" r="5.834"/>
<circle display="none" fill="none" stroke="#545454" stroke-width="0.5" stroke-miterlimit="10" cx="16.617" cy="15.809" r="7.259"/>
<g>
	<path fill="#FFFEFD" d="M22.178,17.973h2.191V9.161h3.168V7.252h-7.424c-0.615,0-1.104,0.537-1.104,1.15v0.758h3.169V17.973z"/>
	<path fill="#FFFEFD" d="M30.554,18.004h2.191V8.373c0-0.741-0.381-1.12-1.119-1.12h-0.646c-0.301,1.073-1.229,1.939-2.429,1.939
		v1.576h2.003V18.004z"/>
	<path fill="#FFFEFD" d="M20.812,26.142c0.316,0,0.525,0.143,0.646,0.413h1.089c-0.172-0.864-0.743-1.292-1.705-1.292
		c-1.225,0.022-1.833,0.706-1.833,2.065c0.03,1.367,0.646,2.06,1.848,2.06c0.925,0.021,1.511-0.496,1.69-1.308h-0.751
		c-0.128,0-0.24,0.045-0.338,0.143c-0.166,0.188-0.369,0.286-0.602,0.286c-0.556,0.007-0.834-0.392-0.834-1.181
		S20.286,26.142,20.812,26.142z"/>
	<path fill="#FFFEFD" d="M24.657,25.263c-0.917,0-1.436,0.36-1.556,1.097h0.999c0.053-0.188,0.248-0.277,0.602-0.279
		c0.413,0,0.623,0.113,0.646,0.339c0,0.218-0.219,0.346-0.646,0.398c-1.007,0.098-1.698,0.354-1.721,1.308
		c0,0.878,0.661,1.321,1.615,1.247c1.074-0.075,1.736-0.563,1.736-1.661v-1.352C26.31,25.623,25.754,25.263,24.657,25.263z
		 M25.362,27.667c0,0.563-0.338,0.895-0.894,0.895c-0.315,0-0.481-0.15-0.503-0.467c0-0.292,0.203-0.48,0.602-0.555
		c0.293-0.062,0.562-0.143,0.795-0.241V27.667z"/>
	<path fill="#FFFEFD" d="M30.891,25.277c-0.512,0-0.901,0.105-1.188,0.323c-0.285-0.225-0.676-0.338-1.187-0.338
		c-1.135,0-1.707,0.563-1.707,1.699v2.336h1.016v-2.54c0.008-0.414,0.232-0.617,0.676-0.617c0.444,0,0.669,0.203,0.691,0.616v2.54
		h1.006v-2.524c0.009-0.413,0.231-0.616,0.676-0.616s0.669,0.203,0.691,0.616v2.044c0,0.315,0.167,0.474,0.497,0.497h0.519v-2.338
		C32.589,25.841,32.024,25.277,30.891,25.277z"/>
	<path fill="#FFFEFD" d="M16.795,24.5h-5.913c-0.479,0-0.869,0.389-0.869,0.869v1.151l-1.965-1.252
		c-0.082-0.059-0.186-0.093-0.294-0.093c-0.289,0-0.523,0.235-0.523,0.522v3.517c0,0.145,0.057,0.277,0.162,0.377
		c0.097,0.092,0.229,0.145,0.362,0.145c0.108,0,0.212-0.033,0.301-0.098l1.958-1.247v1.151c0,0.479,0.39,0.87,0.869,0.87h5.913
		c0.479,0,0.869-0.391,0.869-0.87v-4.174C17.664,24.889,17.274,24.5,16.795,24.5z M10.27,27.921c0.056,0.032,0.09,0.091,0.09,0.153
		C10.36,28.012,10.326,27.953,10.27,27.921L10.27,27.921z"/>
</g>
</svg>
